<?xml version="1.0" encoding="UTF-8" standalone="no"?>
<svg
   xmlns:dc="http://purl.org/dc/elements/1.1/"
   xmlns:cc="http://creativecommons.org/ns#"
   xmlns:rdf="http://www.w3.org/1999/02/22-rdf-syntax-ns#"
   xmlns:svg="http://www.w3.org/2000/svg"
   xmlns="http://www.w3.org/2000/svg"
   xmlns:sodipodi="http://sodipodi.sourceforge.net/DTD/sodipodi-0.dtd"
   xmlns:inkscape="http://www.inkscape.org/namespaces/inkscape"
   width="480pt"
   height="480pt"
   viewBox="0 0 480 480"
   version="1.1"
   id="svg2"
   inkscape:version="0.48.2 r9819"
   sodipodi:docname="nix_colordef.svg">
  <metadata
     id="metadata154">
    <rdf:RDF>
      <cc:Work
         rdf:about="">
        <dc:format>image/svg+xml</dc:format>
        <dc:type
           rdf:resource="http://purl.org/dc/dcmitype/StillImage" />
      </cc:Work>
    </rdf:RDF>
  </metadata>
  <defs
     id="defs152" />
  <sodipodi:namedview
     pagecolor="#ffffff"
     bordercolor="#666666"
     borderopacity="1"
     objecttolerance="10"
     gridtolerance="10"
     guidetolerance="10"
     inkscape:pageopacity="0"
     inkscape:pageshadow="2"
     inkscape:window-width="1271"
     inkscape:window-height="838"
     id="namedview150"
     showgrid="false"
     inkscape:zoom="5.9032078"
     inkscape:cx="304.13772"
     inkscape:cy="71.154214"
     inkscape:window-x="0"
     inkscape:window-y="0"
     inkscape:window-maximized="0"
     inkscape:current-layer="svg2" />
  <path
     d=" M 0.00 0.00 L 480.00 0.00 L 480.00 480.00 L 0.00 480.00 L 0.00 0.00 Z"
     id="path4"
     fill="#feaa00" />
  <path
     fill="#060604"
     d=" M 190.04 92.24 C 192.12 88.60 196.74 88.80 200.36 88.56 C 205.68 90.77 209.70 96.17 209.16 102.04 C 209.32 102.53 209.64 103.51 209.80 104.01 C 211.15 113.16 205.21 122.42 197.10 126.39 C 193.40 128.46 189.08 129.67 186.22 132.97 C 186.92 134.14 187.66 135.28 188.44 136.40 C 188.47 136.44 188.53 136.52 188.56 136.56 C 189.49 137.58 190.65 138.26 192.04 138.60 C 193.33 139.46 193.87 139.19 193.65 137.79 C 197.79 137.55 202.01 137.78 206.06 136.78 C 208.97 134.34 211.72 131.58 215.38 130.27 C 215.41 130.26 215.48 130.23 215.51 130.21 C 217.27 129.39 219.15 128.89 221.04 128.43 C 220.59 126.01 220.00 123.62 219.45 121.21 C 224.23 122.42 226.86 126.85 228.02 131.30 C 222.73 132.48 217.94 135.01 213.09 137.32 C 218.59 138.75 223.99 141.05 227.79 145.44 C 227.68 146.62 227.57 147.81 227.46 148.99 C 221.80 147.08 217.42 142.72 211.95 140.47 C 208.38 140.36 204.83 141.24 201.46 142.38 C 198.23 142.67 194.98 142.91 191.82 143.69 C 196.94 144.69 202.15 146.19 206.04 149.89 C 209.99 153.89 214.77 157.93 215.46 163.89 C 213.01 165.09 210.53 166.22 208.10 167.47 C 204.78 162.98 200.06 158.22 201.52 152.09 C 198.26 150.54 194.85 149.35 191.43 148.21 C 194.13 152.43 194.24 157.45 194.95 162.23 C 196.57 168.59 202.55 172.05 207.29 175.89 C 205.37 177.21 203.39 178.42 201.34 179.52 C 200.32 177.39 198.87 175.53 197.14 173.93 C 194.35 171.36 192.66 167.93 190.75 164.71 C 188.91 167.27 187.56 170.12 186.16 172.93 C 185.18 168.79 185.28 164.52 185.26 160.29 C 178.94 163.41 171.52 166.68 168.90 173.79 C 167.47 179.37 165.97 185.20 166.90 190.99 C 168.99 197.89 171.53 204.96 176.88 210.07 C 178.11 209.19 179.37 208.33 180.64 207.50 C 181.37 207.94 182.85 208.83 183.59 209.27 C 183.60 213.48 179.94 216.26 177.64 219.39 C 176.62 222.11 176.15 225.02 176.56 227.92 C 185.58 231.22 195.46 231.20 204.81 229.53 C 208.03 226.46 206.14 221.77 206.40 217.90 C 210.74 220.85 215.62 223.15 220.87 223.84 L 220.18 222.25 C 222.71 222.50 225.44 222.29 227.61 223.90 C 228.71 221.25 228.49 218.26 229.75 215.66 C 230.94 215.42 232.13 215.18 233.32 214.94 C 234.28 218.71 235.29 222.50 235.71 226.39 C 236.31 228.13 236.70 229.95 237.56 231.59 C 238.75 233.34 241.06 233.45 242.96 233.70 C 248.29 234.44 253.65 233.72 258.98 233.48 C 263.09 233.58 265.17 229.35 267.96 227.02 C 267.14 226.14 266.33 225.26 265.52 224.37 C 264.69 224.46 263.01 224.64 262.17 224.73 L 262.86 223.37 C 257.67 223.36 252.09 224.46 247.35 221.72 C 246.68 221.48 245.33 220.98 244.66 220.74 C 250.42 218.01 257.01 220.88 262.83 218.68 C 268.79 218.58 274.64 217.14 280.27 215.28 C 281.21 214.97 283.09 214.36 284.03 214.05 C 282.07 217.49 279.10 220.19 275.59 221.98 C 274.04 222.26 272.46 222.46 270.90 222.68 C 273.16 225.95 275.48 229.43 279.32 231.02 C 282.07 231.61 284.90 231.57 287.71 231.58 C 289.08 228.35 291.97 226.88 295.17 225.94 C 295.69 224.29 296.07 222.60 296.41 220.91 C 296.20 215.32 289.45 211.33 291.93 205.39 C 292.26 205.44 292.90 205.55 293.23 205.60 C 295.07 207.02 297.16 208.33 298.34 210.40 L 298.45 210.57 L 298.60 210.72 C 300.24 212.00 301.31 213.95 301.55 216.01 C 300.90 218.04 300.13 220.08 300.37 222.26 L 300.37 222.73 L 300.39 224.14 C 299.90 225.28 299.44 226.44 298.92 227.57 C 294.57 232.70 287.75 235.68 281.02 234.98 C 278.45 234.95 275.90 233.72 273.35 234.27 C 261.88 238.22 249.22 239.39 237.37 236.51 C 234.16 235.90 231.41 234.05 229.20 231.71 C 228.89 230.17 229.39 228.12 227.78 227.18 C 223.00 227.03 218.30 225.90 213.50 225.96 C 211.01 231.13 205.53 233.82 199.96 233.91 C 190.60 234.03 179.96 235.15 172.17 228.84 C 169.91 223.53 172.69 218.32 174.36 213.31 C 172.86 212.14 171.35 210.97 169.86 209.80 C 168.64 208.84 167.51 207.77 166.48 206.61 C 166.46 206.58 166.42 206.53 166.40 206.50 C 164.16 203.01 162.82 198.92 162.12 194.87 C 161.97 194.36 161.67 193.35 161.52 192.85 C 159.08 183.63 161.80 173.65 166.35 165.54 C 166.38 165.50 166.44 165.42 166.47 165.38 C 168.71 162.93 171.14 160.61 174.02 158.93 C 171.45 156.22 169.15 153.00 168.95 149.13 C 168.37 143.03 167.94 136.74 169.81 130.81 C 171.00 127.07 174.15 124.40 177.48 122.57 C 177.52 122.54 177.59 122.50 177.63 122.47 C 178.35 122.02 179.79 121.12 180.51 120.66 L 180.60 120.61 L 180.70 120.54 L 182.41 119.45 C 182.44 119.43 182.52 119.38 182.55 119.36 C 186.49 117.09 190.25 113.80 191.07 109.10 C 192.44 105.59 190.36 102.34 188.42 99.58 C 188.40 99.55 188.36 99.48 188.34 99.45 C 186.52 97.07 188.95 94.38 190.04 92.24 Z"
     id="path6" />
  <path
     fill="#f9f9f9"
     d=" M 192.83 95.16 C 195.13 91.05 202.07 92.14 203.83 96.24 C 204.85 98.49 205.22 100.97 205.59 103.40 C 206.45 110.85 201.95 118.13 195.50 121.65 C 189.98 124.84 183.30 128.03 181.84 134.91 C 183.18 136.26 184.26 137.83 185.18 139.50 C 183.28 140.09 181.38 140.70 179.47 141.28 C 179.44 146.65 184.95 148.87 187.72 152.69 C 184.50 153.86 180.74 155.29 177.44 153.62 C 172.81 150.26 172.93 143.88 173.53 138.79 C 174.32 135.30 174.86 131.62 176.74 128.52 C 180.83 124.07 186.99 122.14 191.06 117.67 C 194.48 113.61 195.65 107.99 194.69 102.83 C 194.13 100.25 191.07 97.86 192.83 95.16 Z"
     id="path8" />
  <path
     fill="#5d5a52"
     d=" M 188.34 99.45 C 188.36 99.48 188.40 99.55 188.42 99.58 C 188.40 99.55 188.36 99.48 188.34 99.45 Z"
     id="path10" />
  <path
     fill="#5d5a52"
     d=" M 209.16 102.04 L 210.00 102.25 C 209.95 102.69 209.85 103.57 209.80 104.01 C 209.64 103.51 209.32 102.53 209.16 102.04 Z"
     id="path12" />
  <path
     d="m 255.59,111.52 c 6.49,-4.35 14.24,-5.95 21.55,-8.36 1.41,1.2 3.08,2.61 2.49,4.72 -1.16,5.4 -3.68,10.51 -4.05,16.1 -0.36,1.78 0.49,3.32 1.59,4.65 0.03,0.04 0.08,0.12 0.11,0.15 3.76,4.58 10.3,7.13 11.42,13.59 0.01,0.03 0.04,0.1 0.05,0.14 1.41,3.54 2.77,7.12 3.54,10.87 l 0.11,0.44 c 0.85,3.09 1.66678,6.61153 2.63678,9.67153 C 299.69406,161.91099 305.19,161.38 310.35,160.89 l 0.47,-0.05 1.13559,-0.14678 c 0.52,-0.1 1.52441,-0.19322 2.04441,-0.30322 1.91119,-0.10728 3.36287,-0.32287 5.79119,-0.50203 4.10945,-0.0551 12.24544,-0.17916 17.89544,0.24084 -2.82866,1.99763 -6.07663,0.85119 -8.60663,1.44119 -11.38,0.73 -22.94,1.41 -33.86,4.98 0.52,1.64 1.11119,3.60035 1.65119,5.23035 C 301.67574,170.73 308.27,169.95 314.04,169.73 c 1.71832,0.32119 2.2647,-0.12916 4.37069,1.27253 -5.22,1.6 -12.66529,0.94782 -16.79069,2.07747 l -0.47,0.09 c -1.47,0.26 -2.91,0.58 -4.34,0.96 6.59,1.61 13.35,2.77 19.61,5.51 0.03,0.01 0.11,0.04 0.15,0.06 5.95,2.56 11.78,5.7 16.05,10.71 -0.82,0.29 -1.63,0.59 -2.43,0.89 -0.43,-0.4 -1.28,-1.2 -1.71,-1.6 -0.04,-0.03 -0.13,-0.1 -0.17,-0.13 l -1.65,-1.15 c -0.04,-0.03 -0.11,-0.08 -0.15,-0.1 -4.86,-3.4 -10.27,-5.99 -15.86,-7.91 -0.04,-0.01 -0.12,-0.04 -0.16,-0.05 -4.52,-1.47 -9.21,-2.33 -13.9,-3.1 -0.33,1.24 -0.66,2.47 -0.97,3.71 0.49,8.19 -0.82,16.6 -3.84,24.25 -0.93,2.79 -2.7,5.25 -5.83,5.66 -0.85,-5.37 2.4,-9.92 4.22,-14.67 0.88,-6.25 -0.29,-12.59 0.86,-18.83 -8.48,0.05 -17.78,-2.13 -25.55,2.25 -3.35,1.41 -7.1,1.21 -10.48,2.51 -7.22,2.67 -15.03,4.07 -21.5,8.43 -4.62,2.52 -9.26,5.12 -13.01,8.88 -3.65,3.7 -8.09,6.61 -11.23,10.81 -1.98,2.69 -4.34,5.12 -7.13,6.96 0.33,-0.99 0.67,-1.98 1.03,-2.97 4.89,-6.45 11.07,-11.65 16.83,-17.28 4.92,-4.7 11.27,-7.42 17.1,-10.77 4.77,-2.7 10.49,-2.97 15.13,-5.9 -8.81,2.26 -17.71,4.17 -26.49,6.59 -7.61,1.5 -14.33,5.48 -21.21,8.84 -4.03,1.97 -6.08505,3.88896 -10.29505,5.49896 -1.29426,0.3451 -2.5146,0.91294 -2.9546,0.66292 8.97,-5.99 18.39965,-11.25188 28.26965,-15.53188 9.71,-3.15 19.8,-4.92 29.78,-6.98 -6.76,-0.88 -13.58,0.24 -20.36,0.38 -11.07,1.3 -22.48,1.52 -33.04,5.44 -7.39,2.66 -13,8.54 -20.27,11.43 0.79,-1.45 1.6,-2.97 3.09,-3.83 6.23,-4.39 12.9,-8.28 20.07,-10.91 6.23,-1.72 12.74,-1.93 19.11,-2.82 12.81,-1.29 25.71,-2.37 38.59,-1.48 0,-2.86 0.17,-5.92 2.39,-8.01 4.44,-0.86 9.03,0.4 11.97,3.93 6.29,-2.64 12.55,-5.32 18.84,-7.94 -1.99,-8.98 -1.46,-19.79 -8.77,-26.51 -4.37,-4.02 -8.94,-8.15 -14.65,-10.12 -6.86,-2.29 -14.21,-2.97 -21.39,-2.31 -0.2791,-1.12417 -0.66331,-1.23118 -0.73877,-2.38924 -0.0747,-1.14663 -0.21932,-1.33233 0.20709,-1.98076 1.35387,-0.64632 1.49168,-0.7 2.16168,-0.94 l 0.62,-0.38 c 0.35,-0.35 1.05,-1.04 1.39,-1.39 0.03,-0.04 0.09,-0.11 0.12,-0.15 1.85,-2.93 3.98,-5.74 6.82,-7.8 0.02,-0.02 0.08,-0.06 0.11,-0.08 z"
     id="path14"
     inkscape:connector-curvature="0"
     style="fill:#060604"
     sodipodi:nodetypes="ccccccccccccccccccccccccccccccccccccccccccccccccccccccccccccccccccccccsccccccc" />
  <path
     fill="#5d5a52"
     d=" M 255.48 111.60 C 255.50 111.58 255.56 111.54 255.59 111.52 C 255.56 111.54 255.50 111.58 255.48 111.60 Z"
     id="path16" />
  <path
     fill="#f9f9f9"
     d=" M 263.55 113.48 C 266.53 112.12 269.58 110.83 272.87 110.40 C 272.49 115.25 269.89 119.71 270.35 124.66 C 268.41 123.95 266.42 123.40 264.46 122.76 C 260.41 121.41 255.50 122.59 251.98 120.06 C 253.61 119.81 254.43 118.95 254.44 117.47 C 257.56 116.33 260.40 114.56 263.55 113.48 Z"
     id="path18" />
  <path
     fill="#060604"
     d=" M 238.86 121.42 C 239.84 119.84 240.89 118.31 241.95 116.78 C 242.24 119.59 242.50 122.42 242.36 125.26 C 241.69 126.27 240.96 127.23 240.24 128.20 C 239.83 127.91 239.00 127.32 238.58 127.03 C 236.97 125.36 237.97 123.15 238.86 121.42 Z"
     id="path24" />
  <path
     fill="#5d5a52"
     d=" M 182.41 119.45 C 182.44 119.43 182.52 119.38 182.55 119.36 C 182.52 119.38 182.44 119.43 182.41 119.45 Z"
     id="path26" />
  <path
     fill="#5d5a52"
     d=" M 248.54 119.55 C 248.57 119.51 248.63 119.44 248.66 119.40 C 248.63 119.44 248.57 119.51 248.54 119.55 Z"
     id="path28" />
  <path
     fill="#5d5a52"
     d=" M 180.51 120.66 C 180.55 120.63 180.65 120.57 180.70 120.54 L 180.60 120.61 L 180.51 120.66 Z"
     id="path30" />
  <path
     d="m 229.32,118.63609 c 0.43359,0.0867 1.1404,0.57604 1.732,0.88387 1.09463,0.56958 1.48759,0.67829 2.38632,1.12751 1.64,2.05 2.88168,3.51253 3.28168,6.18253 -0.05,0.42 -0.15,1.25 -0.2,1.66 -0.98,0.53 -1.98,1.02 -2.99,1.47 -0.73,-2 -1.57,-3.95 -2.41,-5.9 -0.64,-1.62 -1.23,-3.79391 -1.8,-5.42391 z"
     id="path32"
     inkscape:connector-curvature="0"
     style="fill:#060604"
     sodipodi:nodetypes="cscccccc" />
  <path
     fill="#5d5a52"
     d=" M 177.48 122.57 C 177.52 122.54 177.59 122.50 177.63 122.47 C 177.59 122.50 177.52 122.54 177.48 122.57 Z"
     id="path34" />
  <path
     d="m 242.36,125.26 c -0.01,0.4 -0.04,1.19 -0.05,1.58 0.65,-0.05 1.94,-0.16 2.59,-0.21 7.18,-0.66 14.53,0.02 21.39,2.31 5.71,1.97 10.28,6.1 14.65,10.12 7.31,6.72 6.78,17.53 8.77,26.51 -6.29,2.62 -12.55,5.3 -18.84,7.94 -2.94,-3.53 -7.53,-4.79 -11.97,-3.93 -2.22,2.09 -2.39,5.15 -2.39,8.01 -12.88,-0.89 -25.78,0.19 -38.59,1.48 -6.37,0.89 -12.88,1.1 -19.11,2.82 -7.17,2.63 -13.84,6.52 -20.07,10.91 -1.49,0.86 -2.3,2.38 -3.09,3.83 7.27,-2.89 12.88,-8.77 20.27,-11.43 10.56,-3.92 21.97,-4.14 33.04,-5.44 6.78,-0.14 13.6,-1.26 20.36,-0.38 -9.98,2.06 -20.07,3.83 -29.78,6.98 -9.87,4.28 -19.26406,9.57747 -28.23406,15.56747 0.44,0.25 -0.83123,-0.13984 2.06476,-0.55613 4.21,-1.61 7.1193,-3.67134 11.1493,-5.64134 6.88,-3.36 13.6,-7.34 21.21,-8.84 8.78,-2.42 17.68,-4.33 26.49,-6.59 -4.64,2.93 -10.36,3.2 -15.13,5.9 -5.83,3.35 -12.18,6.07 -17.1,10.77 -5.76,5.63 -11.94,10.83 -16.83,17.28 -0.36,0.99 -0.7,1.98 -1.03,2.97 2.79,-1.84 5.15,-4.27 7.13,-6.96 3.14,-4.2 7.58,-7.11 11.23,-10.81 3.75,-3.76 8.39,-6.36 13.01,-8.88 6.47,-4.36 14.28,-5.76 21.5,-8.43 3.38,-1.3 7.13,-1.1 10.48,-2.51 7.77,-4.38 17.07,-2.2 25.55,-2.25 -1.15,6.24 0.02,12.58 -0.86,18.83 -1.82,4.75 -5.07,9.3 -4.22,14.67 3.13,-0.41 4.9,-2.87 5.83,-5.66 0.51,0.12 1.53,0.36 2.04,0.47 l -0.59,-0.09 c -0.33,-0.05 -0.97,-0.16 -1.3,-0.21 -2.48,5.94 4.27,9.93 4.48,15.52 -0.34,1.69 -0.72,3.38 -1.24,5.03 -3.2,0.94 -6.09,2.41 -7.46,5.64 -2.81,-0.01 -5.64,0.03 -8.39,-0.56 -3.84,-1.59 -6.16,-5.07 -8.42,-8.34 1.56,-0.22 3.14,-0.42 4.69,-0.7 3.51,-1.79 6.48,-4.49 8.44,-7.93 -0.94,0.31 -2.82,0.92 -3.76,1.23 -5.63,1.86 -11.48,3.3 -17.44,3.4 -5.82,2.2 -12.41,-0.67 -18.17,2.06 0.67,0.24 2.02,0.74 2.69,0.98 4.74,2.74 10.32,1.64 15.51,1.65 l -0.69,1.36 c 0.84,-0.09 2.52,-0.27 3.35,-0.36 0.81,0.89 1.62,1.77 2.44,2.65 -2.79,2.33 -4.87,6.56 -8.98,6.46 -5.33,0.24 -10.69,0.96 -16.02,0.22 -1.9,-0.25 -4.21,-0.36 -5.4,-2.11 -0.86,-1.64 -1.25,-3.46 -1.85,-5.2 -0.42,-3.89 -1.43,-7.68 -2.39,-11.45 -1.19,0.24 -2.38,0.48 -3.57,0.72 -1.26,2.6 -1.04,5.59 -2.14,8.24 -2.17,-1.61 -4.9,-1.4 -7.43,-1.65 l 0.69,1.59 c -5.25,-0.69 -10.13,-2.99 -14.47,-5.94 -0.26,3.87 1.63,8.56 -1.59,11.63 -9.35,1.67 -19.23,1.69 -28.25,-1.61 -0.41,-2.9 0.06,-5.81 1.08,-8.53 2.3,-3.13 5.96,-5.91 5.95,-10.12 -0.74,-0.44 -2.22,-1.33 -2.95,-1.77 -1.27,0.83 -2.53,1.69 -3.76,2.57 -5.35,-5.11 -7.89,-12.18 -9.98,-19.08 -0.93,-5.79 0.57,-11.62 2,-17.2 2.62,-7.11 10.04,-10.38 16.36,-13.5 0.02,4.23 -0.08,8.5 0.9,12.64 1.4,-2.81 2.75,-5.66 4.59,-8.22 1.91,3.22 3.6,6.65 6.39,9.22 1.73,1.6 3.18,3.46 4.2,5.59 2.05,-1.1 4.03,-2.31 5.95,-3.63 -4.74,-3.84 -10.72,-7.3 -12.34,-13.66 -0.71,-4.78 -0.82,-9.8 -3.52,-14.02 3.42,1.14 6.83,2.33 10.09,3.88 -1.46,6.13 3.26,10.89 6.58,15.38 2.43,-1.25 4.91,-2.38 7.36,-3.58 -0.69,-5.96 -5.47,-10 -9.42,-14 -3.89,-3.7 -9.1,-5.2 -14.22,-6.2 3.16,-0.78 6.41,-1.02 9.64,-1.31 3.37,-1.14 6.92,-2.02 10.49,-1.91 5.47,2.25 9.85,6.61 15.51,8.52 0.11,-1.18 0.22,-2.37 0.33,-3.55 -3.8,-4.39 -9.2,-6.69 -14.7,-8.12 4.85,-2.31 9.64,-4.84 14.93,-6.02 1.16,-0.21 2.32,-0.38 3.5,-0.48 0.5,-0.22 1.51,-0.64 2.01,-0.86 1.01,-0.45 2.01,-0.94 2.99,-1.47 0.05,-0.41 0.15,-1.24 0.2,-1.66 l 1.86,0.2 c 0.42,0.29 1.25,0.88 1.66,1.17 0.72,-0.97 1.45,-1.93 2.12,-2.94 z"
     id="path36"
     inkscape:connector-curvature="0"
     style="fill:#f9f9f9"
     sodipodi:nodetypes="ccccccccccccccccccccccccccccccccccccccccccccccccccccccccccccccccccccccccccccccccccccccccccccccccc" />
  <path
     fill="#5d5a52"
     d=" M 277.17 128.63 C 277.20 128.67 277.25 128.75 277.28 128.78 C 277.25 128.75 277.20 128.67 277.17 128.63 Z"
     id="path38" />
  <path
     fill="#5d5a52"
     d=" M 215.38 130.27 C 215.41 130.26 215.48 130.23 215.51 130.21 C 215.48 130.23 215.41 130.26 215.38 130.27 Z"
     id="path40" />
  <path
     fill="#5d5a52"
     d=" M 168.28 135.99 C 168.23 134.13 169.06 132.45 169.81 130.81 C 167.94 136.74 168.37 143.03 168.95 149.13 C 167.87 144.83 168.29 140.37 168.28 135.99 Z"
     id="path42" />
  <path
     fill="#5d5a52"
     d=" M 188.44 136.40 C 188.47 136.44 188.53 136.52 188.56 136.56 C 188.53 136.52 188.47 136.44 188.44 136.40 Z"
     id="path44" />
  <path
     fill="#5d5a52"
     d=" M 192.04 138.60 C 192.44 138.40 193.25 137.99 193.65 137.79 C 193.87 139.19 193.33 139.46 192.04 138.60 Z"
     id="path46" />
  <path
     fill="#5d5a52"
     d=" M 288.70 142.37 C 288.71 142.40 288.74 142.47 288.75 142.51 C 288.74 142.47 288.71 142.40 288.70 142.37 Z"
     id="path48" />
  <path
     fill="#060604"
     d=" M 263.69 148.72 C 266.19 143.61 273.68 147.47 274.18 152.07 C 274.41 155.97 274.78 160.20 273.13 163.87 C 272.29 165.73 270.00 165.58 268.31 165.88 C 264.50 161.10 263.40 154.68 263.69 148.72 Z"
     id="path50" />
  <path
     fill="#060604"
     d=" M 238.65 153.78 C 239.05 152.13 240.25 150.34 242.15 150.33 C 244.41 150.40 247.63 149.50 248.81 152.14 C 250.55 157.14 252.04 162.36 251.73 167.72 C 250.80 168.40 249.86 169.08 248.93 169.77 C 246.33 169.08 243.17 168.97 241.43 166.62 C 239.78 162.54 239.10 158.13 238.65 153.78 Z"
     id="path52" />
  <path
     fill="#5d5a52"
     d=" M 292.29 153.38 C 292.32 153.49 292.38 153.71 292.40 153.82 L 292.29 153.38 Z"
     id="path54" />
  <path
     fill="#5d5a52"
     d=" M 310.35 160.89 C 310.47 160.88 310.71 160.86 310.82 160.84 L 310.35 160.89 Z"
     id="path58" />
  <path
     fill="#5d5a52"
     d=" M 166.35 165.54 C 166.38 165.50 166.44 165.42 166.47 165.38 C 166.44 165.42 166.38 165.50 166.35 165.54 Z"
     id="path62" />
  <path
     d="m 274.95,174.7 c 4.77,-2.87 10.03,-4.86 15.11,-7.1 0.36,1.97 0.71356,3.08015 0.85356,5.08015 C 286.6046,173.08931 280.22,174.58 274.95,174.7 z"
     id="path64"
     inkscape:connector-curvature="0"
     style="fill:#f9f9f9"
     sodipodi:nodetypes="cccc" />
  <path
     fill="#5d5a52"
     d=" M 301.15 173.17 L 301.62 173.08 C 301.50 173.10 301.26 173.14 301.15 173.17 Z"
     id="path66" />
  <path
     fill="#5d5a52"
     d=" M 316.42 179.64 C 316.45 179.65 316.53 179.68 316.57 179.70 C 316.53 179.68 316.45 179.65 316.42 179.64 Z"
     id="path68" />
  <path
     fill="#5d5a52"
     d=" M 310.49 180.36 C 310.53 180.37 310.61 180.40 310.65 180.41 C 310.61 180.40 310.53 180.37 310.49 180.36 Z"
     id="path70" />
  <path
     fill="#060604"
     d=" M 264.01 186.95 C 264.47 185.70 265.42 183.78 267.11 184.33 C 268.30 185.07 268.66 186.49 269.31 187.64 C 269.22 189.36 269.89 190.95 270.57 192.49 C 271.10 192.64 272.16 192.92 272.69 193.07 C 276.99 192.46 278.26 187.82 282.01 186.30 C 283.65 188.19 281.91 190.15 280.81 191.74 C 277.18 194.47 274.45 198.17 270.95 201.05 C 269.16 202.08 266.95 201.96 264.95 202.01 C 257.68 201.43 250.04 202.38 243.25 199.15 C 241.74 198.07 241.57 196.19 241.76 194.50 C 247.55 196.24 254.10 201.08 259.90 196.79 C 263.48 194.81 263.26 190.40 264.01 186.95 Z"
     id="path72" />
  <path
     fill="#5d5a52"
     d=" M 326.51 188.32 C 326.55 188.34 326.62 188.39 326.66 188.42 C 326.62 188.39 326.55 188.34 326.51 188.32 Z"
     id="path74" />
  <path
     fill="#5d5a52"
     d=" M 328.31 189.57 C 328.35 189.60 328.44 189.67 328.48 189.70 C 328.44 189.67 328.35 189.60 328.31 189.57 Z"
     id="path76" />
  <path
     fill="#5d5a52"
     d=" M 161.52 192.85 C 161.67 193.35 161.97 194.36 162.12 194.87 L 161.26 194.61 L 160.95 193.58 L 161.52 192.85 Z"
     id="path78" />
  <path
     fill="#060604"
     d=" M 273.87 206.65 C 277.27 205.30 277.64 200.84 280.70 199.12 C 281.17 202.07 279.19 204.39 277.55 206.58 C 275.61 209.01 272.84 210.97 269.60 210.61 C 265.90 213.10 261.43 210.40 257.76 209.12 C 257.33 207.63 256.99 206.01 258.61 205.08 C 261.65 205.86 264.77 206.36 267.78 207.31 C 269.81 207.21 272.02 207.76 273.87 206.65 Z"
     id="path80" />
  <path
     fill="#5d5a52"
     d=" M 166.40 206.50 C 166.42 206.53 166.46 206.58 166.48 206.61 C 166.46 206.58 166.42 206.53 166.40 206.50 Z"
     id="path82" />
  <path
     fill="#5d5a52"
     d=" M 169.86 209.80 C 171.35 210.97 172.86 212.14 174.36 213.31 C 172.69 218.32 169.91 223.53 172.17 228.84 C 179.96 235.15 190.60 234.03 199.96 233.91 C 205.53 233.82 211.01 231.13 213.50 225.96 C 218.30 225.90 223.00 227.03 227.78 227.18 C 229.39 228.12 228.89 230.17 229.20 231.71 C 231.41 234.05 234.16 235.90 237.37 236.51 C 249.22 239.39 261.88 238.22 273.35 234.27 C 275.90 233.72 278.45 234.95 281.02 234.98 C 287.75 235.68 294.57 232.70 298.92 227.57 C 297.55 232.47 290.96 232.76 289.59 237.67 C 286.73 245.80 276.39 251.51 268.35 247.09 C 263.29 248.31 258.24 250.03 252.97 249.90 C 245.68 249.91 238.54 252.75 231.24 251.66 C 227.31 250.72 224.25 247.88 221.64 244.95 C 215.78 244.83 209.91 244.85 204.05 244.88 C 199.47 245.28 194.85 246.67 190.25 245.54 C 183.64 243.69 176.31 246.49 170.04 243.12 C 163.48 240.12 158.81 232.23 161.11 225.07 C 162.21 219.26 167.70 215.89 172.19 212.74 C 171.40 211.76 170.62 210.78 169.86 209.80 Z"
     id="path84" />
  <path
     fill="#5d5a52"
     d=" M 298.34 210.40 C 298.41 210.48 298.54 210.64 298.60 210.72 L 298.45 210.57 L 298.34 210.40 Z"
     id="path86" />
  <path
     fill="#5d5a52"
     d=" M 300.37 222.26 C 300.37 222.38 300.37 222.61 300.37 222.73 L 300.37 222.26 Z"
     id="path88" />
  <path
     fill="#f9f9f9"
     d=" M 220.60 334.64 C 231.44 334.10 242.38 334.29 253.24 334.56 C 242.36 334.89 231.48 334.70 220.60 334.64 Z"
     id="path90" />
  <path
     d="m 253.24,334.56 0.08,0 c 0.44,0.98 1.14,1.74 2.1,2.28 -0.02,4.8 -0.04,9.59 -0.05,14.39 1.59,-2.16 3.14,-4.36 4.63,-6.59 1,-2.95 3.01,-5.35 4.71,-7.9 0.83,-1.02 1.6,-2.7 3.24,-2.36 11.84,-0.07 23.69,0.05 35.53,-0.04 -0.04,0.31 -0.12,0.92 -0.17,1.23 1.78,-1.77 4.38,-1.08 6.63,-1.23 11.41,0.17 22.84,-0.22 34.25,0.21 0.16,0.35 0.48,1.04 0.64,1.39 2.19,4.67 5.3,8.83 8.2,13.07 2.73,3.71 4.66,7.97 7.71,11.45 0.15,0.53 0.45,1.58 0.61,2.1 30.83181,0.35267 25.28461,-2.15378 22.67,1.9 -0.14,-7.48 -0.03,-14.96 -0.07,-22.43 -7.64,0.02 -15.27,0.02 -22.9,0 -0.06,5.52 0.13,11.05 -0.15,16.58 -3.46,-2.59 -5.06634,-6.4361 -7.30634,-9.9761 0.1,-3.71 0.27634,-7.9839 0.48634,-11.6939 0.19366,-2.01902 0.58976,-1.78 2.22,-2.64 10.52,0.19 21.05,-0.02 31.57,0.09 2.29206,0.82841 1.88121,3.37901 2.19297,6.41363 0.48418,4.71279 -0.0152,11.13506 0.0963,13.54504 0.20956,4.06767 5.13682,-6.5749 6.95074,-8.50867 2.22981,-3.80128 3.37823,-11.76675 10.87,-11.44 9.06,0.03 18.13,-0.02 27.2,0.08 3.86,0.37 8.47,-1.45 11.52,1.75 -0.15,40.79 -0.05,81.58 -0.05,122.36 -0.7,0.69 -1.4,1.39 -2.09,2.09 -12.55,-0.26 -25.11,0.11 -37.66,-0.08 -0.76,-0.81 -1.46,-1.65 -2.11,-2.54 -4.79206,-7.6886 -8.40328,-12.75934 -13.63,-21.2 -0.33,7.06 -0.05,14.14 -0.17,21.2 0.22,1.59 -1.37,2.46 -2.21,3.55 -10.84,-0.36 -21.73,-0.36 -32.57,0 -1.27,-1.25 -2.69,-2.62 -2.23,-4.59 0.26,-5.19 -0.71104,-10.53 -0.021,-15.64 1.92,-3.21 3.87104,-6.69 6.94104,-9 0.31,7.19 0.06,14.39 0.14,21.59 7.64,-0.03 15.29,-0.01 22.93,-0.01 -0.05,-6.33 0.02,-12.66 0.01,-18.98 0.03,-3.1 -1.38,-6.25 -0.12,-9.26 -2.16,-2.49 -4.25,-5.05 -6.17,-7.72 -3.27,0.18 -7.2,-0.76 -9.78,1.83 -2.84115,3.71657 -6.17292,6.95929 -7.34152,11.18305 -4.34892,6.60422 -3.61082,6.05412 -8.34,13.32 -5.37156,6.44164 -7.69111,10.81674 -13.19848,16.29695 -10.35,-0.09 -20.71,0.18 -31.05,-0.11 -0.41,-0.33 -0.3839,-4.57591 -0.7939,-4.90591 0.04,0.36 -0.7361,4.66591 -0.6961,5.02591 -12.6,-0.01 -25.2,-0.08 -37.8,0.07 -2.25,-2.36 -3.7,-5.31 -5.61,-7.92 -2,-2.86 -4.57,-5.25 -6.69,-8.01 -0.3,-0.41 -0.91,-1.24 -1.21,-1.65 -0.27,5.29 -0.77208,10.86104 -0.61208,16.16104 -3.48,2.68 -2.75474,1.94656 -6.80474,2.13656 -7.48,0.2 -19.61766,0.1376 -27.18318,-0.1876 l -0.34,0.04 c -0.46,-0.56 -1.36,-1.69 -1.82,-2.26 -0.13,-6.37 0,-12.75 -0.05,-19.13 -6.45,6.01 -10.05,14.45 -16.12,20.82 -12.6,-0.39 -25.24,0.38 -37.81,-0.39 -12.1,0.74 -24.26,0.09 -36.39,0.32 -4.09,-5.3 -8.48,-10.37 -12.68,-15.59 -0.06,4.7 0.19,9.42 -0.05,14.12 -0.35,0.56 -1.06,1.7 -1.42,2.26 -11.34,-0.07 -22.68,-0.05 -34.03,-0.01 -0.34,-0.6 -1.02,-1.81 -1.36,-2.41 -0.39,-7.39 0.03,-14.81 -0.18,-22.2 -5.39,6.26 -9.68,13.37 -14.52,20.04 -1.3,1.52 -2.44,3.93 -4.8,3.76 -11.68,-0.01 -23.37,0.13 -35.05,-0.06 -3.32,-1.12 -2.22,-4.86 -2.37,-7.52 0.02,-38.02 0.04,-76.05 -0.01,-114.08 -0.27,-1.68 0.49,-3.09 1.48,-4.37 13.29,-0.45 26.59,-0.13 39.88,-0.19 3.23,-0.08 4.35,3.47 5.76,5.73 3.18,4.71 6.93,9.03 9.6,14.08 0.2,-5.39 -0.06,-10.78 0.09,-16.17 -0.22,-1.99 1.64,-3.85 3.63,-3.64 10.4,-0.12 20.8,0.11 31.2,-0.1 0.93,1.07 2.56,1.96 2.18,3.66 0.06,3.61 -0.04,7.22 -0.02,10.83 0.98,-1.42 1.97,-2.83 3,-4.21 0.43,-1.03 0.88,-2.04 1.34,-3.05 1.62,-2.17 3.05,-4.48 4.35,-6.85 15.95,-0.78 31.96,0.03 47.92,-0.32 10.33,0.02 20.67,0.04 31,-0.01 1.51,0.13 3.51,-0.41 4.46,1.18 3.59,4.91 6.58,10.28 10.69,14.81 0.43,-4.68 0.21,-9.38 0.15,-14.07 0.75,-0.58 1.51,-1.12 2.31,-1.62 10.88,0.06 21.76,0.25 32.64,-0.08 z"
     id="path92"
     inkscape:connector-curvature="0"
     style="fill:#060604"
     sodipodi:nodetypes="cccccccccccccccccccccccscccccccccccccccccccccccccccccccccccccccccccccccccccccccccccccccccccccccc" />
  <path
     style="fill:#5d5a52"
     d="m 310.82,335.67 c 9.20288,15.1356 19.14819,29.81144 29.3,44.32 -4.88195,-0.40676 -8.65871,4.74811 -9.15468,9.22085 -0.0402,9.91891 -0.008,19.83959 0.005,29.75915 3.1313,-1.68162 4.3267,-5.9903 6.95856,-8.49137 1.29079,-1.51743 2.48905,-2.43588 1.01315,-0.009 -4.76774,7.65332 -10.85058,14.39134 -15.84251,21.88412 -4.49767,5.54643 -7.52845,12.29513 -12.9892,17.02577 -0.12269,-31.29244 -0.0948,-62.5938 -0.003,-93.88112 0.48364,-6.25503 -0.91127,-12.57707 0.1117,-18.79324 l 0.25809,-0.65058 0.34363,-0.38506 0,0 z"
     id="path96"
     inkscape:connector-curvature="0" />
  <path
     d="m 344.83,335.94 c 3.4,3.77 5.43366,8.64634 8.76366,12.47634 2.24,3.54 3.84634,7.60366 7.30634,10.19366 0.28,-5.53 0.09,-11.06 0.15,-16.58 7.63,0.02 15.26,0.02 22.9,0 0.04,7.47 -0.07,14.95 0.07,22.43 1.38,-1.66 4.83231,-7.21704 6.33231,-8.75704 -1.05896,6.53993 -3.03014,6.86753 -5.98887,14.56639 -2.6865,4.22074 -3.10264,7.23085 -7.47035,6.42827 -2.52537,0.35639 -5.04228,-0.35903 -5.76356,-0.53762 -5.87,-2.59 -7.31674,-8.13524 -9.91505,-13.05792 -2.52334,-5.11154 -6.45536,-10.2454 -8.83716,-14.5272 -2.9,-4.24 -5.35732,-7.96488 -7.54732,-12.63488 z"
     id="path98"
     inkscape:connector-curvature="0"
     style="fill:#5d5a52"
     sodipodi:nodetypes="ccccccccccccc" />
  <path
     fill="#f9f9f9"
     d=" M 28.91 341.29 C 36.93 341.39 44.95 341.26 52.97 341.34 C 55.32 341.27 56.57 343.59 57.97 345.10 C 75.58 366.45 93.29 387.73 110.87 409.10 C 112.49 411.55 114.67 413.51 117.26 414.89 C 121.03 415.85 124.97 415.89 128.83 415.53 C 131.90 415.08 134.08 412.75 136.24 410.75 C 136.65 409.18 137.10 407.60 137.01 405.97 C 136.98 384.54 137.02 363.12 136.98 341.69 C 144.16 340.91 151.42 341.46 158.62 341.38 C 158.70 378.80 158.73 416.21 158.61 453.63 C 149.98 453.57 141.30 453.96 132.70 453.46 C 127.88 448.58 123.62 443.13 119.28 437.81 C 110.96 428.05 103.12 417.89 94.73 408.18 C 89.13 400.50 82.26 393.86 76.70 386.14 C 74.34 383.13 71.22 379.85 67.08 380.00 C 63.02 380.28 58.47 379.04 54.88 381.54 C 52.41 383.03 51.05 385.71 50.38 388.43 C 50.71 390.58 50.71 392.77 50.69 394.95 C 50.61 414.51 50.77 434.07 50.61 453.63 C 43.38 453.75 36.15 453.61 28.92 453.71 C 28.53 450.15 28.68 446.56 28.67 442.99 C 28.67 412.65 28.67 382.32 28.67 351.98 C 28.68 348.41 28.53 344.84 28.91 341.29 Z"
     id="path102" />
  <path
     style="fill:#f9f9f9"
     d="m 321.16,341.5 c 5.85839,-0.20946 11.81222,-0.3879 17.62246,-0.0103 4.65982,2.42499 5.7817,8.24218 9.22644,11.94053 3.78919,6.07077 7.43924,12.2285 11.57183,18.07286 2.55909,4.64729 4.43395,9.35684 9.71407,11.31656 3.55055,0.62416 7.00772,0.6987 10.33627,-0.19421 7.61622,-1.63834 8.94152,-7.35876 12.24902,-13.95766 4.9063,-8.57094 10.21027,-16.89606 15.09722,-25.47348 3.96502,-3.79827 11.05443,-1.05467 16.3557,-1.89601 2.68622,-0.1903 6.13026,0.0405 2.41654,2.68273 -6.05228,7.66437 -10.96421,16.1956 -17.09631,23.82411 -3.91792,4.3407 -6.08373,9.84024 -10.11852,14.11369 -3.96699,4.53577 -9.07455,10.47859 -6.37616,16.89308 2.09259,4.65144 5.9237,8.23678 8.44165,12.62442 4.30682,5.91289 8.72147,11.76089 12.88629,17.77527 3.00883,4.74413 7.18167,8.7027 9.83384,13.72707 2.28111,3.41391 7.1922,8.30981 7.75844,10.7461 -6.84407,-0.23234 -13.7125,0.42283 -20.53875,-0.31479 -3.90371,-4.77599 -6.75431,-10.31524 -10.70671,-15.05899 -5.99258,-9.08467 -10.24869,-19.64549 -18.5382,-26.98578 -5.53878,-3.86407 -13.38868,-1.69956 -17.59274,3.16809 -7.40766,7.33492 -11.75237,17.02897 -18.20503,25.1175 -3.37779,4.54314 -5.4533,10.19476 -9.73732,13.97918 -5.99923,-0.31861 -15.2739,1.1259 -19.23457,-0.79523 3.30117,-5.03601 7.17925,-9.67828 10.63426,-14.60508 6.34394,-8.92004 13.42879,-17.27644 19.38031,-26.47969 4.02546,-5.10343 9.84551,-9.96729 9.50104,-17.09292 1.48952,-5.58146 -4.14322,-8.64595 -6.35442,-13.14034 C 340.7403,367.75649 328.93498,355.98503 321.16,341.5 z"
     id="path104"
     inkscape:connector-curvature="0"
     sodipodi:nodetypes="ccccccccccccccccccccccccccccc" />
  <path
     d="m 436.66,341.1 c 1.57,-0.38 2.52,1.49 2.29,2.84 0.04,35.95 -0.04,71.91 0.04,107.86 1.01,0.84 1.1739,1.47848 2.1839,2.33848 0.32305,2.26304 1.0661,4.09152 -0.1639,5.67152 0.04,-2.27 0.29,-4.81 -1.49,-6.54 -7.83905,-13.26725 -21.02075,-26.0641 -27.45,-37.27 -2.35,-3.66 -4.99,-7.11 -7.72,-10.48 -0.08,-0.49 -0.25,-1.47 -0.33,-1.96 1.35,1.54 2.6,3.16 3.8,4.82 1.54,2.11 2.88,4.51 5.2,5.87 2.76,-1.79 5.23,-4.72 5.04,-8.21 -0.06,-12.5 0.08,-25.01 -0.11,-37.51 -2.56,3.11 -5.14,6.23 -7.3,9.64 -0.9,1.03 -1.84,2.03 -2.75,3.04 2.78727,-4.51416 3.57552,-5.72896 5.83,-8.47 7.0609,-12.50944 14.99456,-21.00561 22.93,-31.64 z"
     id="path106"
     inkscape:connector-curvature="0"
     style="fill:#5d5a52"
     sodipodi:nodetypes="ccccccccccccccccc" />
  <path
     fill="#5d5a52"
     d=" M 85.03 342.04 C 92.67 342.04 100.31 342.07 107.94 342.01 C 107.93 359.13 108.03 376.24 107.90 393.36 C 103.00 386.59 96.79 380.89 92.08 373.98 C 89.81 371.12 87.20 368.52 85.12 365.50 C 84.94 357.68 85.10 349.86 85.03 342.04 Z"
     id="path108" />
  <path
     fill="#5d5a52"
     d=" M 128.21 342.00 C 128.64 342.00 129.52 342.02 129.96 342.02 C 129.93 350.21 130.02 358.41 129.91 366.60 C 126.88 368.81 125.51 372.37 123.06 375.08 C 120.25 378.19 118.79 382.21 116.13 385.42 C 116.02 377.78 115.92 370.13 116.18 362.49 C 120.22 356.61 123.87 350.47 127.83 344.55 C 127.93 343.91 128.11 342.63 128.21 342.00 Z"
     id="path110" />
  <path
     fill="#5d5a52"
     d=" M 170.02 342.05 C 178.92 342.04 187.81 342.03 196.71 342.05 C 197.93 344.18 199.42 346.13 201.22 347.80 C 206.92 354.21 211.98 361.21 217.90 367.42 C 218.03 373.33 217.89 379.25 218.01 385.16 C 215.92 383.39 213.75 381.72 211.58 380.06 C 207.39 379.98 203.19 379.73 199.02 380.08 C 196.06 380.72 194.18 383.37 192.02 385.27 C 191.87 407.83 192.00 430.41 191.96 452.98 C 184.65 452.94 177.34 452.96 170.03 452.96 C 170.05 415.99 170.07 379.02 170.02 342.05 Z"
     id="path112" />
  <path
     style="fill:#f9f9f9"
     d="m 224.51,341.71 c 7.9269,0.63035 15.88106,0.12972 23.82,0.29 0,37.33333 0,74.66667 0,112 -7.93894,0.16028 -15.8931,-0.34035 -23.82,0.29 0.42222,-10.05557 -0.14363,-49.59423 0.51299,-59.64351 -0.15717,-27.50594 -1.24276,-21.92593 -0.32941,-46.32278 4.9e-4,-2.20561 -0.0371,-4.41247 -0.18391,-6.61371 z"
     id="path114"
     inkscape:connector-curvature="0"
     sodipodi:nodetypes="cccccccc" />
  <path
     fill="#5d5a52"
     d=" M 270.12 341.97 L 271.00 342.09 C 270.85 350.58 271.10 359.08 270.85 367.58 C 266.98 371.58 264.18 376.44 260.82 380.84 C 259.16 383.52 257.67 386.38 255.05 388.28 C 255.02 382.52 255.08 376.75 255.00 371.00 C 255.08 369.55 254.85 367.97 255.68 366.69 C 260.27 359.23 264.56 351.54 269.88 344.56 C 269.94 343.91 270.06 342.61 270.12 341.97 Z"
     id="path116" />
  <path
     fill="#5d5a52"
     d=" M 279.03 342.04 C 286.01 342.03 292.98 342.06 299.96 342.03 C 299.96 379.01 299.94 415.98 299.97 452.96 C 291.06 452.96 282.15 452.94 273.24 452.97 C 270.21 448.05 265.55 444.51 262.29 439.77 C 260.09 436.63 257.05 434.06 255.31 430.64 C 254.63 424.78 255.28 418.83 254.99 412.94 C 261.78 417.85 272.35 417.53 277.86 410.81 C 278.44 408.58 279.14 406.35 279.07 404.03 C 279.00 383.37 279.08 362.71 279.03 342.04 Z"
     id="path118" />
  <path
     d=" M 410.65 378.17 C 412.81 374.76 415.39 371.64 417.95 368.53 C 418.14 381.03 418.00 393.54 418.06 406.04 C 418.25 409.53 415.78 412.46 413.02 414.25 C 410.70 412.89 409.36 410.49 407.82 408.38 C 411.55 407.07 410.53 403.07 410.64 400.01 C 410.61 392.73 410.55 385.45 410.65 378.17 Z"
     id="path122"
     fill="#060604" />
  <path
     fill="#feaa00"
     d=" M 407.90 381.21 C 408.81 380.20 409.75 379.20 410.65 378.17 C 410.55 385.45 410.61 392.73 410.64 400.01 C 410.53 403.07 411.55 407.07 407.82 408.38 C 406.62 406.72 405.37 405.10 404.02 403.56 C 403.38 402.83 402.70 402.15 401.99 401.50 L 401.82 401.20 C 400.87 399.25 399.35 397.38 399.29 395.14 C 399.67 392.80 401.17 390.86 402.38 388.89 C 404.38 386.45 405.86 383.62 407.90 381.21 Z"
     id="path124" />
  <path
     fill="#feaa00"
     d=" M 262.42 392.38 C 266.28 388.98 268.27 384.08 271.58 380.22 C 271.15 388.86 271.45 397.52 271.38 406.17 C 270.91 406.45 269.97 407.01 269.50 407.29 C 267.30 404.26 265.05 401.27 262.65 398.39 C 261.10 396.69 261.68 394.29 262.42 392.38 Z"
     id="path126" />
  <path
     fill="#feaa00"
     d=" M 124.24 388.11 C 125.95 385.15 128.02 382.41 130.31 379.88 C 130.42 387.60 130.37 395.32 130.36 403.04 C 130.51 404.90 129.43 406.47 128.59 408.04 C 125.86 405.44 124.10 402.04 121.50 399.33 C 120.29 398.12 120.23 396.31 119.72 394.77 C 120.67 392.18 122.89 390.44 124.24 388.11 Z"
     id="path128" />
  <path
     fill="#feaa00"
     d=" M 57.50 390.34 C 58.03 387.01 61.93 387.34 64.45 386.58 C 66.87 389.74 71.40 393.80 68.21 397.93 C 64.51 402.64 61.31 407.72 57.44 412.32 C 57.43 404.99 57.23 397.66 57.50 390.34 Z"
     id="path130" />
  <path
     fill="#feaa00"
     d=" M 199.66 388.43 C 201.61 387.54 203.71 387.03 205.81 386.64 C 207.01 387.87 208.21 389.10 209.42 390.33 C 210.05 391.88 210.98 393.35 211.25 395.04 C 210.72 397.76 208.40 399.52 207.01 401.79 C 204.52 405.65 201.78 409.36 198.73 412.80 C 198.50 405.47 198.71 398.14 198.61 390.82 C 198.87 390.22 199.40 389.03 199.66 388.43 Z"
     id="path132" />
  <path
     fill="#feaa00"
     d=" M 338.34 390.17 C 339.07 387.59 342.03 387.16 344.21 386.51 C 346.35 389.56 350.08 392.38 349.46 396.49 C 345.45 399.87 343.67 405.07 339.79 408.59 C 339.41 408.98 338.65 409.74 338.28 410.12 C 338.28 403.47 338.07 396.81 338.34 390.17 Z"
     id="path134" />
  <path
     fill="#5d5a52"
     d=" M 63.19 417.33 C 69.14 412.35 71.83 404.57 77.96 399.74 C 77.92 407.33 78.04 414.91 77.88 422.50 C 73.38 427.93 69.36 433.73 65.76 439.80 C 63.37 443.76 60.16 447.19 58.07 451.35 C 58.04 443.21 57.99 435.06 58.07 426.93 C 58.11 423.78 60.88 421.77 62.87 419.72 C 62.95 419.12 63.11 417.93 63.19 417.33 Z"
     id="path138" />
  <path
     fill="#5d5a52"
     d=" M 206.35 416.33 C 210.54 411.72 213.16 405.81 217.94 401.72 C 217.95 409.68 218.01 417.65 217.90 425.62 C 215.55 427.45 213.92 429.93 212.51 432.51 C 207.76 438.92 203.58 445.73 199.05 452.30 C 199.06 444.19 198.99 436.08 199.06 427.97 C 199.00 425.60 200.83 423.89 202.28 422.26 C 203.97 420.52 204.77 418.15 206.35 416.33 Z"
     id="path140" />
  <path
     fill="#5d5a52"
     d=" M 85.12 409.63 C 90.75 414.35 94.77 420.79 99.69 426.25 C 102.87 429.26 105.03 433.12 107.86 436.44 C 108.06 442.28 107.93 448.13 107.95 453.98 C 100.31 453.93 92.67 453.96 85.04 453.97 C 85.10 439.19 84.94 424.41 85.12 409.63 Z"
     id="path142" />
  <path
     style="fill:#5d5a52"
     d="m 367.91,419.83 c 2.15853,-2.3593 5.44565,-3.03348 8.51085,-3.09915 1.46151,0.79131 3.10881,1.33503 4.10471,2.75097 0.50213,0.41444 1.37592,1.57021 1.50096,1.14523 1.14279,1.59972 2.00411,3.48478 1.89687,5.49316 0.0747,1.68173 0.15528,3.36425 0.16827,5.0477 -0.0798,-0.71522 -0.12464,-2.80352 -0.11076,-0.97377 0.002,7.92195 -0.0582,15.84396 -0.0109,23.76586 -7.64333,0 -15.2867,-0.02 -22.93,0.01 -0.078,-7.05605 -0.0441,-14.11558 -0.35152,-21.16695 -1.46441,1.92444 -5.3409,6.86624 -6.74776,8.83767 -0.84448,1.00097 2.36309,-5.10131 1.92608,-4.67529 1.76095,-3.77132 1.33238,-2.083 3.64405,-6.16391 1.74186,-4.83103 5.33969,-7.70063 8.39915,-10.97152 z"
     id="path144"
     inkscape:connector-curvature="0"
     sodipodi:nodetypes="cccccccccccccc" />
  <path
     d="m 309.4,450.04 c 1.64,0.68 -0.91,5.31372 -2.19,4.74372 -0.5,-1.29 1.06,-4.45372 2.19,-4.74372 z"
     id="path148"
     inkscape:connector-curvature="0"
     style="fill:#5d5a52"
     sodipodi:nodetypes="ccc" />
</svg>
