<?xml version="1.0" encoding="UTF-8" standalone="no"?>
<svg
   xmlns:dc="http://purl.org/dc/elements/1.1/"
   xmlns:cc="http://creativecommons.org/ns#"
   xmlns:rdf="http://www.w3.org/1999/02/22-rdf-syntax-ns#"
   xmlns:svg="http://www.w3.org/2000/svg"
   xmlns="http://www.w3.org/2000/svg"
   xmlns:sodipodi="http://sodipodi.sourceforge.net/DTD/sodipodi-0.dtd"
   xmlns:inkscape="http://www.inkscape.org/namespaces/inkscape"
   width="440.86716"
   height="406.27057"
   viewBox="0 0 352.69372 325.01646"
   version="1.1"
   id="svg3057"
   inkscape:version="0.48.2 r9819"
   sodipodi:docname="nixiebig.svg">
  <metadata
     id="metadata3089">
    <rdf:RDF>
      <cc:Work
         rdf:about="">
        <dc:format>image/svg+xml</dc:format>
        <dc:type
           rdf:resource="http://purl.org/dc/dcmitype/StillImage" />
        <dc:title />
      </cc:Work>
    </rdf:RDF>
  </metadata>
  <defs
     id="defs3087">
    <linearGradient
       id="linearGradient5323">
      <stop
         style="stop-color:#ffffff;stop-opacity:1;"
         offset="0"
         id="stop5325" />
      <stop
         id="stop5327"
         offset="0.31796363"
         style="stop-color:#1f1f1f;stop-opacity:1;" />
      <stop
         id="stop5329"
         offset="1"
         style="stop-color:#3f3f3f;stop-opacity:1;" />
    </linearGradient>
    <linearGradient
       id="linearGradient5291">
      <stop
         id="stop5295"
         offset="0"
         style="stop-color:#ffffff;stop-opacity:1;" />
      <stop
         style="stop-color:#000000;stop-opacity:1;"
         offset="0.5"
         id="stop5309" />
      <stop
         style="stop-color:#ffffff;stop-opacity:1;"
         offset="1"
         id="stop5305" />
    </linearGradient>
    <linearGradient
       id="linearGradient3813">
      <stop
         id="stop5269"
         offset="0"
         style="stop-color:#ffffff;stop-opacity:1;" />
      <stop
         style="stop-color:#1f1f1f;stop-opacity:1;"
         offset="0.31408429"
         id="stop5279" />
      <stop
         style="stop-color:#3f3f3f;stop-opacity:1;"
         offset="1"
         id="stop5277" />
    </linearGradient>
  </defs>
  <sodipodi:namedview
     pagecolor="#ffffff"
     bordercolor="#666666"
     borderopacity="1"
     objecttolerance="10"
     gridtolerance="10"
     guidetolerance="10"
     inkscape:pageopacity="0"
     inkscape:pageshadow="2"
     inkscape:window-width="1440"
     inkscape:window-height="856"
     id="namedview3085"
     showgrid="false"
     inkscape:zoom="1.629456"
     inkscape:cx="220.43358"
     inkscape:cy="203.13528"
     inkscape:window-x="204"
     inkscape:window-y="0"
     inkscape:window-maximized="0"
     inkscape:current-layer="svg3057"
     fit-margin-top="0"
     fit-margin-left="0"
     fit-margin-right="0"
     fit-margin-bottom="0" />
  <path
     style="fill:#808080"
     d="m 25.083716,247.32179 c 4.593901,-0.57161 12.62346,-5.44325 12.534711,-3.12641 10.641745,-3.03476 21.800875,-3.42585 32.616485,-5.63654 14.55184,5.10478 30.754368,4.51947 44.754138,-2.06446 9.25592,-4.50833 19.3515,-4.86192 29.03192,-1.73475 16.5993,3.20171 33.68707,4.22914 50.48065,4.45355 15.43626,-3.61112 31.73848,-5.45102 47.17489,-0.81907 7.30904,0.9201 14.96066,1.85499 19.56494,7.55173 8.0346,-4.96217 13.97223,-3.08805 11.95312,8.0774 -0.39684,9.07752 0.6359,26.45543 -2.49086,30.4485 -8.80447,2.77764 -12.83268,10.65186 -16.33694,18.49108 -7.43858,12.61485 -24.32887,19.24354 -38.03556,13.11642 -11.40557,0.53621 -22.71786,6.36593 -34.7236,5.43875 -14.07243,-0.29779 -28.15509,5.76202 -42.0867,2.56382 -11.57985,-2.80415 -16.65277,-17.59173 -29.88273,-13.52974 -21.980398,0.95814 -43.994838,3.42285 -65.975716,0.85467 C 32.330713,310.73251 19.501593,311.36824 10.9697,302.38652 -1.0004176,292.22524 -3.5389756,272.85461 6.8818044,260.68473 11.702441,254.76984 18.384218,250.766 25.083716,247.32179 z"
     id="path3083"
     inkscape:connector-curvature="0"
     sodipodi:nodetypes="ccccccccccccccccccc" />
  <path
     style="fill:#ffffff;fill-opacity:1;fill-rule:evenodd;stroke:#ffffff;stroke-width:0.80000001;stroke-linecap:butt;stroke-linejoin:miter;stroke-miterlimit:2;stroke-opacity:1;stroke-dasharray:none"
     d="m 261.67793,141.82977 c 1.53663,8.8356 5.82749,23.60444 6.55803,40.19569 0.51304,11.65167 -15.03402,60.6779 -9.44745,44.14835 3.92864,-11.62407 0.4605,-3.94943 1.25925,7.08014 0.53345,7.36609 12.57954,16.88808 14.19721,26.09551 1.27912,7.28051 -7.4579,14.73233 -9.17836,18.19932 -4.60309,9.27592 -22.26796,9.34525 -33.59881,5.20523 -5.8953,-2.154 -22.18023,8.32589 -47.6682,8.85024 -4.26282,0.0877 -20.28805,5.31889 -30.44541,-2.86684 -7.61769,-6.13903 -6.73328,-22.34222 -8.46263,-20.32156 -7.58614,8.86403 -20.71077,0.16437 -38.03085,-0.61828 -17.954179,-0.81131 -5.97433,10.29416 -20.289675,14.50658 -6.051936,1.78084 -43.96116,5.49534 -56.304224,-2.26758 -6.62096,-4.16411 7.296064,-28.70029 4.617424,-29.22682 C 10.464771,246.00978 8.514019,191.05026 8.514019,175.4735 c 0,-7.25 18.90264,-22.57164 33.711544,-34.93266 1.555072,-1.29802 -23.525513,-30.93802 -22.087353,-32.15798 3.71556,-3.1518 8.669457,-32.455277 16.173209,-38.546117 1.31868,-1.070376 19.699232,-11.69024 27.636848,-26.010738 1.056,-1.905162 -2.755752,-30.054899 -2.511544,-31.69991 0.72504,-4.8840624 18.7862,-11.0843616 24.504488,-3.4923688 8.741496,11.6058188 6.24968,40.8510998 6.962048,41.8976388 1.649176,2.422823 -40.60604,28.342658 -48.274856,32.290586 -2.7824,1.432384 18.25528,36.789449 20.973256,34.009369 2.356616,-2.41046 -11.437874,-6.8221 -7.743946,-7.9345 8.611344,-2.59322 18.026034,-1.11915 23.495802,-4.29423 25.896065,-15.032079 61.614445,-33.194239 84.481435,-33.194239 29.64526,0 60.83377,7.307088 77.221,24.385232 11.07407,11.540987 15.67621,29.098077 18.62198,46.036187 z"
     id="path3053"
     inkscape:connector-curvature="0"
     sodipodi:nodetypes="sssssssssssssssssssssssssssss" />
  <path
     d="m 139.36371,58.991791 c 6.74,3.98 12.1,10.63 13.39,18.47 -1.32,2.62 -4.28,3.7 -6.71,5.01 -2.49,-7.13 -5.75,-13.92 -9.48,-20.48 0.93,-1 1.87,-2 2.8,-3 z"
     id="path3071"
     inkscape:connector-curvature="0"
     style="fill:#000000" />
  <path
     d="m 225.86371,235.77179 c 6.27,-2.61 8.23,-9.88 12.41,-14.72 0.69,0.45 2.05,1.37 2.73,1.83 -4.02,7.42 -7.63,17.04 -16.6,19.43 -9.34,2.66 -20.19,3.79 -28.65,-1.91 -3.76,-1.11 -2.7,-5.56 -0.91,-7.84 10.39,0.13 20.52,6.4 31.02,3.21 z"
     id="path3081"
     inkscape:connector-curvature="0"
     style="fill:#000000" />
  <path
     d="m 212.10372,115.02179 c 7.25,-1.38 12.03454,3.38817 13.82454,9.79817 0.37,6.9 1.46546,15.72183 0.43546,22.54183 -1.53,5.32 -7.76,8.12 -12.44,4.95 -6.59,-8.74 -7.55,-20.24 -8.18,-30.78 -0.07,-3.49 3.18,-5.97 6.36,-6.51 z"
     id="path3073"
     inkscape:connector-curvature="0"
     style="fill:#000000;fill-opacity:1;stroke:#000000;stroke-opacity:1"
     sodipodi:nodetypes="cccccc" />
  <path
     d="m 162.10372,122.93179 c 4.5,-0.41 12.15273,-2.39637 14.83273,2.58363 2.97,9.3 5.30727,19.19637 5.58727,29.05637 0.14,4.55 -5.05,8.13 -9.39,6.31 -4.54,-0.75 -10.31,-1.66 -12.19,-6.51 -2.47,-6.51 -3.38,-13.51 -4.61,-20.33 -1.87,-4.64 1.23,-9.85 5.77,-11.11 z"
     id="path3075"
     inkscape:connector-curvature="0"
     style="fill:#000000;fill-opacity:1"
     inkscape:transform-center-x="5.6454876"
     inkscape:transform-center-y="-3.7636583"
     sodipodi:nodetypes="ccccccc" />
  <g
     id="g3140"
     transform="translate(-45.306284,-17.468209)"
     style="stroke-width:0.16;stroke-miterlimit:0;stroke-dasharray:none">
    <path
       transform="scale(0.8,0.8)"
       id="path3061"
       d="m 149.6875,21.84375 c -7.51934,0.13125 -15.61563,1.671875 -19.375,8.46875 -2.7375,4.4625 -5.71875,9.225 -6.15625,14.5625 2.3125,6.6625 8.85625,11.55625 9.46875,18.90625 -0.0125,10.0375 -3.7125,20.34375 -11.6875,26.84375 -10.75,9.2375 -24.1375,14.76875 -35.125,23.65625 -14.8,17.925 -12.6,43.225 -7.9375,64.5 1.0625,7.4375 8.113079,13.0875 18.40061,18.125 -8.4125,4.7375 -25.83811,13.50625 -30.33811,22.71875 -5.4375,12.6 -10.9125,32.0875 -10.25,45.875 0.575,14.175 2.36875,18.38125 6.46875,32.15625 C 65.84375,311.84375 76.075,323.475 88,331 c 0.9625,1.4 2.45,3.06875 1.1875,4.78125 -5.15,9.575 -8.5125,21.03125 -5.4375,31.78125 3.075,9.3625 13.15625,12.04375 21.46875,14.65625 17.9875,4.125 36.78125,3.43125 55.03125,1.84375 12.0625,-1 25.1375,-7.1625 28.8125,-19.5625 11.9375,1.3 32.40573,0.60738 44.34323,1.93238 5.51366,-8.75918 -0.56649,12.20283 4.95851,15.96533 9.9875,6.4125 16.42326,10.64604 27.94826,12.19604 24.2,0.9625 49.74849,0.45625 69.89354,-14.07864 11.17954,2.61593 27.74396,9.31614 40.23146,5.20359 6.3625,-2.35 13.88637,-11.86765 19.97387,-14.86765 8.74884,-14.39208 5.3636,-16.38403 6.4761,-30.64653 -3.6125,-10.5625 -9.89847,-22.71252 -18.77347,-28.80002 -1.1375,3.5875 -3.11841,6.02752 -0.77025,11.78295 3.375,8.475 10.03125,15.55 12.09375,24.5625 0.0375,5.6625 -2.19433,9.47271 -5.25683,14.39771 -3.3375,2.35 -5.84317,4.72729 -9.68067,5.85229 -2.3625,4.1375 -4.44375,9.73125 -9.96875,10.21875 -7.9402,1.00138 -28.15851,-0.53623 -21.41106,-4.92206 8.71221,-5.6629 -3.19447,-0.62789 -6.05598,-2.76373 -2.64564,-4.39584 1.01746,1.361 4.62977,-2.51717 3.94617,-4.23661 -3.874,0.36219 -6.30953,-3.27244 -1.71341,-2.55697 -1.11414,-2.91866 -1.38326,-5.76777 12.95454,-5.92616 18.74256,-10.28183 23.40506,-24.19433 -18.2,7.3125 -21.36524,11.56762 -40.75274,13.81762 -12.6875,1.9125 -39.02281,-0.3375 -54.77851,1.65113 8.1375,4.975 17.3,9.29375 27.125,8.46875 9.5625,0.9625 21.8,-1.8375 29,6.4375 -0.25617,2.41376 -4.74776,3.32423 -2.09175,5.84064 1.58587,1.50253 2.6366,9.04284 0.54464,7.53729 -10.59396,-7.62434 -0.37528,2.49996 -4.25783,2.32869 -4.18449,-0.1846 -8.35447,-0.30591 -9.10131,1.04338 -14.6,1.925 -29.4,3.36875 -44.125,1.84375 -6.8625,-0.0125 -15.0875,-2.125 -18.0625,-9.0625 -3.3125,-12.2875 -4.725,-25.1375 -8.1875,-37.3125 -7.70793,0.2432 -9.10963,12.90341 -13.21875,19.9375 -6.8375,-0.925 -13.7625,-1.625 -20.625,-0.5625 -12.4625,1.5625 -22.4625,-6.825 -33.3125,-11.3125 -1.5,8.7 4.425,19.39375 -3.5,26.40625 -23.375,8.3375 -49.23125,4.66875 -72.34375,-3.09375 -0.5125,-9.1125 0.81875,-18.9 7.34375,-25.8125 4.15,-6.4125 14.1125,-12.65 9.0625,-21.3125 -4.3125,-5.875 -10.925,-0.89375 -14.4375,3.09375 -4.475,-5.0125 -9.2125,-9.86875 -12.875,-15.53125 -4.0375,-7.3125 -8.785244,-13.49829 -11.822744,-21.24829 -8.4875,-16.675 0.228994,-37.40796 4.353994,-54.34546 6.525,-17.5125 25.53125,-25.30625 40.84375,-33.65625 -0.5375,11.025 0.0375,22.01875 2,32.90625 3.4625,-7.2125 6.75625,-14.525 11.03125,-21.3125 6.3875,7.4625 9.29375,17.65625 17.46875,23.53125 5,2.975 6.825,8.5625 9.5625,13.3125 5.3,-2.1875 9.91875,-5.6125 14.59375,-8.875 -4.1625,-7.7375 -14.15625,-8.69375 -19.03125,-15.78125 -5.5625,-6.7 -12.3625,-13.725 -12.0625,-23.125 -1.15,-10.2625 -2.09375,-20.975 -8.09375,-29.75 8.925,1.9875 17.93125,4.35 25.59375,9.5625 -4.375,14.525 7.9375,26.93125 16.0625,37.40625 5.7375,-3.075 11.7875,-5.425 17.8125,-7.875 -1.1,-5.35 -1.41875,-11.2 -4.96875,-15.625 -6.975,-8.75 -14.40625,-17.26875 -23.28125,-24.15625 -8.775,-6.55 -23.48866,-8.96875 -33.95116,-11.46875 5.8625,-1.2625 15.51991,-2.34375 21.48241,-3.03125 10.7875,-1.0625 21.15625,-5.34375 32.09375,-4.90625 6.075,1.0375 10.56875,5.7875 15.71875,8.75 7.4625,4.425 14.60625,9.575 22.65625,12.9375 0.525,-3.2125 2.59375,-6.775 0.90625,-9.9375 -9.3,-10.1375 -22.15,-16.3 -35.5625,-18.9375 11.4,-6.3875 23.1875,-12.8875 36.3125,-14.75 -1.8875,-10.9875 -8.3875,-24.3125 -21,-25.0625 1.55,5.575 3.87671,13.43354 4.93921,19.13354 -10.5875,2.8875 -15.33406,7.34716 -25.86134,11.74146 -2.975,2.3 -5.94092,5.52329 -9.50342,6.93579 -13.1875,1.675 -29.7557,5.354 -43.0432,5.979 -2.975,-3.85 -6.2125,-9.92729 -8.8125,-14.03979 0.6375,-3.3 3.23125,-5.825 6.09375,-7.375 7.2875,-4.15 14.79375,-7.9125 22.34375,-11.5625 15.0375,-7.575 25.6625,-22.38125 29.5625,-38.59375 1.9125,-12.5125 -0.36875,-25.28125 -4.53125,-37.09375 -2.575,-8.3125 -10.4875,-13.25 -17.875,-16.8125 -2.2,-0.128125 -4.6498,-0.2625 -7.15625,-0.21875 z M 346.65625,58.625 c -1.13841,0.03811 -2.32344,0.385156 -3.5,1.15625 C 324.56875,64.24375 305.625,69.7875 290.125,81.4375 283.175,86.4 279.7875,94.3875 274.8125,101 c -3,2.1375 -7.075,2.1375 -10.5625,3.25 -0.1125,4.9375 0.0312,13.525 8.21875,10.6875 22.1125,1.1875 45.85625,1.33863 64.84375,13.90113 14.73183,8.45225 27.42271,21.99091 33.3125,40.66137 5.55,14.025 7.51024,27.63067 12.07274,41.93067 -16.2875,6.15 -34.67899,15.91933 -51.04149,21.94433 -2.525,-2.925 -1.34031,-2.52783 -5.53125,-5.96875 -3.63141,-2.01026 -7.79249,-3.88598 -10.65625,-4.1875 -4.03355,-0.4247 -9.60998,-0.40645 -13.9375,1.75 -6.3125,3.875 -5.26875,12.55 -4.40625,18.5 -38.725,-2.625 -77.55,1.1125 -115.9375,6.125 -11.7625,1.1875 -23.54829,3.56933 -34.49829,8.50683 -16.6,7.1125 -21.46073,10.11531 -36.02323,20.79031 -2.6125,1.8 -15.38473,8.90911 -16.75973,11.67161 15.3125,-4.4 26.46875,-17.04375 40.90625,-23.40625 28.1,-14.7125 60.675,-14.65 91.4375,-18.125 17.8125,-0.475 35.675,-3.325 53.5,-1.625 -6.925,2.725 -14.425,3.30625 -21.6875,4.59375 -16.4125,2.6625 -32.38125,7.3125 -48.46875,11.375 -11.4375,2.8375 -21.25,9.73125 -32.0625,14.15625 -15.575,8.52729 -14.94707,9.39655 -29.38457,17.75905 L 135.21875,305.5 c 13.775,-5.0625 25.04375,-14.91875 38.59375,-20.40625 12.55,-5.3 23.95,-13.40625 37.4375,-16.34375 25.125,-6.35 50.125,-13.5 75.625,-18.1875 -4.2375,2.1 -8.6,4.0625 -13.1875,5.25 -12.3875,2.6 -24.3125,7.3375 -35.0625,14 -10.8,6.625 -22.86875,11.525 -32.09375,20.4375 -11.2125,10.8875 -20.18351,20.26534 -30.95851,31.59034 -5.2,5.6625 -9.46533,11.41079 -15.04149,20.47216 7.075,-2.2125 10.4,-9.20625 14.9375,-14.40625 9.025,-11.7625 21.2,-20.425 31.6875,-30.75 11.1125,-11.225 25.74375,-17.8125 39.21875,-25.625 16.475,-9.25 35.575,-11.8875 52.75,-19.375 11.1375,1.15 21.30625,-4.5125 31.15625,-8.9375 17.275,-2.3375 35.80341,-6.42049 53.19091,-6.27049 -0.5875,10.3625 -0.36646,25.66708 -1.40966,36.89549 -2.11479,9.63299 -1.45399,7.12837 -2.19262,18.95116 -5.0375,11.57729 -2.57951,12.8693 -9.77613,22.48634 -1.2,3.7125 -0.0813,7.575 0.65625,11.25 4.6,-1.225 8.975,-3.95 10.9375,-8.375 3.725,-7.925 4.53067,-18.68354 7.11817,-27.00854 1.56631,-9.57506 2.61168,-18.20925 3.33724,-29.04535 0.5541,-8.27548 1.39213,-16.93373 1.66276,-24.33818 16.89156,2.31778 36.87688,7.54677 51.16392,15.3821 13.3088,7.29885 15.78158,8.31138 28.5031,17.48436 15.82621,7.18528 10.95856,5.41936 12.68356,4.61936 C 467.51869,262.80113 465.2625,257.59375 453.0625,251.78125 435.175,242.70625 415.3,236.81817 395.75,233.11817 c 11.80341,-1.18408 24.13354,-3.79488 35.32104,-3.11988 7.2,-0.1 6.21131,-0.20683 19.27271,-2.02954 -14.59143,-2.05414 -20.18512,-2.28169 -25.37277,-1.68067 -15.97729,0.79091 -17.67327,2.38579 -31.26077,2.43579 -0.7,-3.8625 -0.65908,-10.49774 -1.55908,-14.32274 10.62841,-2.48863 21.48012,-3.44488 31.63012,-5.43238 24.15,-5.4 49.11875,-5.01875 73.71875,-5.34375 -0.0125,-1.625 -13.1728,-2.30909 -17.87738,-3.46363 -9.93586,-0.31526 -15.3545,-0.1053 -24.69954,-0.25116 -4.00687,-0.0625 -15.45851,1.96475 -22.5532,3.15912 -13.7375,2.2375 -27.46875,4.4625 -41.15625,6.9375 -5.0375,-14.175 -6.3375,-28.44659 -11.02613,-45.06933 -3.49635,-8.04944 -3.6302,-9.8239 -10.96534,-24.24488 -5.17447,-4.44187 -8.16899,-9.68432 -13.35403,-14.74949 -3.21959,-3.14515 -11.18904,-5.64382 -13.02779,-9.59426 -0.175,-15.85 7.87216,-31.93637 11.34716,-47.22387 1.45234,-4.79375 -2.59813,-10.665158 -7.53125,-10.5 z M 258.375,89.40625 c -1.6375,6.9875 -9.525,16.46875 -9.1875,23.84375 0.7375,3.8125 5.0125,7.4125 8.6875,4.625 6.3625,-5.5625 4.07771,-11.32553 3.125,-22.15625 -2.2048,-6.232031 -0.83421,-4.320494 -2.625,-6.3125 z m 63,170.46875 c -2.15381,0.0693 -4.39844,1.57812 -5.1875,3.625 -3.425,8.7125 -0.825,20.7125 -9.9375,26.5 -5.3125,5.55 -13.625,6.26875 -20.8125,5.28125 -8.9125,-2.725 -17.38125,-6.69375 -26.21875,-9.59375 0.5625,3.9125 -0.56875,9.24375 3.78125,11.15625 11.1,5.8875 24.15,6.91875 36.5,6.71875 9.3125,-0.1125 18.71875,2 27.96875,0.125 9.6625,-2.475 14.11875,-12.5125 21.78125,-18.0625 5.275,-5.35 14.91875,-10.0375 11.59375,-19.1875 -7.8625,-0.5875 -11.2875,8.6 -16.5,12.75 -3.34942,1.24211 -7.26014,3.29182 -10.40625,2.3125 -2.66431,-0.82935 -3.34849,-3.15959 -5.625,-7.875 -0.0625,-4.125 -0.5125,-8.78125 -3.5,-12.15625 -0.87656,-1.1625 -2.14521,-1.63535 -3.4375,-1.59375 z"
       style="fill:#000000;stroke-width:0.2;stroke-miterlimit:0;stroke-dasharray:none"
       inkscape:connector-curvature="0"
       sodipodi:nodetypes="ccccccccccccccccccccccccccccccscssccccccsssccccccccccccccccccccccccccccccccccccccccccccccccccsccccccccccsccccccccccccccccccccccccccccccccccscsccccccccccccsccccsccsccccccccccccccccsccc" />
    <path
       id="path3063"
       d="m 109.4,30.39 c 5.43,-8.9 20.79,-5.62 23.21,4.15 2.02,7.29 3.85,15.04 2.4,22.61 -1.91,5.42 -4.16,10.82 -7.27,15.67 -7.58,9.28 -19.51,12.9 -28.68,20.24 -5.92,3.38 -8.81,9.73 -11.51,15.68 2.35,3.2 4.71,6.41 6.94,9.7 -3.75,1.21 -7.49,2.42 -11.23,3.65 0.47,3.55 0.62,7.62 3.28,10.32 4.46,4.1 9.12,8.01 13.13,12.56 -7.46,2.82 -16.82,6.24 -23.49,-0.16 -7.74,-9.72 -6.83,-23.58 -3.44,-34.87 1.84,-6.12 2.69,-13.83 9.16,-17.03 9.49,-7.68 22.76,-12.12 28.12,-23.9 4.11,-7.06 4.69,-15.69 3.4,-23.61 -1.36,-4.81 -7.45,-9.72 -4.02,-15.01 z"
       inkscape:connector-curvature="0"
       style="fill:#ffffff;stroke-width:0.16;stroke-miterlimit:0;stroke-dasharray:none" />
    <path
       id="path3067"
       d="m 235.13,73.43 c 11.74,-3.98 22.49,-10.91 34.88,-12.86 -1.76,9.59 -5.46,18.85 -5.6,28.69 -11.29,-4.63 -23.35,-6.14 -35.4,-7.32 0.47,-3.84 1.91,-7.78 6.12,-8.51 z"
       inkscape:connector-curvature="0"
       style="fill:#ffffff;stroke-width:0.16;stroke-miterlimit:0;stroke-dasharray:none" />
    <path
       style="fill:#ffffff;stroke-width:0.16;stroke-miterlimit:0;stroke-dasharray:none"
       inkscape:connector-curvature="0"
       id="path3077"
       d="m 288.12,182.01 c 5.28,-2.7 12.59385,-5.33 18.26385,-7.12 0.3,3.92 -0.13734,6.35454 0.10266,10.28454 -10.68,0.38 -22.39651,3.48546 -33.08651,3.52546 4.64,-2.8 9.89,-4.28 14.72,-6.69 z"
       sodipodi:nodetypes="ccccc" />
  </g>
  <path
     sodipodi:type="arc"
     style="fill:#ffffff;fill-opacity:1;fill-rule:nonzero;stroke:none"
     id="path3006"
     sodipodi:cx="216.17513"
     sodipodi:cy="172.68852"
     sodipodi:rx="3.5284297"
     sodipodi:ry="5.8807163"
     d="m 219.70355,172.68852 a 3.5284297,5.8807163 0 1 1 -7.05685,0 3.5284297,5.8807163 0 1 1 7.05685,0 z"
     transform="matrix(0.784835,-0.1487305,0.15502914,0.75294815,-24.622559,35.196876)" />
  <path
     transform="matrix(0.784835,-0.1487305,0.15502914,0.75294815,21.670441,28.045925)"
     d="m 219.70355,172.68852 a 3.5284297,5.8807163 0 1 1 -7.05685,0 3.5284297,5.8807163 0 1 1 7.05685,0 z"
     sodipodi:ry="5.8807163"
     sodipodi:rx="3.5284297"
     sodipodi:cy="172.68852"
     sodipodi:cx="216.17513"
     id="path3776"
     style="fill:#ffffff;fill-opacity:1;fill-rule:nonzero;stroke:none"
     sodipodi:type="arc"
     inkscape:transform-center-x="44.222987"
     inkscape:transform-center-y="8.5755222" />
  <path
     style="fill:none;stroke:#ffffff;stroke-width:0.50000000000000000;stroke-linecap:butt;stroke-linejoin:round;stroke-miterlimit:4;stroke-opacity:1;stroke-dasharray:none"
     d="m 102.30163,158.63381 4.31113,3.37898 4.89369,5.04906 5.67048,5.78699 1.41715,1.29618 1.76764,1.61674 3.41782,3.37898 1.34338,1.69897 1.41419,2.26259 1.04537,3.20102 1.51799,4.99399 0.0777,0.11652"
     id="path3777"
     inkscape:connector-curvature="0"
     transform="matrix(0.80000001,0,0,0.80000001,-5.4634711e-6,0)"
     sodipodi:nodetypes="cccccccccccc" />
  <path
     style="fill:#e6e6e6;stroke:#000000;stroke-width:0.80000001px;stroke-linecap:butt;stroke-linejoin:miter;stroke-opacity:1"
     d="m 199.57479,220.39501 c 0,0 6.86575,-2.91588 9.18307,-5.57544 3.03527,-3.11664 1.20235,-5.25106 0.98391,-9.18307 0,0 2.75456,6.82187 4.59154,7.54324 1.83697,0.72137 4.59153,-1.63983 4.59153,-1.63983 l 3.60764,-1.31188 c 0,0 -5.6196,4.8122 -9.51104,6.55934 -3.89144,1.74714 -13.44665,3.60764 -13.44665,3.60764 z"
     id="path3973"
     inkscape:connector-curvature="0"
     sodipodi:nodetypes="ccczcczc" />
</svg>
