<?xml version="1.0" encoding="UTF-8" standalone="no"?>
<svg
   xmlns:dc="http://purl.org/dc/elements/1.1/"
   xmlns:cc="http://creativecommons.org/ns#"
   xmlns:rdf="http://www.w3.org/1999/02/22-rdf-syntax-ns#"
   xmlns:svg="http://www.w3.org/2000/svg"
   xmlns="http://www.w3.org/2000/svg"
   xmlns:sodipodi="http://sodipodi.sourceforge.net/DTD/sodipodi-0.dtd"
   xmlns:inkscape="http://www.inkscape.org/namespaces/inkscape"
   width="440.86716"
   height="406.27057"
   viewBox="0 0 352.69372 325.01646"
   version="1.1"
   id="svg3057"
   inkscape:version="0.48.2 r9819"
   sodipodi:docname="nixie.svg">
  <metadata
     id="metadata3089">
    <rdf:RDF>
      <cc:Work
         rdf:about="">
        <dc:format>image/svg+xml</dc:format>
        <dc:type
           rdf:resource="http://purl.org/dc/dcmitype/StillImage" />
        <dc:title />
      </cc:Work>
    </rdf:RDF>
  </metadata>
  <defs
     id="defs3087" />
  <sodipodi:namedview
     pagecolor="#ffffff"
     bordercolor="#666666"
     borderopacity="1"
     objecttolerance="10"
     gridtolerance="10"
     guidetolerance="10"
     inkscape:pageopacity="0"
     inkscape:pageshadow="2"
     inkscape:window-width="1440"
     inkscape:window-height="856"
     id="namedview3085"
     showgrid="false"
     inkscape:zoom="1.629456"
     inkscape:cx="220.43358"
     inkscape:cy="203.13528"
     inkscape:window-x="170"
     inkscape:window-y="0"
     inkscape:window-maximized="0"
     inkscape:current-layer="svg3057"
     fit-margin-top="0"
     fit-margin-left="0"
     fit-margin-right="0"
     fit-margin-bottom="0" />
  <path
     style="fill:#808080"
     d="m 25.083716,247.32179 c 4.593901,-0.57161 12.62346,-5.44325 12.534711,-3.12641 10.641745,-3.03476 21.800875,-3.42585 32.616485,-5.63654 14.55184,5.10478 30.754368,4.51947 44.754138,-2.06446 9.25592,-4.50833 19.3515,-4.86192 29.03192,-1.73475 16.5993,3.20171 33.68707,4.22914 50.48065,4.45355 15.43626,-3.61112 31.73848,-5.45102 47.17489,-0.81907 7.30904,0.9201 14.96066,1.85499 19.56494,7.55173 8.0346,-4.96217 18.88184,-1.61517 16.86273,9.55028 -0.39684,9.07752 -4.27371,24.98255 -7.40047,28.97562 -8.80447,2.77764 -12.83268,10.65186 -16.33694,18.49108 -7.43858,12.61485 -24.32887,19.24354 -38.03556,13.11642 -11.40557,0.53621 -22.71786,6.36593 -34.7236,5.43875 -14.07243,-0.29779 -28.15509,5.76202 -42.0867,2.56382 -11.57985,-2.80415 -16.65277,-17.59173 -29.88273,-13.52974 -21.980398,0.95814 -43.994838,3.42285 -65.975716,0.85467 C 32.330713,310.73251 19.501593,311.36824 10.9697,302.38652 -1.0004176,292.22524 -3.5389756,272.85461 6.8818044,260.68473 11.702441,254.76984 18.384218,250.766 25.083716,247.32179 z"
     id="path3083"
     inkscape:connector-curvature="0" />
  <g
     id="g3824"
     transform="translate(-53.962698,3.9500495e-5)">
    <path
       sodipodi:nodetypes="ssssssssssssssssssssssssssss"
       inkscape:connector-curvature="0"
       id="path3053"
       d="m 409.29785,198.64171 c 0,11.21028 14.64883,30.73295 15.56197,51.47202 0.64129,14.56458 -13.12158,29.25222 -10.58192,44.13879 1.02478,6.00688 1.44939,12.10214 3.10839,17.46228 7.51043,24.26576 20.04215,41.81514 12.71737,56.57568 -5.75386,11.5949 -35.81061,17.82846 -49.97417,12.65343 -7.36912,-2.6925 -28.95516,5.48787 -60.81512,6.1433 -5.32853,0.10962 -25.36006,6.64861 -38.05677,-3.58355 -9.52211,-7.67378 -8.4166,-27.92777 -10.57828,-25.40195 -9.48268,11.08004 -25.88846,0.20547 -47.53857,-0.77285 -22.44272,-1.01413 -7.46791,12.8677 -25.36209,18.13323 -7.56492,2.22605 -54.95145,6.86917 -70.38028,-2.83448 -8.2762,-5.20514 9.12008,-35.87536 5.77178,-36.53352 -30.52433,-5.99997 -32.96277,-74.69937 -32.96277,-94.17031 0,-9.0625 23.6283,-28.21455 42.13943,-43.66583 1.94384,-1.62253 -35.04145,-39.89993 -33.24375,-41.42487 4.64445,-3.93976 16.47138,-39.3417 25.85107,-46.95525 1.64835,-1.33797 24.62404,-14.6128 34.54606,-32.513422 1.32,-2.381453 -3.44469,-37.568624 -3.13943,-39.624888 0.9063,-6.105078 23.48275,-13.855452 30.63061,-4.365461 10.92687,14.507273 7.8121,51.063875 8.70256,52.372048 2.06147,3.028529 -50.75755,35.428323 -60.34357,40.363233 -3.478,1.79048 22.8191,45.98681 26.21657,42.51171 2.94577,-3.01308 -6.31922,-9.14133 -1.70181,-10.53182 10.76418,-3.24153 14.55442,-0.78524 21.39163,-4.75409 32.37008,-18.7901 77.01806,-41.4928 105.60179,-41.4928 37.05658,0 76.04222,9.13386 96.52625,30.48154 13.84259,14.42623 15.91305,36.9863 15.91305,56.31783 z"
       style="fill:#ffffff;fill-opacity:1;fill-rule:evenodd;stroke:#ffffff;stroke-width:1px;stroke-linecap:butt;stroke-linejoin:miter;stroke-opacity:1"
       transform="matrix(0.8,0,0,0.8,-17.689195,-18.065561)" />
    <g
       id="g3037">
      <path
         d="m 193.32641,58.991751 c 6.74,3.98 12.1,10.63 13.39,18.47 -1.32,2.62 -4.28,3.7 -6.71,5.01 -2.49,-7.13 -5.75,-13.92 -9.48,-20.48 0.93,-1 1.87,-2 2.8,-3 z"
         id="path3071"
         inkscape:connector-curvature="0"
         style="fill:#000000" />
      <path
         d="m 279.82641,235.77175 c 6.27,-2.61 8.23,-9.88 12.41,-14.72 0.69,0.45 2.05,1.37 2.73,1.83 -4.02,7.42 -7.63,17.04 -16.6,19.43 -9.34,2.66 -20.19,3.79 -28.65,-1.91 -3.76,-1.11 -2.7,-5.56 -0.91,-7.84 10.39,0.13 20.52,6.4 31.02,3.21 z"
         id="path3081"
         inkscape:connector-curvature="0"
         style="fill:#000000" />
      <g
         id="g3146"
         transform="translate(8.6564144,-17.468249)">
        <path
           style="fill:#000000"
           inkscape:connector-curvature="0"
           id="path3073"
           d="m 257.41,132.49 c 7.25,-1.38 13.54,5.27 15.33,11.68 0.37,6.9 -0.04,13.84 -1.07,20.66 -1.53,5.32 -7.76,8.12 -12.44,4.95 -6.59,-8.74 -7.55,-20.24 -8.18,-30.78 -0.07,-3.49 3.18,-5.97 6.36,-6.51 z" />
        <path
           style="fill:#000000"
           inkscape:connector-curvature="0"
           id="path3075"
           d="m 207.41,140.4 c 4.5,-0.41 11.4,-2.02 14.08,2.96 2.97,9.3 6.06,18.82 6.34,28.68 0.14,4.55 -5.05,8.13 -9.39,6.31 -4.54,-0.75 -10.31,-1.66 -12.19,-6.51 -2.47,-6.51 -3.38,-13.51 -4.61,-20.33 -1.87,-4.64 1.23,-9.85 5.77,-11.11 z" />
        <g
           id="g3140">
          <path
             sodipodi:nodetypes="cccccccccccccccccccccccccccccccccccccccccccccccccccccccccccccccccccccccccccccccccccccccsccccccccccscccccccccccccccccccccccccccccccccccsccccccccccccsccccsccsccccccccccccccccsccc"
             inkscape:connector-curvature="0"
             style="fill:#000000"
             d="m 149.6875,21.84375 c -7.51934,0.13125 -15.61563,1.671875 -19.375,8.46875 -2.7375,4.4625 -5.71875,9.225 -6.15625,14.5625 2.3125,6.6625 8.85625,11.55625 9.46875,18.90625 -0.0125,10.0375 -3.7125,20.34375 -11.6875,26.84375 -10.75,9.2375 -24.1375,14.76875 -35.125,23.65625 -14.8,17.925 -12.6,43.225 -7.9375,64.5 1.0625,7.4375 6.23125,13.0875 11.34375,18.125 -8.4125,4.7375 -18.78125,13.50625 -23.28125,22.71875 -5.4375,12.6 -10.9125,32.0875 -10.25,45.875 0.575,14.175 2.36875,18.38125 6.46875,32.15625 C 65.84375,311.84375 76.075,323.475 88,331 c 0.9625,1.4 2.45,3.06875 1.1875,4.78125 -5.15,9.575 -8.5125,21.03125 -5.4375,31.78125 3.075,9.3625 13.15625,12.04375 21.46875,14.65625 17.9875,4.125 36.78125,3.43125 55.03125,1.84375 12.0625,-1 25.1375,-7.1625 28.8125,-19.5625 11.9375,1.3 23.9375,2.01875 35.875,3.34375 1.75,5.825 2.25625,13.14375 7.78125,16.90625 9.9875,6.4125 22.06875,8.29375 33.59375,9.84375 24.2,0.9625 49.2375,0.45625 71.9375,-8.96875 12.7125,-0.45 25.7,4.20625 38.1875,0.0937 6.3625,-2.35 12.475,-5.28125 18.5625,-8.28125 12.5125,-9.6875 11.95,-27.675 13.0625,-41.9375 -3.6125,-10.5625 -13.40625,-17.4125 -22.28125,-23.5 -1.1375,3.5875 -3.2375,7.3375 -2.4375,11.1875 3.375,8.475 10.03125,15.55 12.09375,24.5625 0.0375,5.6625 -0.3125,11.825 -3.375,16.75 -3.3375,2.35 -7.725,2.375 -11.5625,3.5 -2.3625,4.1375 -4.44375,9.73125 -9.96875,10.21875 -9.8125,1.2375 -20.3375,-1.89375 -27.9375,-8.15625 -3.325,-4.8 -6.31875,-9.94375 -11.53125,-12.96875 13.425,-2.1625 27.68125,-8.4 32.34375,-22.3125 -18.2,7.3125 -37.83125,10.15625 -57.21875,12.40625 -12.6875,1.9125 -25.85,-0.3375 -38.3125,3.0625 8.1375,4.975 17.3,9.29375 27.125,8.46875 9.5625,0.9625 21.8,-1.8375 29,6.4375 -0.8875,8.3625 -11.15625,9.975 -14.90625,16.75 -14.6,1.925 -29.4,3.36875 -44.125,1.84375 -6.8625,-0.0125 -15.0875,-2.125 -18.0625,-9.0625 -3.3125,-12.2875 -4.725,-25.1375 -8.1875,-37.3125 -12.4125,-3.05 -13.34375,11.9625 -13.21875,19.9375 -6.8375,-0.925 -13.7625,-1.625 -20.625,-0.5625 -12.4625,1.5625 -22.4625,-6.825 -33.3125,-11.3125 -1.5,8.7 4.425,19.39375 -3.5,26.40625 -23.375,8.3375 -49.23125,4.66875 -72.34375,-3.09375 -0.5125,-9.1125 0.81875,-18.9 7.34375,-25.8125 4.15,-6.4125 14.1125,-12.65 9.0625,-21.3125 -4.3125,-5.875 -10.925,-0.89375 -14.4375,3.09375 -4.475,-5.0125 -9.2125,-9.86875 -12.875,-15.53125 -4.0375,-7.3125 -5.9625,-13.96875 -9,-21.71875 -8.4875,-16.675 -2.59375,-36.9375 1.53125,-53.875 6.525,-17.5125 25.53125,-25.30625 40.84375,-33.65625 -0.5375,11.025 0.0375,22.01875 2,32.90625 3.4625,-7.2125 6.75625,-14.525 11.03125,-21.3125 6.3875,7.4625 9.29375,17.65625 17.46875,23.53125 5,2.975 6.825,8.5625 9.5625,13.3125 5.3,-2.1875 9.91875,-5.6125 14.59375,-8.875 -4.1625,-7.7375 -14.15625,-8.69375 -19.03125,-15.78125 -5.5625,-6.7 -12.3625,-13.725 -12.0625,-23.125 -1.15,-10.2625 -2.09375,-20.975 -8.09375,-29.75 8.925,1.9875 17.93125,4.35 25.59375,9.5625 -4.375,14.525 7.9375,26.93125 16.0625,37.40625 5.7375,-3.075 11.7875,-5.425 17.8125,-7.875 -1.1,-5.35 -1.41875,-11.2 -4.96875,-15.625 -6.975,-8.75 -14.40625,-17.26875 -23.28125,-24.15625 -8.775,-6.55 -19.725,-8.96875 -30.1875,-11.46875 5.8625,-1.2625 11.75625,-2.34375 17.71875,-3.03125 10.7875,-1.0625 21.15625,-5.34375 32.09375,-4.90625 6.075,1.0375 10.56875,5.7875 15.71875,8.75 7.4625,4.425 14.60625,9.575 22.65625,12.9375 0.525,-3.2125 2.59375,-6.775 0.90625,-9.9375 -9.3,-10.1375 -22.15,-16.3 -35.5625,-18.9375 11.4,-6.3875 23.1875,-12.8875 36.3125,-14.75 -1.8875,-10.9875 -8.3875,-24.3125 -21,-25.0625 1.55,5.575 3.40625,11.08125 4.46875,16.78125 -10.5875,2.8875 -21.45,6.40625 -29.625,14.09375 -2.975,2.3 -5,5.99375 -8.5625,7.40625 -13.1875,1.675 -26.4625,2.53125 -39.75,3.15625 -2.975,-3.85 -6.2125,-7.575 -8.8125,-11.6875 0.6375,-3.3 3.23125,-5.825 6.09375,-7.375 7.2875,-4.15 14.79375,-7.9125 22.34375,-11.5625 15.0375,-7.575 25.6625,-22.38125 29.5625,-38.59375 1.9125,-12.5125 -0.36875,-25.28125 -4.53125,-37.09375 -2.575,-8.3125 -10.4875,-13.25 -17.875,-16.8125 -2.2,-0.128125 -4.6498,-0.2625 -7.15625,-0.21875 z M 346.65625,58.625 c -1.13841,0.03811 -2.32344,0.385156 -3.5,1.15625 C 324.56875,64.24375 305.625,69.7875 290.125,81.4375 283.175,86.4 279.7875,94.3875 274.8125,101 c -3,2.1375 -7.075,2.1375 -10.5625,3.25 -0.1125,4.9375 0.0312,13.525 8.21875,10.6875 22.1125,1.1875 45.85625,1.33863 64.84375,13.90113 14.73183,8.45225 27.42271,21.99091 33.3125,40.66137 5.55,14.025 4.6875,29.5125 9.25,43.8125 -16.2875,6.15 -31.85625,14.0375 -48.21875,20.0625 -2.525,-2.925 -1.34031,-2.52783 -5.53125,-5.96875 -3.63141,-2.01026 -7.79249,-3.88598 -10.65625,-4.1875 -4.03355,-0.4247 -9.60998,-0.40645 -13.9375,1.75 -6.3125,3.875 -5.26875,12.55 -4.40625,18.5 -38.725,-2.625 -77.55,1.1125 -115.9375,6.125 -11.7625,1.1875 -24.01875,1.6875 -34.96875,6.625 -16.6,7.1125 -27.10622,12.93805 -41.66872,23.61305 -2.6125,1.8 -9.26878,7.9682 -10.64378,10.7307 15.3125,-4.4 26.46875,-17.04375 40.90625,-23.40625 28.1,-14.7125 60.675,-14.65 91.4375,-18.125 17.8125,-0.475 35.675,-3.325 53.5,-1.625 -6.925,2.725 -14.425,3.30625 -21.6875,4.59375 -16.4125,2.6625 -32.38125,7.3125 -48.46875,11.375 -11.4375,2.8375 -21.25,9.73125 -32.0625,14.15625 -15.575,6.175 -18.71073,9.39655 -33.14823,17.75905 L 135.21875,305.5 c 13.775,-5.0625 25.04375,-14.91875 38.59375,-20.40625 12.55,-5.3 23.95,-13.40625 37.4375,-16.34375 25.125,-6.35 50.125,-13.5 75.625,-18.1875 -4.2375,2.1 -8.6,4.0625 -13.1875,5.25 -12.3875,2.6 -24.3125,7.3375 -35.0625,14 -10.8,6.625 -22.86875,11.525 -32.09375,20.4375 -11.2125,10.8875 -23.00625,21.20625 -33.78125,32.53125 -5.2,5.6625 -10.40625,11.88125 -12.21875,19.53125 7.075,-2.2125 10.4,-9.20625 14.9375,-14.40625 9.025,-11.7625 21.2,-20.425 31.6875,-30.75 11.1125,-11.225 25.74375,-17.8125 39.21875,-25.625 16.475,-9.25 35.575,-11.8875 52.75,-19.375 11.1375,1.15 21.30625,-4.5125 31.15625,-8.9375 17.275,-2.3375 34.8625,-0.775 52.25,-0.625 -0.5875,10.3625 0.57445,20.02159 -0.46875,31.25 -2.11479,9.63299 -1.45399,7.12837 -2.19262,18.95116 -5.0375,9.225 -6.81363,12.39884 -9.77613,22.48634 -1.2,3.7125 -0.0813,7.575 0.65625,11.25 4.6,-1.225 8.975,-3.95 10.9375,-8.375 3.725,-7.925 6.4125,-16.33125 9,-24.65625 2.7625,-16.8875 4.375,-33.93125 5,-51.03125 16.89156,2.31778 34.99505,3.78311 49.28209,11.61844 13.3088,7.29885 15.78158,7.37047 28.5031,16.54345 15.82621,7.18528 10.95856,5.41936 12.68356,4.61936 C 477.86875,264.2125 465.2625,257.59375 453.0625,251.78125 435.175,242.70625 415.3,238.7 395.75,235 c 10.8625,-2.125 24.13354,-5.67671 35.32104,-5.00171 7.2,-0.1 6.21131,-0.20683 19.27271,-2.02954 -8.05912,-3.92051 -19.05232,-4.15113 -25.84323,-3.09204 -15.97729,0.79091 -14.85052,3.3267 -28.43802,3.3767 -0.7,-3.8625 -1.6,-9.55682 -2.5,-13.38182 10.62841,-2.48863 20.06875,-3.91534 30.21875,-5.90284 24.15,-5.4 49.11875,-5.01875 73.71875,-5.34375 -0.0125,-1.625 -15.05463,-3.72046 -19.75921,-4.875 -14.64043,0.1552 -14.88404,-0.57575 -23.75862,0.2193 -3.99137,0.35757 -13.10623,1.02383 -20.20092,2.2182 -13.7375,2.2375 -27.46875,5.40342 -41.15625,7.87842 -5.0375,-14.175 -6.3375,-30.32842 -12.4375,-44.12842 -3.5875,-8.6875 -5.59375,-18.39375 -11.90625,-25.65625 -5.17447,-4.44187 -7.22808,-8.27295 -12.41312,-13.33812 -3.21959,-3.14515 -10.24813,-7.05519 -12.08688,-11.00563 -0.175,-15.85 6.93125,-30.525 10.40625,-45.8125 1.45234,-4.79375 -2.59813,-10.665158 -7.53125,-10.5 z M 258.375,89.40625 c -1.6375,6.9875 -9.525,16.46875 -9.1875,23.84375 0.7375,3.8125 5.0125,7.4125 8.6875,4.625 6.3625,-5.5625 4.07771,-11.32553 3.125,-22.15625 -2.2048,-6.232031 -0.83421,-4.320494 -2.625,-6.3125 z m 63,170.46875 c -2.15381,0.0693 -4.39844,1.57812 -5.1875,3.625 -3.425,8.7125 -0.825,20.7125 -9.9375,26.5 -5.3125,5.55 -13.625,6.26875 -20.8125,5.28125 -8.9125,-2.725 -17.38125,-6.69375 -26.21875,-9.59375 0.5625,3.9125 -0.56875,9.24375 3.78125,11.15625 11.1,5.8875 24.15,6.91875 36.5,6.71875 9.3125,-0.1125 18.71875,2 27.96875,0.125 9.6625,-2.475 14.11875,-12.5125 21.78125,-18.0625 5.275,-5.35 14.91875,-10.0375 11.59375,-19.1875 -7.8625,-0.5875 -11.2875,8.6 -16.5,12.75 -3.34942,1.24211 -7.26014,3.29182 -10.40625,2.3125 -2.66431,-0.82935 -3.34849,-3.15959 -5.625,-7.875 -0.0625,-4.125 -0.5125,-8.78125 -3.5,-12.15625 -0.87656,-1.1625 -2.14521,-1.63535 -3.4375,-1.59375 z"
             id="path3061"
             transform="scale(0.8,0.8)" />
          <path
             style="fill:#ffffff"
             inkscape:connector-curvature="0"
             d="m 109.4,30.39 c 5.43,-8.9 20.79,-5.62 23.21,4.15 2.02,7.29 3.85,15.04 2.4,22.61 -1.91,5.42 -4.16,10.82 -7.27,15.67 -7.58,9.28 -19.51,12.9 -28.68,20.24 -5.92,3.38 -8.81,9.73 -11.51,15.68 2.35,3.2 4.71,6.41 6.94,9.7 -3.75,1.21 -7.49,2.42 -11.23,3.65 0.47,3.55 0.62,7.62 3.28,10.32 4.46,4.1 9.12,8.01 13.13,12.56 -7.46,2.82 -16.82,6.24 -23.49,-0.16 -7.74,-9.72 -6.83,-23.58 -3.44,-34.87 1.84,-6.12 2.69,-13.83 9.16,-17.03 9.49,-7.68 22.76,-12.12 28.12,-23.9 4.11,-7.06 4.69,-15.69 3.4,-23.61 -1.36,-4.81 -7.45,-9.72 -4.02,-15.01 z"
             id="path3063" />
          <path
             style="fill:#ffffff"
             inkscape:connector-curvature="0"
             d="m 235.13,73.43 c 11.74,-3.98 22.49,-10.91 34.88,-12.86 -1.76,9.59 -5.46,18.85 -5.6,28.69 -11.29,-4.63 -23.35,-6.14 -35.4,-7.32 0.47,-3.84 1.91,-7.78 6.12,-8.51 z"
             id="path3067" />
          <path
             sodipodi:nodetypes="ccccc"
             d="m 288.12,182.01 c 5.28,-2.7 10.63,-5.33 16.3,-7.12 0.3,3.92 0.35363,6.35454 0.59363,10.28454 -10.68,0.38 -20.92363,3.48546 -31.61363,3.52546 4.64,-2.8 9.89,-4.28 14.72,-6.69 z"
             id="path3077"
             inkscape:connector-curvature="0"
             style="fill:#ffffff" />
        </g>
      </g>
    </g>
  </g>
</svg>
