<?xml version="1.0" encoding="UTF-8" standalone="no"?>
<svg
   xmlns:dc="http://purl.org/dc/elements/1.1/"
   xmlns:cc="http://creativecommons.org/ns#"
   xmlns:rdf="http://www.w3.org/1999/02/22-rdf-syntax-ns#"
   xmlns:svg="http://www.w3.org/2000/svg"
   xmlns="http://www.w3.org/2000/svg"
   xmlns:sodipodi="http://sodipodi.sourceforge.net/DTD/sodipodi-0.dtd"
   xmlns:inkscape="http://www.inkscape.org/namespaces/inkscape"
   width="247.65088"
   height="219.1443"
   viewBox="0 0 198.1207 175.31545"
   version="1.1"
   id="svg3091"
   inkscape:version="0.48.2 r9819"
   sodipodi:docname="nixmini.svg">
  <metadata
     id="metadata3157">
    <rdf:RDF>
      <cc:Work
         rdf:about="">
        <dc:format>image/svg+xml</dc:format>
        <dc:type
           rdf:resource="http://purl.org/dc/dcmitype/StillImage" />
        <dc:title />
      </cc:Work>
    </rdf:RDF>
  </metadata>
  <defs
     id="defs3155">
    <clipPath
       clipPathUnits="userSpaceOnUse"
       id="clipPath3724">
      <rect
         style="fill:#0000ff;fill-rule:evenodd;stroke:#000000;stroke-width:0.80000001px;stroke-linecap:butt;stroke-linejoin:miter;stroke-opacity:1"
         id="rect3726"
         width="602.55212"
         height="180.88541"
         x="0"
         y="-0.84375" />
    </clipPath>
    <clipPath
       clipPathUnits="userSpaceOnUse"
       id="clipPath3728">
      <rect
         style="fill:#0000ff;fill-rule:evenodd;stroke:#000000;stroke-width:0.80000001px;stroke-linecap:butt;stroke-linejoin:miter;stroke-opacity:1"
         id="rect3730"
         width="602.55212"
         height="180.88541"
         x="0"
         y="-0.84375" />
    </clipPath>
    <clipPath
       clipPathUnits="userSpaceOnUse"
       id="clipPath3732">
      <rect
         style="fill:#0000ff;fill-rule:evenodd;stroke:#000000;stroke-width:0.80000001px;stroke-linecap:butt;stroke-linejoin:miter;stroke-opacity:1"
         id="rect3734"
         width="602.55212"
         height="180.88541"
         x="0"
         y="-0.84375" />
    </clipPath>
    <clipPath
       clipPathUnits="userSpaceOnUse"
       id="clipPath3736">
      <rect
         style="fill:#0000ff;fill-rule:evenodd;stroke:#000000;stroke-width:0.80000001px;stroke-linecap:butt;stroke-linejoin:miter;stroke-opacity:1"
         id="rect3738"
         width="602.55212"
         height="180.88541"
         x="0"
         y="-0.84375" />
    </clipPath>
    <clipPath
       clipPathUnits="userSpaceOnUse"
       id="clipPath3740">
      <rect
         style="fill:#0000ff;fill-rule:evenodd;stroke:#000000;stroke-width:0.80000001px;stroke-linecap:butt;stroke-linejoin:miter;stroke-opacity:1"
         id="rect3742"
         width="602.55212"
         height="180.88541"
         x="0"
         y="-0.84375" />
    </clipPath>
    <clipPath
       clipPathUnits="userSpaceOnUse"
       id="clipPath3744">
      <rect
         style="fill:#0000ff;fill-rule:evenodd;stroke:#000000;stroke-width:0.80000001px;stroke-linecap:butt;stroke-linejoin:miter;stroke-opacity:1"
         id="rect3746"
         width="602.55212"
         height="180.88541"
         x="0"
         y="-0.84375" />
    </clipPath>
    <clipPath
       clipPathUnits="userSpaceOnUse"
       id="clipPath3748">
      <rect
         style="fill:#0000ff;fill-rule:evenodd;stroke:#000000;stroke-width:0.80000001px;stroke-linecap:butt;stroke-linejoin:miter;stroke-opacity:1"
         id="rect3750"
         width="602.55212"
         height="180.88541"
         x="0"
         y="-0.84375" />
    </clipPath>
    <clipPath
       clipPathUnits="userSpaceOnUse"
       id="clipPath3752">
      <rect
         style="fill:#0000ff;fill-rule:evenodd;stroke:#000000;stroke-width:0.80000001px;stroke-linecap:butt;stroke-linejoin:miter;stroke-opacity:1"
         id="rect3754"
         width="602.55212"
         height="180.88541"
         x="0"
         y="-0.84375" />
    </clipPath>
    <clipPath
       clipPathUnits="userSpaceOnUse"
       id="clipPath3756">
      <rect
         style="fill:#0000ff;fill-rule:evenodd;stroke:#000000;stroke-width:0.80000001px;stroke-linecap:butt;stroke-linejoin:miter;stroke-opacity:1"
         id="rect3758"
         width="602.55212"
         height="180.88541"
         x="0"
         y="-0.84375" />
    </clipPath>
    <clipPath
       clipPathUnits="userSpaceOnUse"
       id="clipPath3760">
      <rect
         style="fill:#0000ff;fill-rule:evenodd;stroke:#000000;stroke-width:0.80000001px;stroke-linecap:butt;stroke-linejoin:miter;stroke-opacity:1"
         id="rect3762"
         width="602.55212"
         height="180.88541"
         x="0"
         y="-0.84375" />
    </clipPath>
    <clipPath
       clipPathUnits="userSpaceOnUse"
       id="clipPath3764">
      <rect
         style="fill:#0000ff;fill-rule:evenodd;stroke:#000000;stroke-width:0.80000001px;stroke-linecap:butt;stroke-linejoin:miter;stroke-opacity:1"
         id="rect3766"
         width="602.55212"
         height="180.88541"
         x="0"
         y="-0.84375" />
    </clipPath>
    <clipPath
       clipPathUnits="userSpaceOnUse"
       id="clipPath3768">
      <rect
         style="fill:#0000ff;fill-rule:evenodd;stroke:#000000;stroke-width:0.80000001px;stroke-linecap:butt;stroke-linejoin:miter;stroke-opacity:1"
         id="rect3770"
         width="602.55212"
         height="180.88541"
         x="0"
         y="-0.84375" />
    </clipPath>
    <clipPath
       clipPathUnits="userSpaceOnUse"
       id="clipPath3772">
      <rect
         style="fill:#0000ff;fill-rule:evenodd;stroke:#000000;stroke-width:0.80000001px;stroke-linecap:butt;stroke-linejoin:miter;stroke-opacity:1"
         id="rect3774"
         width="602.55212"
         height="180.88541"
         x="0"
         y="-0.84375" />
    </clipPath>
    <clipPath
       clipPathUnits="userSpaceOnUse"
       id="clipPath4546">
      <rect
         style="fill:#0000ff;fill-rule:evenodd;stroke:#000000;stroke-width:0.80000001px;stroke-linecap:butt;stroke-linejoin:miter;stroke-opacity:1"
         id="rect4548"
         width="599.72229"
         height="178.22859"
         x="0.40474859"
         y="0.40480644"
         ry="0" />
    </clipPath>
    <clipPath
       clipPathUnits="userSpaceOnUse"
       id="clipPath4550">
      <rect
         style="fill:#0000ff;fill-rule:evenodd;stroke:#000000;stroke-width:0.80000001px;stroke-linecap:butt;stroke-linejoin:miter;stroke-opacity:1"
         id="rect4552"
         width="599.72229"
         height="178.22859"
         x="0.40474859"
         y="0.40480644"
         ry="0" />
    </clipPath>
    <clipPath
       clipPathUnits="userSpaceOnUse"
       id="clipPath4554">
      <rect
         style="fill:#0000ff;fill-rule:evenodd;stroke:#000000;stroke-width:0.80000001px;stroke-linecap:butt;stroke-linejoin:miter;stroke-opacity:1"
         id="rect4556"
         width="599.72229"
         height="178.22859"
         x="0.40474859"
         y="0.40480644"
         ry="0" />
    </clipPath>
    <clipPath
       clipPathUnits="userSpaceOnUse"
       id="clipPath4558">
      <rect
         style="fill:#0000ff;fill-rule:evenodd;stroke:#000000;stroke-width:0.80000001px;stroke-linecap:butt;stroke-linejoin:miter;stroke-opacity:1"
         id="rect4560"
         width="599.72229"
         height="178.22859"
         x="0.40474859"
         y="0.40480644"
         ry="0" />
    </clipPath>
    <clipPath
       clipPathUnits="userSpaceOnUse"
       id="clipPath4562">
      <rect
         style="fill:#0000ff;fill-rule:evenodd;stroke:#000000;stroke-width:0.80000001px;stroke-linecap:butt;stroke-linejoin:miter;stroke-opacity:1"
         id="rect4564"
         width="599.72229"
         height="178.22859"
         x="0.40474859"
         y="0.40480644"
         ry="0" />
    </clipPath>
    <clipPath
       clipPathUnits="userSpaceOnUse"
       id="clipPath4566">
      <rect
         style="fill:#0000ff;fill-rule:evenodd;stroke:#000000;stroke-width:0.80000001px;stroke-linecap:butt;stroke-linejoin:miter;stroke-opacity:1"
         id="rect4568"
         width="599.72229"
         height="178.22859"
         x="0.40474859"
         y="0.40480644"
         ry="0" />
    </clipPath>
    <clipPath
       clipPathUnits="userSpaceOnUse"
       id="clipPath4570">
      <rect
         style="fill:#0000ff;fill-rule:evenodd;stroke:#000000;stroke-width:0.80000001px;stroke-linecap:butt;stroke-linejoin:miter;stroke-opacity:1"
         id="rect4572"
         width="599.72229"
         height="178.22859"
         x="0.40474859"
         y="0.40480644"
         ry="0" />
    </clipPath>
    <clipPath
       clipPathUnits="userSpaceOnUse"
       id="clipPath4574">
      <rect
         style="fill:#0000ff;fill-rule:evenodd;stroke:#000000;stroke-width:0.80000001px;stroke-linecap:butt;stroke-linejoin:miter;stroke-opacity:1"
         id="rect4576"
         width="599.72229"
         height="178.22859"
         x="0.40474859"
         y="0.40480644"
         ry="0" />
    </clipPath>
    <clipPath
       clipPathUnits="userSpaceOnUse"
       id="clipPath4578">
      <rect
         style="fill:#0000ff;fill-rule:evenodd;stroke:#000000;stroke-width:0.80000001px;stroke-linecap:butt;stroke-linejoin:miter;stroke-opacity:1"
         id="rect4580"
         width="599.72229"
         height="178.22859"
         x="0.40474859"
         y="0.40480644"
         ry="0" />
    </clipPath>
    <clipPath
       clipPathUnits="userSpaceOnUse"
       id="clipPath4582">
      <rect
         style="fill:#0000ff;fill-rule:evenodd;stroke:#000000;stroke-width:0.80000001px;stroke-linecap:butt;stroke-linejoin:miter;stroke-opacity:1"
         id="rect4584"
         width="599.72229"
         height="178.22859"
         x="0.40474859"
         y="0.40480644"
         ry="0" />
    </clipPath>
    <clipPath
       clipPathUnits="userSpaceOnUse"
       id="clipPath4586">
      <rect
         style="fill:#0000ff;fill-rule:evenodd;stroke:#000000;stroke-width:0.80000001px;stroke-linecap:butt;stroke-linejoin:miter;stroke-opacity:1"
         id="rect4588"
         width="599.72229"
         height="178.22859"
         x="0.40474859"
         y="0.40480644"
         ry="0" />
    </clipPath>
    <clipPath
       clipPathUnits="userSpaceOnUse"
       id="clipPath4590">
      <rect
         style="fill:#0000ff;fill-rule:evenodd;stroke:#000000;stroke-width:0.80000001px;stroke-linecap:butt;stroke-linejoin:miter;stroke-opacity:1"
         id="rect4592"
         width="599.72229"
         height="178.22859"
         x="0.40474859"
         y="0.40480644"
         ry="0" />
    </clipPath>
    <clipPath
       clipPathUnits="userSpaceOnUse"
       id="clipPath4594">
      <rect
         style="fill:#0000ff;fill-rule:evenodd;stroke:#000000;stroke-width:0.80000001px;stroke-linecap:butt;stroke-linejoin:miter;stroke-opacity:1"
         id="rect4596"
         width="599.72229"
         height="178.22859"
         x="0.40474859"
         y="0.40480644"
         ry="0" />
    </clipPath>
    <clipPath
       clipPathUnits="userSpaceOnUse"
       id="clipPath4819">
      <rect
         style="fill:#0000ff;fill-rule:evenodd;stroke:#000000;stroke-width:0.80000001px;stroke-linecap:butt;stroke-linejoin:miter;stroke-opacity:1"
         id="rect4821"
         width="198.69084"
         height="175.31544"
         x="-0.57013631"
         y="-0.025317384" />
    </clipPath>
    <clipPath
       clipPathUnits="userSpaceOnUse"
       id="clipPath4823">
      <rect
         style="fill:#0000ff;fill-rule:evenodd;stroke:#000000;stroke-width:0.80000001px;stroke-linecap:butt;stroke-linejoin:miter;stroke-opacity:1"
         id="rect4825"
         width="198.69084"
         height="175.31544"
         x="-0.57013631"
         y="-0.025317384" />
    </clipPath>
    <clipPath
       clipPathUnits="userSpaceOnUse"
       id="clipPath4827">
      <rect
         style="fill:#0000ff;fill-rule:evenodd;stroke:#000000;stroke-width:0.80000001px;stroke-linecap:butt;stroke-linejoin:miter;stroke-opacity:1"
         id="rect4829"
         width="198.69084"
         height="175.31544"
         x="-0.57013631"
         y="-0.025317384" />
    </clipPath>
    <clipPath
       clipPathUnits="userSpaceOnUse"
       id="clipPath4831">
      <rect
         style="fill:#0000ff;fill-rule:evenodd;stroke:#000000;stroke-width:0.80364937px;stroke-linecap:butt;stroke-linejoin:miter;stroke-opacity:1"
         id="rect4833"
         width="187.88376"
         height="187.09489"
         x="-0.5391258"
         y="-0.02701846"
         transform="matrix(0.82847019,0.56003317,-0.59471144,0.80393924,0,0)" />
    </clipPath>
    <clipPath
       clipPathUnits="userSpaceOnUse"
       id="clipPath4835">
      <rect
         style="fill:#0000ff;fill-rule:evenodd;stroke:#000000;stroke-width:0.80000001px;stroke-linecap:butt;stroke-linejoin:miter;stroke-opacity:1"
         id="rect4837"
         width="198.69084"
         height="175.31544"
         x="-245.12776"
         y="-22.59675"
         transform="scale(-1,1)" />
    </clipPath>
    <clipPath
       clipPathUnits="userSpaceOnUse"
       id="clipPath4839">
      <rect
         style="fill:#0000ff;fill-rule:evenodd;stroke:#000000;stroke-width:0.84101945px;stroke-linecap:butt;stroke-linejoin:miter;stroke-opacity:1"
         id="rect4841"
         width="210.91272"
         height="182.5271"
         x="44.218868"
         y="-19.405605" />
    </clipPath>
    <clipPath
       clipPathUnits="userSpaceOnUse"
       id="clipPath4843">
      <rect
         style="fill:#0000ff;fill-rule:evenodd;stroke:#000000;stroke-width:0.80000001px;stroke-linecap:butt;stroke-linejoin:miter;stroke-opacity:1"
         id="rect4845"
         width="198.69084"
         height="175.31544"
         x="-0.57013631"
         y="-0.025317384" />
    </clipPath>
    <clipPath
       clipPathUnits="userSpaceOnUse"
       id="clipPath4847">
      <rect
         style="fill:#0000ff;fill-rule:evenodd;stroke:#000000;stroke-width:0.80030531px;stroke-linecap:butt;stroke-linejoin:miter;stroke-opacity:1"
         id="rect4849"
         width="195.30629"
         height="178.48972"
         x="-0.56042445"
         y="-0.025775781"
         transform="matrix(0.81765991,0.57570154,-0.58554913,0.81063692,0,0)" />
    </clipPath>
    <clipPath
       clipPathUnits="userSpaceOnUse"
       id="clipPath4851">
      <rect
         style="fill:#0000ff;fill-rule:evenodd;stroke:#000000;stroke-width:0.83209807px;stroke-linecap:butt;stroke-linejoin:miter;stroke-opacity:1"
         id="rect4853"
         width="210.61855"
         height="178.92477"
         x="227.04581"
         y="-16.780666" />
    </clipPath>
    <clipPath
       clipPathUnits="userSpaceOnUse"
       id="clipPath4855">
      <rect
         style="fill:#0000ff;fill-rule:evenodd;stroke:#000000;stroke-width:0.80000001px;stroke-linecap:butt;stroke-linejoin:miter;stroke-opacity:1"
         id="rect4857"
         width="198.69084"
         height="175.31544"
         x="-0.57013631"
         y="-0.025317384" />
    </clipPath>
    <clipPath
       clipPathUnits="userSpaceOnUse"
       id="clipPath4859">
      <rect
         style="fill:#0000ff;fill-rule:evenodd;stroke:#000000;stroke-width:0.84427416px;stroke-linecap:butt;stroke-linejoin:miter;stroke-opacity:1"
         id="rect4861"
         width="175.90402"
         height="220.5511"
         x="-0.50475037"
         y="-0.031849887"
         transform="matrix(0.9255001,-0.37874736,0.56870127,0.82254414,0,0)" />
    </clipPath>
    <clipPath
       clipPathUnits="userSpaceOnUse"
       id="clipPath4863">
      <rect
         style="fill:#0000ff;fill-rule:evenodd;stroke:#000000;stroke-width:0.80000001px;stroke-linecap:butt;stroke-linejoin:miter;stroke-opacity:1"
         id="rect4865"
         width="198.69084"
         height="175.31544"
         x="51.534691"
         y="-15.240126" />
    </clipPath>
    <clipPath
       clipPathUnits="userSpaceOnUse"
       id="clipPath4867">
      <rect
         style="fill:#0000ff;fill-rule:evenodd;stroke:#000000;stroke-width:0.85424203px;stroke-linecap:butt;stroke-linejoin:miter;stroke-opacity:1"
         id="rect4869"
         width="215.55385"
         height="184.25705"
         x="406.22769"
         y="-20.8699" />
    </clipPath>
    <clipPath
       clipPathUnits="userSpaceOnUse"
       id="clipPath4871">
      <rect
         style="fill:#0000ff;fill-rule:evenodd;stroke:#000000;stroke-width:0.76912683px;stroke-linecap:butt;stroke-linejoin:miter;stroke-opacity:1"
         id="rect4873"
         width="194.22299"
         height="165.7728"
         x="53.933163"
         y="-10.012136" />
    </clipPath>
    <clipPath
       clipPathUnits="userSpaceOnUse"
       id="clipPath4875">
      <rect
         style="fill:#0000ff;fill-rule:evenodd;stroke:#000000;stroke-width:0.80000001px;stroke-linecap:butt;stroke-linejoin:miter;stroke-opacity:1"
         id="rect4877"
         width="198.69084"
         height="175.31544"
         x="44.550758"
         y="-14.001143" />
    </clipPath>
    <clipPath
       clipPathUnits="userSpaceOnUse"
       id="clipPath4879">
      <rect
         style="fill:#0000ff;fill-rule:evenodd;stroke:#000000;stroke-width:0.72557509px;stroke-linecap:butt;stroke-linejoin:miter;stroke-opacity:1"
         id="rect4881"
         width="199.54593"
         height="143.5952"
         x="55.387665"
         y="0.3840698" />
    </clipPath>
  </defs>
  <sodipodi:namedview
     pagecolor="#ffffff"
     bordercolor="#666666"
     borderopacity="1"
     objecttolerance="10"
     gridtolerance="10"
     guidetolerance="10"
     inkscape:pageopacity="0"
     inkscape:pageshadow="2"
     inkscape:window-width="1109"
     inkscape:window-height="809"
     id="namedview3153"
     showgrid="false"
     inkscape:zoom="2.80637"
     inkscape:cx="123.82544"
     inkscape:cy="109.57215"
     inkscape:window-x="184"
     inkscape:window-y="0"
     inkscape:window-maximized="0"
     inkscape:current-layer="svg3091"
     fit-margin-top="0"
     fit-margin-left="0"
     fit-margin-right="0"
     fit-margin-bottom="0"
     showguides="true"
     inkscape:guide-bbox="true">
    <sodipodi:guide
       orientation="0,1"
       position="266.49799,-2.8502414"
       id="guide4817" />
  </sodipodi:namedview>
  <rect
     style="fill:#ff4700;fill-opacity:1;fill-rule:evenodd;stroke:#ffffff;stroke-width:0.23199998999999999;stroke-linecap:butt;stroke-linejoin:miter;stroke-miterlimit:0;stroke-opacity:0;stroke-dasharray:none"
     id="rect3016"
     width="198.97546"
     height="143.4704"
     x="56.088699"
     y="0.40411627"
     clip-path="url(#clipPath4879)"
     transform="matrix(0.99571483,0,0,1.2209005,-55.720456,-0.46891101)" />
  <path
     d="m 126.67813,10.845212 c -0.15,-1.7600003 1.48,-3.5300003 3.3,-3.2400003 10.86,-0.13 21.72,0.08 32.57,-0.08 3.79,4.4100003 1.17,10.5200003 2.09,15.7500003 4.28,-4.65 6.66,-10.64 10.38,-15.7200003 13.65,-0.28 26.4548,-0.04 40.1048,-0.12 0.79,0.84 2.4452,3.1153293 3.2552,3.9653293 -0.05,41.02 0.04,82.105431 -0.05,123.115429 -1.70001,2.16324 -1.27731,2.21877 -3.47904,3.85146 l -36.30365,0.2022 c -6.72498,0.39903 -2.50731,-3.33442 -3.52731,-4.67442 -2.25783,-2.03131 -6.42,-9.18 -10.38,-13.13 -0.23,4.87 -0.0137,8.25923 -0.12635,13.86461 -1.27635,1.93172 -1.99365,2.92174 -3.09365,3.91174 l -31.2871,0.15633 c -1.64359,-1.22438 -2.33835,-1.98423 -3.4529,-3.6905 -0.16,-6 0.1,-12.90218 -0.07,-18.90218 -5.86,6.51 -10.31758,17.44974 -14.12705,22.56948 l -35.787752,-0.28297 c -1.05,-0.99 -6.055204,-2.85686 -7.055204,-3.88686 0.36,-41.470001 0.05,-82.949998 0.15,-124.419998 0.71,-0.8900003 1.42,-1.7700003 2.13,-2.6600003 14.49,0 28.969996,0.05 43.460006,-0.02 3.82,4.9300003 6.42,10.8800003 11.17,15.0400003 0.22,-3.86 -0.03,-7.73 0.13,-11.6 z"
     id="path3097"
     inkscape:connector-curvature="0"
     style="fill:#000000"
     sodipodi:nodetypes="cccccccccccccccccccccccccc"
     clip-path="url(#clipPath4875)"
     transform="translate(-45.120895,14.001143)" />
  <path
     d="m 105.14,11.52625 c 1.57,-0.32 2.75,0.74 3.88,1.64 0.22,0.26 0.67,0.79 0.89,1.05 23.2089,22.552772 47.38372,58.481303 60.13,72.5 0.96013,0.45113 6.04657,0.683879 10.36,0.74 2.33,-1.36 5.27,-2.86 5.54,-5.9 0.39433,-25.419252 0.5021,-30.324597 0.21396,-41.455799 L 186.46,17.65625 c -0.08,-2.18 -0.54,-6.1 2.72,-6.1 8.06,-0.01 14.54978,0.09 22.60978,-0.04 1.2991,-0.0073 2.44294,0.218269 2.7161,0.861445 0.34021,0.801027 0.37278,2.647836 0.23412,3.568555 -0.12,38.83 0.12421,79.242751 -0.18579,118.07275 -1.00285,-0.0518 -33.21576,0.1911 -37.61429,0.1712 -7.96847,-9.89563 -11.63618,-21.96704 -19.55992,-31.70401 -1.48,-1.8 -2.99,-3.56 -4.47,-5.36 -8.83,-11.05 -16.5058,-19.767588 -25.4358,-30.747588 -2.50732,-2.779553 -5.73465,-5.885536 -8.63331,-8.632412 -2.79535,-1.933751 -9.89964,-1.162093 -11.45357,0.904017 -1.65952,0.720207 -1.98954,1.989727 -2.48821,3.543305 -0.21,23.1 6.71279,48.651728 6.56279,71.761728 -0.87071,0.14821 -27.732556,0.30402 -32.630723,0.32019 0,0 -1.023964,-0.0168 -3.653214,-3.36084 0.285232,-6.86812 0.411617,-29.86808 0.462031,-48.89836 -0.14,-22.68 -0.419617,-67.167053 -0.05,-68.06 0.369617,-0.892947 1.624902,-3.799677 2.275966,-4.0028693 0.651064,-0.203192 19.932224,1.6602543 27.27404,1.5728293 z"
     id="path3103"
     inkscape:connector-curvature="0"
     style="fill:#000000"
     sodipodi:nodetypes="ccccccccccsccccccccccccczzcc"
     clip-path="url(#clipPath4871)"
     transform="matrix(1.0230037,0,0,1.0575646,-55.743961,10.588481)" />
  <path
     style="fill:#000000"
     d="m 456.22,10.961206 c 7.67896,0.01763 16.99623,-0.135064 23.05,-0.05496 1.49485,2.472481 4.76898,6.944178 7.1233,10.410846 7.11141,11.600106 11.99779,18.439909 19.85211,29.553085 2.34596,3.277481 9.43609,-6.319842 12.3866,-9.690076 10.39687,-12.353172 22.45259,-21.338795 30.25099,-30.842487 11.16285,-0.4155718 14.0465,0.396137 21.2147,0.688789 0.29331,0.547753 0.33163,0.08449 -1.03675,2.784113 -2.38214,5.69374 -21.70489,29.152085 -30.6749,41.627627 -2.26519,3.481072 -6.25236,8.735688 -8.20642,12.166132 -1.07106,5.646083 5.49412,7.430419 8.83571,11.679756 7.41995,10.542392 15.91708,20.283939 22.81489,31.203189 4.38841,6.72785 9.22075,11.81546 12.48727,18.60278 -0.34996,1.33175 -1.34709,2.56486 -2.95069,2.70362 -7.46809,0.64624 -18.02412,0.0738 -22.20707,0.12899 -2.78949,0.29788 -2.72178,-0.49747 -3.99884,-2.28729 -3.50956,-5.06684 -17.04972,-25.7869 -24.1309,-37.58907 -4.2006,-5.499114 -12.54388,-6.254516 -16.59482,-0.578843 -2.80355,3.823682 -5.98948,7.994483 -8.62479,11.850463 -5.43556,8.01674 -17.02558,24.01568 -18.59119,27.52236 -2.06201,1.5143 -1.5257,1.59335 -4.95763,1.44998 -5.17887,0.0724 -17.37002,0.24257 -20.95157,-0.28396 -0.63374,-1.53379 -0.72985,-2.97518 -0.45942,-4.35043 1.02228,-5.19871 7.28242,-9.45242 9.53937,-14.18049 10.84896,-13.32382 25.96882,-28.45396 36.05095,-42.347259 1.25267,-5.416873 3.0554,-7.68855 -0.42574,-11.943575 -5.92299,-6.866917 -33.25186,-32.782516 -40.0794,-43.419349 -1.96458,-3.283451 -1.34127,-3.859243 0.28424,-4.803941 z"
     id="path3101"
     inkscape:connector-curvature="0"
     sodipodi:nodetypes="cccccccccccccsccccccccsccccc"
     clip-path="url(#clipPath4867)"
     transform="matrix(0.92176894,0,0,0.95147217,-375.0182,19.857128)" />
  <path
     d="m 182.48501,55.508755 c 0.52082,6.215011 -0.32501,11.197495 -0.005,16.917495 -0.3,2.97 0.15665,6.585832 -0.32581,8.885832 -2.53,-3.3 -5.88419,-5.789979 -8.89419,-9.725832 -0.45501,-1.505832 -0.49,-3.54 0.89,-4.75 3,-3.58 6.01501,-7.287495 8.33501,-11.327495 z"
     id="path3109"
     inkscape:connector-curvature="0"
     style="fill:#ff4700;fill-opacity:1"
     clip-path="url(#clipPath4863)"
     transform="translate(-52.104826,15.240125)"
     sodipodi:nodetypes="cccccc" />
  <rect
     transform="matrix(-0.73679148,-0.67612005,-0.63447075,0.77294687,0,0)"
     y="-53.540768"
     x="-112.78089"
     height="143.37146"
     width="0"
     id="rect4799"
     style="fill:#000000;fill-rule:evenodd;stroke:#000000;stroke-width:0.62834615px;stroke-linecap:butt;stroke-linejoin:miter;stroke-opacity:1"
     ry="0" />
  <rect
     style="fill:#000000;fill-rule:evenodd;stroke:#000000;stroke-width:0.75420159px;stroke-linecap:butt;stroke-linejoin:miter;stroke-opacity:1"
     id="rect4805"
     width="4.4806175"
     height="57.449577"
     x="122.41228"
     y="-20.727285"
     transform="matrix(0.95130203,0.30826037,-0.65772358,0.75325938,6.8656491e-8,0.02531737)"
     ry="0"
     clip-path="url(#clipPath4859)" />
  <rect
     y="28.830912"
     x="104.06377"
     height="106.81094"
     width="2.3548343"
     id="rect4795"
     style="fill:#000000;fill-rule:evenodd;stroke:#000000;stroke-width:0.72369826px;stroke-linecap:butt;stroke-linejoin:miter;stroke-opacity:1"
     clip-path="url(#clipPath4855)"
     transform="translate(6.8656491e-8,0.02531737)" />
  <path
     d="m 320.25298,11.789226 c 8.5,-0.24 17.03702,-0.07298 25.53702,-0.08298 1.59,-0.17 3.86,0.59 3.52,2.6 -0.04,39.05 0.15,78.11 -0.1,117.160004 -0.57,0.34 -1.69,1.03 -2.26,1.37 -8.46,-0.01 -16.93,0 -25.4,0 -0.56,-0.34 -1.69,-1.01 -2.25,-1.35 -0.22,-39.530004 -0.17,-79.080004 -0.03,-118.620004 0.17859,-1.286397 0.064,-0.859629 0.98298,-1.077024 z"
     id="path3105"
     inkscape:connector-curvature="0"
     style="fill:#000000"
     sodipodi:nodetypes="ccccccccc"
     clip-path="url(#clipPath4851)"
     transform="matrix(0.94336824,0,0,0.97982773,-214.75794,16.442161)" />
  <rect
     style="fill:#000000;fill-rule:evenodd;stroke:#000000;stroke-width:1.04858804px;stroke-linecap:butt;stroke-linejoin:miter;stroke-opacity:1"
     id="rect4793"
     width="10.212107"
     height="151.11044"
     x="33.147175"
     y="58.466496"
     transform="matrix(0.82474513,-0.56550462,0.59573995,0.80317738,6.8656491e-8,0.02531737)"
     clip-path="url(#clipPath4847)" />
  <rect
     style="fill:#000000;fill-rule:evenodd;stroke:#000000;stroke-width:1.0180732px;stroke-linecap:butt;stroke-linejoin:miter;stroke-opacity:1"
     id="rect4797"
     width="4.341361"
     height="122.06328"
     x="82.057091"
     y="26.146744"
     clip-path="url(#clipPath4843)"
     transform="translate(6.8656491e-8,0.02531737)" />
  <path
     transform="matrix(0.9420524,0,0,0.96049,-42.226628,18.63889)"
     clip-path="url(#clipPath4839)"
     sodipodi:nodetypes="zcccccccccscccccccccz"
     style="fill:#ffffff"
     inkscape:connector-curvature="0"
     id="path4801"
     d="m 75.713998,10.695289 c 0.01024,-0.292554 20.00336,0.07163 29.373362,-0.09837 3.51768,-0.06185 5.58411,0.961642 7.76367,3.508704 7.95249,6.974818 37.16311,45.978045 58.66544,72.610628 1.56896,1.380012 6.66928,1.370174 8.88353,0.74 2.33,-1.36 5.27,-2.86 5.54,-5.9 0.39433,-25.419252 0.5021,-30.324597 0.21396,-41.455799 L 186.46,17.65625 c -0.08,-2.18 -0.54,-6.1 2.72,-6.1 8.06,-0.01 14.54978,0.09 22.60978,-0.04 1.2991,-0.0073 2.44294,0.218269 2.7161,0.861445 0.34021,0.801027 0.37278,2.647836 0.23412,3.568555 -0.12,38.83 0.16,77.468984 -0.15,116.29898 -11.13912,0.12797 -24.01927,-0.0631 -34.78927,-0.53305 -7.96847,-9.89563 -14.49699,-19.48896 -22.42073,-29.22593 -13.63658,-15.837593 -24.77308,-31.687579 -38.53911,-44.74 -2.79535,-1.933751 -9.89964,-1.162093 -11.45357,0.904017 -1.65952,1.649089 -1.98954,1.989727 -2.48821,3.543305 -0.21,23.1 -0.20911,46.692678 -0.35911,69.802678 -13.474091,-0.13313 -16.468277,0.47209 -28.830001,0.05 -0.219368,-5.61464 -0.0062,-121.058408 0.004,-121.350961 z" />
  <path
     transform="matrix(-1,0,0,1,244.55763,22.59675)"
     clip-path="url(#clipPath4835)"
     style="fill:#ff4700;fill-opacity:1"
     inkscape:connector-curvature="0"
     id="path4803"
     d="m 182.55727,54.588977 c -0.0945,10.493273 -0.14236,14.793819 -0.0773,17.837273 0.0351,4.759485 0.14015,6.145431 0.048,8.791663 -3.00084,-2.923326 -9.94822,-9.383495 -11.26319,-11.341811 -0.12878,-0.442108 -0.78894,-1.601102 -0.17441,-4.257888 0.61453,-2.656786 6.49546,-7.075571 7.53423,-8.040295 1.14291,-0.914703 3.19488,-3.041545 3.93262,-2.988942 z"
     sodipodi:nodetypes="cccczccc" />
  <rect
     style="fill:#000000;fill-rule:evenodd;stroke:#000000;stroke-width:0.58464056px;stroke-linecap:butt;stroke-linejoin:miter;stroke-opacity:1"
     id="rect4807"
     width="6.0418787"
     height="84.362961"
     x="2.4328635"
     y="110.27118"
     transform="matrix(0.85218756,-0.52524747,0.63040298,0.77701089,-0.28824183,0.02531737)"
     clip-path="url(#clipPath4831)"
     ry="3.0209394" />
  <rect
     style="fill:#000000;fill-rule:evenodd;stroke:#000000;stroke-width:0.80000001px;stroke-linecap:butt;stroke-linejoin:miter;stroke-opacity:1"
     id="rect4809"
     width="4.846118"
     height="50.456642"
     x="56.736546"
     y="98.632759"
     clip-path="url(#clipPath4827)"
     transform="translate(6.8656491e-8,0.02531737)" />
  <rect
     style="fill:#000000;fill-rule:evenodd;stroke:#000000;stroke-width:0.67136931px;stroke-linecap:butt;stroke-linejoin:miter;stroke-opacity:1"
     id="rect4811"
     width="3.2122407"
     height="41.904667"
     x="129.63686"
     y="23.660458"
     clip-path="url(#clipPath4823)"
     transform="translate(6.8656491e-8,0.02531737)" />
  <rect
     style="fill:#000000;fill-rule:evenodd;stroke:#000000;stroke-width:0.70436311px;stroke-linecap:butt;stroke-linejoin:miter;stroke-opacity:1"
     id="rect4813"
     width="3.535723"
     height="54.732628"
     x="115.0601"
     y="33.067627"
     clip-path="url(#clipPath4819)"
     transform="translate(6.8656491e-8,0.02531737)" />
</svg>
