<?xml version="1.0" encoding="UTF-8" standalone="no"?>
<svg
   xmlns:dc="http://purl.org/dc/elements/1.1/"
   xmlns:cc="http://creativecommons.org/ns#"
   xmlns:rdf="http://www.w3.org/1999/02/22-rdf-syntax-ns#"
   xmlns:svg="http://www.w3.org/2000/svg"
   xmlns="http://www.w3.org/2000/svg"
   xmlns:sodipodi="http://sodipodi.sourceforge.net/DTD/sodipodi-0.dtd"
   xmlns:inkscape="http://www.inkscape.org/namespaces/inkscape"
   width="750.19531"
   height="223.55469"
   viewBox="0 0 600.15625 178.84375"
   version="1.1"
   id="svg3091"
   inkscape:version="0.48.2 r9819"
   sodipodi:docname="nix_redorig.svg">
  <metadata
     id="metadata3157">
    <rdf:RDF>
      <cc:Work
         rdf:about="">
        <dc:format>image/svg+xml</dc:format>
        <dc:type
           rdf:resource="http://purl.org/dc/dcmitype/StillImage" />
        <dc:title></dc:title>
      </cc:Work>
    </rdf:RDF>
  </metadata>
  <defs
     id="defs3155">
    <clipPath
       clipPathUnits="userSpaceOnUse"
       id="clipPath3724">
      <rect
         style="fill:#0000ff;fill-rule:evenodd;stroke:#000000;stroke-width:0.80000001px;stroke-linecap:butt;stroke-linejoin:miter;stroke-opacity:1"
         id="rect3726"
         width="602.55212"
         height="180.88541"
         x="0"
         y="-0.84375" />
    </clipPath>
    <clipPath
       clipPathUnits="userSpaceOnUse"
       id="clipPath3728">
      <rect
         style="fill:#0000ff;fill-rule:evenodd;stroke:#000000;stroke-width:0.80000001px;stroke-linecap:butt;stroke-linejoin:miter;stroke-opacity:1"
         id="rect3730"
         width="602.55212"
         height="180.88541"
         x="0"
         y="-0.84375" />
    </clipPath>
    <clipPath
       clipPathUnits="userSpaceOnUse"
       id="clipPath3732">
      <rect
         style="fill:#0000ff;fill-rule:evenodd;stroke:#000000;stroke-width:0.80000001px;stroke-linecap:butt;stroke-linejoin:miter;stroke-opacity:1"
         id="rect3734"
         width="602.55212"
         height="180.88541"
         x="0"
         y="-0.84375" />
    </clipPath>
    <clipPath
       clipPathUnits="userSpaceOnUse"
       id="clipPath3736">
      <rect
         style="fill:#0000ff;fill-rule:evenodd;stroke:#000000;stroke-width:0.80000001px;stroke-linecap:butt;stroke-linejoin:miter;stroke-opacity:1"
         id="rect3738"
         width="602.55212"
         height="180.88541"
         x="0"
         y="-0.84375" />
    </clipPath>
    <clipPath
       clipPathUnits="userSpaceOnUse"
       id="clipPath3740">
      <rect
         style="fill:#0000ff;fill-rule:evenodd;stroke:#000000;stroke-width:0.80000001px;stroke-linecap:butt;stroke-linejoin:miter;stroke-opacity:1"
         id="rect3742"
         width="602.55212"
         height="180.88541"
         x="0"
         y="-0.84375" />
    </clipPath>
    <clipPath
       clipPathUnits="userSpaceOnUse"
       id="clipPath3744">
      <rect
         style="fill:#0000ff;fill-rule:evenodd;stroke:#000000;stroke-width:0.80000001px;stroke-linecap:butt;stroke-linejoin:miter;stroke-opacity:1"
         id="rect3746"
         width="602.55212"
         height="180.88541"
         x="0"
         y="-0.84375" />
    </clipPath>
    <clipPath
       clipPathUnits="userSpaceOnUse"
       id="clipPath3748">
      <rect
         style="fill:#0000ff;fill-rule:evenodd;stroke:#000000;stroke-width:0.80000001px;stroke-linecap:butt;stroke-linejoin:miter;stroke-opacity:1"
         id="rect3750"
         width="602.55212"
         height="180.88541"
         x="0"
         y="-0.84375" />
    </clipPath>
    <clipPath
       clipPathUnits="userSpaceOnUse"
       id="clipPath3752">
      <rect
         style="fill:#0000ff;fill-rule:evenodd;stroke:#000000;stroke-width:0.80000001px;stroke-linecap:butt;stroke-linejoin:miter;stroke-opacity:1"
         id="rect3754"
         width="602.55212"
         height="180.88541"
         x="0"
         y="-0.84375" />
    </clipPath>
    <clipPath
       clipPathUnits="userSpaceOnUse"
       id="clipPath3756">
      <rect
         style="fill:#0000ff;fill-rule:evenodd;stroke:#000000;stroke-width:0.80000001px;stroke-linecap:butt;stroke-linejoin:miter;stroke-opacity:1"
         id="rect3758"
         width="602.55212"
         height="180.88541"
         x="0"
         y="-0.84375" />
    </clipPath>
    <clipPath
       clipPathUnits="userSpaceOnUse"
       id="clipPath3760">
      <rect
         style="fill:#0000ff;fill-rule:evenodd;stroke:#000000;stroke-width:0.80000001px;stroke-linecap:butt;stroke-linejoin:miter;stroke-opacity:1"
         id="rect3762"
         width="602.55212"
         height="180.88541"
         x="0"
         y="-0.84375" />
    </clipPath>
    <clipPath
       clipPathUnits="userSpaceOnUse"
       id="clipPath3764">
      <rect
         style="fill:#0000ff;fill-rule:evenodd;stroke:#000000;stroke-width:0.80000001px;stroke-linecap:butt;stroke-linejoin:miter;stroke-opacity:1"
         id="rect3766"
         width="602.55212"
         height="180.88541"
         x="0"
         y="-0.84375" />
    </clipPath>
    <clipPath
       clipPathUnits="userSpaceOnUse"
       id="clipPath3768">
      <rect
         style="fill:#0000ff;fill-rule:evenodd;stroke:#000000;stroke-width:0.80000001px;stroke-linecap:butt;stroke-linejoin:miter;stroke-opacity:1"
         id="rect3770"
         width="602.55212"
         height="180.88541"
         x="0"
         y="-0.84375" />
    </clipPath>
    <clipPath
       clipPathUnits="userSpaceOnUse"
       id="clipPath3772">
      <rect
         style="fill:#0000ff;fill-rule:evenodd;stroke:#000000;stroke-width:0.80000001px;stroke-linecap:butt;stroke-linejoin:miter;stroke-opacity:1"
         id="rect3774"
         width="602.55212"
         height="180.88541"
         x="0"
         y="-0.84375" />
    </clipPath>
    <clipPath
       clipPathUnits="userSpaceOnUse"
       id="clipPath4546">
      <rect
         style="fill:#0000ff;fill-rule:evenodd;stroke:#000000;stroke-width:0.80000001px;stroke-linecap:butt;stroke-linejoin:miter;stroke-opacity:1"
         id="rect4548"
         width="599.72229"
         height="178.22859"
         x="0.40474859"
         y="0.40480644"
         ry="0" />
    </clipPath>
    <clipPath
       clipPathUnits="userSpaceOnUse"
       id="clipPath4550">
      <rect
         style="fill:#0000ff;fill-rule:evenodd;stroke:#000000;stroke-width:0.80000001px;stroke-linecap:butt;stroke-linejoin:miter;stroke-opacity:1"
         id="rect4552"
         width="599.72229"
         height="178.22859"
         x="0.40474859"
         y="0.40480644"
         ry="0" />
    </clipPath>
    <clipPath
       clipPathUnits="userSpaceOnUse"
       id="clipPath4554">
      <rect
         style="fill:#0000ff;fill-rule:evenodd;stroke:#000000;stroke-width:0.80000001px;stroke-linecap:butt;stroke-linejoin:miter;stroke-opacity:1"
         id="rect4556"
         width="599.72229"
         height="178.22859"
         x="0.40474859"
         y="0.40480644"
         ry="0" />
    </clipPath>
    <clipPath
       clipPathUnits="userSpaceOnUse"
       id="clipPath4558">
      <rect
         style="fill:#0000ff;fill-rule:evenodd;stroke:#000000;stroke-width:0.80000001px;stroke-linecap:butt;stroke-linejoin:miter;stroke-opacity:1"
         id="rect4560"
         width="599.72229"
         height="178.22859"
         x="0.40474859"
         y="0.40480644"
         ry="0" />
    </clipPath>
    <clipPath
       clipPathUnits="userSpaceOnUse"
       id="clipPath4562">
      <rect
         style="fill:#0000ff;fill-rule:evenodd;stroke:#000000;stroke-width:0.80000001px;stroke-linecap:butt;stroke-linejoin:miter;stroke-opacity:1"
         id="rect4564"
         width="599.72229"
         height="178.22859"
         x="0.40474859"
         y="0.40480644"
         ry="0" />
    </clipPath>
    <clipPath
       clipPathUnits="userSpaceOnUse"
       id="clipPath4566">
      <rect
         style="fill:#0000ff;fill-rule:evenodd;stroke:#000000;stroke-width:0.80000001px;stroke-linecap:butt;stroke-linejoin:miter;stroke-opacity:1"
         id="rect4568"
         width="599.72229"
         height="178.22859"
         x="0.40474859"
         y="0.40480644"
         ry="0" />
    </clipPath>
    <clipPath
       clipPathUnits="userSpaceOnUse"
       id="clipPath4570">
      <rect
         style="fill:#0000ff;fill-rule:evenodd;stroke:#000000;stroke-width:0.80000001px;stroke-linecap:butt;stroke-linejoin:miter;stroke-opacity:1"
         id="rect4572"
         width="599.72229"
         height="178.22859"
         x="0.40474859"
         y="0.40480644"
         ry="0" />
    </clipPath>
    <clipPath
       clipPathUnits="userSpaceOnUse"
       id="clipPath4574">
      <rect
         style="fill:#0000ff;fill-rule:evenodd;stroke:#000000;stroke-width:0.80000001px;stroke-linecap:butt;stroke-linejoin:miter;stroke-opacity:1"
         id="rect4576"
         width="599.72229"
         height="178.22859"
         x="0.40474859"
         y="0.40480644"
         ry="0" />
    </clipPath>
    <clipPath
       clipPathUnits="userSpaceOnUse"
       id="clipPath4578">
      <rect
         style="fill:#0000ff;fill-rule:evenodd;stroke:#000000;stroke-width:0.80000001px;stroke-linecap:butt;stroke-linejoin:miter;stroke-opacity:1"
         id="rect4580"
         width="599.72229"
         height="178.22859"
         x="0.40474859"
         y="0.40480644"
         ry="0" />
    </clipPath>
    <clipPath
       clipPathUnits="userSpaceOnUse"
       id="clipPath4582">
      <rect
         style="fill:#0000ff;fill-rule:evenodd;stroke:#000000;stroke-width:0.80000001px;stroke-linecap:butt;stroke-linejoin:miter;stroke-opacity:1"
         id="rect4584"
         width="599.72229"
         height="178.22859"
         x="0.40474859"
         y="0.40480644"
         ry="0" />
    </clipPath>
    <clipPath
       clipPathUnits="userSpaceOnUse"
       id="clipPath4586">
      <rect
         style="fill:#0000ff;fill-rule:evenodd;stroke:#000000;stroke-width:0.80000001px;stroke-linecap:butt;stroke-linejoin:miter;stroke-opacity:1"
         id="rect4588"
         width="599.72229"
         height="178.22859"
         x="0.40474859"
         y="0.40480644"
         ry="0" />
    </clipPath>
    <clipPath
       clipPathUnits="userSpaceOnUse"
       id="clipPath4590">
      <rect
         style="fill:#0000ff;fill-rule:evenodd;stroke:#000000;stroke-width:0.80000001px;stroke-linecap:butt;stroke-linejoin:miter;stroke-opacity:1"
         id="rect4592"
         width="599.72229"
         height="178.22859"
         x="0.40474859"
         y="0.40480644"
         ry="0" />
    </clipPath>
    <clipPath
       clipPathUnits="userSpaceOnUse"
       id="clipPath4594">
      <rect
         style="fill:#0000ff;fill-rule:evenodd;stroke:#000000;stroke-width:0.80000001px;stroke-linecap:butt;stroke-linejoin:miter;stroke-opacity:1"
         id="rect4596"
         width="599.72229"
         height="178.22859"
         x="0.40474859"
         y="0.40480644"
         ry="0" />
    </clipPath>
  </defs>
  <sodipodi:namedview
     pagecolor="#ffffff"
     bordercolor="#666666"
     borderopacity="1"
     objecttolerance="10"
     gridtolerance="10"
     guidetolerance="10"
     inkscape:pageopacity="0"
     inkscape:pageshadow="2"
     inkscape:window-width="1109"
     inkscape:window-height="809"
     id="namedview3153"
     showgrid="false"
     inkscape:zoom="1.3356522"
     inkscape:cx="371.42738"
     inkscape:cy="141.72526"
     inkscape:window-x="114"
     inkscape:window-y="0"
     inkscape:window-maximized="0"
     inkscape:current-layer="svg3091"
     fit-margin-top="0"
     fit-margin-left="0"
     fit-margin-right="0"
     fit-margin-bottom="0" />
  <rect
     style="fill:#ff4700;fill-opacity:1;fill-rule:evenodd;stroke:#ffffff;stroke-width:0.23200000000000001;stroke-linecap:butt;stroke-linejoin:miter;stroke-opacity:0;stroke-miterlimit:0;stroke-dasharray:none"
     id="rect3016"
     width="599.36652"
     height="178.04451"
     x="0.38557452"
     y="0.40411627"
     clip-path="url(#clipPath4594)" />
  <path
     style="fill:#000000"
     d="m 319.9984,6.7137817 c 10.20885,0.25028 24.05734,0.10086 31.15729,0.15626 1.07994,0.28238 2.45424,0.9073 2.53135,4.0095703 0.52375,4.87028 0.24766,2.9225 0.68239,12.97479 -0.71849,5.72906 4.17983,-6.54708 5.71329,-11.06701 1.11894,-3.2981103 3.18645,-4.5531903 4.38873,-4.7825403 4.64848,-0.88674 9.86992,-0.76727 13.77502,-0.79253 7.10567,0.16022 17.63285,0.025 24.57048,0.15815 3.29017,2.00254 0.87795,1.35937 2.39433,4.8471903 -0.25773,21.08386 0.0947,109.554938 -0.27681,120.039938 -1.77882,2.31738 -0.2847,4.73702 -2.66801,4.79763 -11.21925,0.28533 -6.88402,0.21451 -18.24796,0.72693 -8.63183,0.21535 -12.97555,0.45712 -15.61674,-0.0231 -2.20627,-0.40118 -3.70909,-1.02997 -6.19106,-3.5037 -2.65906,-3.36569 -9.54809,-17.70267 -8.3539,-6.39308 0.6343,5.22099 0.67476,9.15991 -1.42525,9.73075 -3.8116,1.0361 -10.33615,0.71809 -19.16097,0.89514 -7.36238,-0.29522 -6.67049,0.35119 -15.81352,0.45243 -2.18943,0.0242 -2.46416,-25.69811 -0.60443,-26.87513 6.56743,-4.15651 -12.61449,24.62809 -15.57353,24.65079 -12.33132,0.0947 -32.76135,1.78018 -40.05404,0.7238 -2.46629,-0.35725 -3.72091,-2.4626 -4.14317,-4.34958 -0.91595,-17.22269 -0.7737,3.27081 -0.25077,-123.2592993 1.22724,-1.05126 2.08174,-1.80078 3.32276,-2.03595 4.91527,-0.93145 14.4771,-0.45179 21.30013,-0.61925 13.09347,0.77173 14.64883,-2.03872 20.80916,5.9904403 3.62169,3.49981 12.44141,12.84561 12.51148,11.26064 0.0305,-3.41873 0.0803,-12.16549 0.0365,-15.5840203 1.68057,-2.93729 3.72699,-1.84998 5.18729,-2.12932 z"
     id="path3095"
     inkscape:connector-curvature="0"
     sodipodi:nodetypes="ccccssccccscsccscssssccscccccc"
     clip-path="url(#clipPath4590)" />
  <path
     d="m 126.67813,10.845212 c -0.15,-1.7600003 1.48,-3.5300003 3.3,-3.2400003 10.86,-0.13 21.72,0.08 32.57,-0.08 3.79,4.4100003 1.17,10.5200003 2.09,15.7500003 4.28,-4.65 6.66,-10.64 10.38,-15.7200003 13.65,-0.28 27.31,-0.04 40.96,-0.12 0.79,0.84 1.59,1.69 2.4,2.54 -0.05,41.0200003 0.04,82.0399973 -0.05,123.0499983 0.27,2.09 -1.65,3.24 -2.92,4.5 -12.15,-0.56 -24.33,-0.03 -36.49,-0.26 -1.88,-0.16 -2.88,-2.03 -3.9,-3.37 -2.25783,-2.03131 -6.42,-9.18 -10.38,-13.13 -0.23,4.87 -0.2,9.75 0.06,14.61 -1.09,1 -2.18,1.99 -3.28,2.98 -10.8,-0.13 -21.61,-0.07 -32.41,-0.03 -0.89,-1.33 -2.49,-2.44 -2.33,-4.21 -0.16,-6 0.1,-12.01 -0.07,-18.01 -5.86,6.51 -9.55,14.72 -15.64,20.98 -12.680006,0.68 -25.530006,-0.26 -38.250006,0.44 -1.05,-0.99 -2.08,-1.99 -3.08,-3.02 0.36,-41.470001 0.05,-82.949998 0.15,-124.419998 0.71,-0.8900003 1.42,-1.7700003 2.13,-2.6600003 14.49,0 28.969996,0.05 43.460006,-0.02 3.82,4.9300003 6.42,10.8800003 11.17,15.0400003 0.22,-3.86 -0.03,-7.73 0.13,-11.6 z"
     id="path3097"
     inkscape:connector-curvature="0"
     style="fill:#000000"
     sodipodi:nodetypes="ccccccccccccccccccccccccc"
     clip-path="url(#clipPath4586)" />
  <path
     d="m 77.029998,11.67625 c 9.36,-0.27 18.74,0.02 28.110002,-0.15 1.57,-0.32 2.75,0.74 3.88,1.64 0.22,0.26 0.67,0.79 0.89,1.05 23.2089,22.552772 47.38372,58.481303 60.13,72.5 0.96013,0.45113 6.04657,0.683879 10.36,0.74 2.33,-1.36 5.27,-2.86 5.54,-5.9 0.39433,-25.419252 0.5021,-30.324597 0.21396,-41.455799 L 186.46,17.65625 c -0.08,-2.18 -0.54,-6.1 2.72,-6.1 8.06,-0.01 14.54978,0.09 22.60978,-0.04 1.2991,-0.0073 2.44294,0.218269 2.7161,0.861445 0.34021,0.801027 0.37278,2.647836 0.23412,3.568555 -0.12,38.83 0.16,77.65 -0.15,116.48 -10.77,0.49 -21.62,0.48 -32.39,0.01 -7.96847,-9.89563 -16.89626,-20.21303 -24.82,-29.95 -1.48,-1.8 -2.99,-3.56 -4.47,-5.36 -8.83,-11.05 -16.5058,-19.767588 -25.4358,-30.747588 -2.50732,-2.779553 -5.73465,-5.885536 -8.63331,-8.632412 -2.79535,-1.933751 -9.89964,-1.162093 -11.45357,0.904017 -1.65952,0.720207 -1.98954,1.989727 -2.48821,3.543305 -0.21,23.1 -0.20911,46.692678 -0.35911,69.802678 -13.474091,-0.13313 -14.788981,-0.35144 -28.830001,0.05 -1.41264,-12.13882 -1.27414,-28.15484 -0.07,-50.03 -0.14,-22.68 -0.04,-45.37 -0.05,-68.06 0.36,-0.57 1.08,-1.71 1.44,-2.28 z"
     id="path3103"
     inkscape:connector-curvature="0"
     style="fill:#ffffff"
     sodipodi:nodetypes="cccccccccccscccccccccccccc"
     clip-path="url(#clipPath4582)" />
  <path
     d="m 441.3,6.84625 c 13.83,0.15 27.46261,-0.1426095 41.28261,0.4973905 1.78173,3.2786865 1.93434,2.3321715 2.11434,2.8821715 2.73044,4.411734 3.30305,6.840438 6.52305,10.080438 0.19,-3.67 0.14,-7.35 0.08,-11.03 0.71,-0.79 1.41,-1.59 2.12,-2.39 11.14,-0.08 22.29,-0.08 33.43,-0.03 1.68,-0.29 2.56,1.28 3.65,2.24 -0.34,5.38 -0.11,10.76 -0.23,16.14 0.43,-0.04 1.28,-0.12 1.71,-0.16 2.43,-5.47 6.23,-10.15 9.13,-15.36 0.81,-1.31 1.75,-3.11 3.6,-2.84 13.54,-0.09 27.08,-0.04 40.62,-0.02 0.61,0.77 1.24,1.54 1.86,2.3 -0.03,41.81 -0.02,83.62 0,125.42 -0.75,0.73 -1.5,1.46 -2.23,2.19 -12.85,-0.03 -26.8314,-0.4602 -39.6614,-0.0102 -2.3904,-1.8698 -5.85612,-8.35477 -7.9732,-11.2456 -3.69479,-5.63 -3.9454,-5.3042 -6.9054,-10.8642 -0.31,7.33 0.17,14.67 -0.29,21.99 -0.9286,1.1406 -0.946,0.8696 -2.6354,1.09 -9.38,-0.06 -22.4546,-0.05 -31.8346,0.01 -1.89,0.26 -3.39,-1.3 -4.16,-2.83 -0.52,-5.21 0.01,-10.48 -0.11,-15.71 -3.0198,3.3728 -4.4708,5.7012 -6.2506,8.2214 -3.2404,5.102 -5.8812,7.9102 -8.0994,9.4786 -11.81,-0.36 -23.63,-0.27 -35.44,-0.05 -0.82,-0.76 -1.62,-1.52 -2.43,-2.28 0,-41.83 0.03,-83.66 -0.01,-125.49 0.71,-0.74 1.42,-1.49 2.14,-2.23 z"
     id="path3099"
     inkscape:connector-curvature="0"
     style="fill:#000000"
     sodipodi:nodetypes="cccccccccccccccccccccccccccccc"
     clip-path="url(#clipPath4578)" />
  <path
     style="fill:#ffffff"
     d="m 456.22,10.961206 c 7.67896,0.01763 16.99623,-0.135064 23.05,-0.05496 1.49485,2.472481 4.76898,6.944178 7.1233,10.410846 7.11141,11.600106 11.99779,18.439909 19.85211,29.553085 2.34596,3.277481 10.19688,3.824088 13.14739,0.453854 10.39687,-12.353172 17.22099,-27.140644 26.2772,-40.417781 2.56778,0.0037 17.2595,-0.172499 24.4277,0.120153 0.29331,0.547753 0.33163,0.08449 -1.03675,2.784113 -2.38214,5.69374 -18.92155,30.350505 -27.89156,42.826047 -2.26519,3.481072 -5.01533,6.039243 -6.96939,9.469687 -1.07106,5.646083 1.47375,8.928444 4.81534,13.177781 7.41995,10.542392 15.91708,20.283939 22.81489,31.203189 4.38841,6.72785 9.22075,11.81546 12.48727,18.60278 -0.34996,1.33175 -1.34709,2.56486 -2.95069,2.70362 -7.46809,0.64624 -18.02412,0.0738 -22.20707,0.12899 -2.78949,0.29788 -2.72178,-0.49747 -3.99884,-2.28729 -3.50956,-5.06684 -17.04972,-25.7869 -24.1309,-37.58907 -4.2006,-5.499114 -12.54388,-6.254516 -16.59482,-0.578843 -2.80355,3.823682 -5.98948,7.994483 -8.62479,11.850463 -5.43556,8.01674 -17.02558,24.01568 -18.59119,27.52236 -2.06201,1.5143 -1.5257,1.59335 -4.95763,1.44998 -5.17887,0.0724 -17.37002,0.24257 -20.95157,-0.28396 -0.63374,-1.53379 -0.72985,-2.97518 -0.45942,-4.35043 1.02228,-5.19871 7.28242,-9.45242 9.53937,-14.18049 10.84896,-13.32382 20.72792,-27.405781 30.81005,-41.29908 1.25267,-5.416873 -1.97586,-8.946365 -5.457,-13.20139 -5.92299,-6.866917 -22.9797,-32.57288 -29.80724,-43.209713 -1.96458,-3.283451 -1.34127,-3.859243 0.28424,-4.803941 z"
     id="path3101"
     inkscape:connector-curvature="0"
     sodipodi:nodetypes="cccccccccccccsccccccccsccccc"
     clip-path="url(#clipPath4574)" />
  <path
     d="m 320.25298,11.789226 c 8.5,-0.24 17.03702,-0.07298 25.53702,-0.08298 1.59,-0.17 3.86,0.59 3.52,2.6 -0.04,39.05 0.15,78.11 -0.1,117.160004 -0.57,0.34 -1.69,1.03 -2.26,1.37 -8.46,-0.01 -16.93,0 -25.4,0 -0.56,-0.34 -1.69,-1.01 -2.25,-1.35 -0.22,-39.530004 -0.17,-79.080004 -0.03,-118.620004 0.17859,-1.286397 0.064,-0.859629 0.98298,-1.077024 z"
     id="path3105"
     inkscape:connector-curvature="0"
     style="fill:#ffffff"
     sodipodi:nodetypes="ccccccccc"
     clip-path="url(#clipPath4570)" />
  <path
     d="m 181.92,55.22625 c 1.18,5.65 0.24,11.48 0.56,17.2 -0.3,2.97 0.91,6.68 -1.55,8.98 -2.53,-3.3 -4.66,-6.92 -7.67,-9.82 0.11,-1.6 -0.49,-3.54 0.89,-4.75 3,-3.58 5.45,-7.57 7.77,-11.61 z"
     id="path3109"
     inkscape:connector-curvature="0"
     style="fill:#ff4700;fill-opacity:1"
     clip-path="url(#clipPath4566)" />
  <path
     d="m 361.76,66.32625 c 2.82,-3.27 4.92,-7.06 7.41,-10.57 -0.06,8.6 0.22,17.2 -0.13,25.78 -3.82,-3.01 -5.84,-7.58 -9.15,-11.06 0.44,-1.45 0.77,-3.01 1.87,-4.15 z"
     id="path3111"
     inkscape:connector-curvature="0"
     style="fill:#ff4700;fill-opacity:1"
     clip-path="url(#clipPath4562)" />
  <path
     d="m 296.12,65.51625 c -0.07,-3.16 3.69,-3.71 5.9,-4.8 2.67,2.18 4.45,5.15 6.16,8.09 -3.62,5.9 -7.97,11.33 -12.02,16.94 -0.17,-6.74 -0.23,-13.49 -0.04,-20.23 z"
     id="path3115"
     inkscape:connector-curvature="0"
     style="fill:#ff4700;fill-opacity:1"
     clip-path="url(#clipPath4558)" />
  <path
     id="path3010"
     d="m 540.93109,66.32625 c 2.82,-3.27 4.92,-7.06 7.41,-10.57 -0.06,8.6 0.22,17.2 -0.13,25.78 -3.82,-3.01 -5.84,-7.58 -9.15,-11.06 0.44,-1.45 0.77,-3.01 1.87,-4.15 z"
     inkscape:connector-curvature="0"
     style="fill:#ff4700;fill-opacity:1"
     clip-path="url(#clipPath4554)" />
  <path
     id="path3014"
     d="m 474.01586,65.51625 c -0.07,-3.16 3.69,-3.71 5.9,-4.8 2.67,2.18 4.45,5.15 6.16,8.09 -3.62,5.9 -7.97,11.33 -12.02,16.94 -0.17,-6.74 -0.23,-13.49 -0.04,-20.23 z"
     inkscape:connector-curvature="0"
     style="fill:#ff4700;fill-opacity:1"
     clip-path="url(#clipPath4550)" />
  <path
     d="m 5.9964102,72.143243 c 1.05,-1.47 4.6812588,-2.411748 5.8212588,-3.811748 1.01,0 3.03,0 4.04,0 5.25,3.7 6.57,11.59 3.52,17.09 -1.981008,7.903632 -11.6175549,13.512329 -15.2163489,15.638965 -3.86030025,2.28117 1.6544257,23.83932 -7.4374629,25.78258 L -10.818132,112.8387 -4.8645772,94.988878 c 5.16000006,-2.39 12.729239,-5.569131 14.159239,-11.149131 1.7700002,-3.56 -0.6482517,-9.016504 -3.2982516,-11.696504 z"
     id="path3121"
     inkscape:connector-curvature="0"
     style="fill:#dbdbdb"
     sodipodi:nodetypes="ccccsccccc" />
  <path
     d="m 73.427119,85.042495 c 2.1,-1.03 6.334795,-2.687918 8.654795,-3.057918 -0.17,1.47 -2.881914,6.211673 -3.091914,7.681673 -0.64,2.64 -1.07,5.33 -1.66,7.99 -1.9,-0.66 -3.8,-1.33 -5.69,-2.04 -2.97,-0.92 -6.1,-0.73 -9.16,-0.73 -0.15,-0.65 -3.429407,-1.784741 -3.569407,-2.434741 1.7,-1.53 6.817026,-3.892271 9.341506,-5.247308 1.63,-0.81 3.46502,-1.521706 5.17502,-2.161706 z"
     id="path3123"
     inkscape:connector-curvature="0"
     style="fill:#dbdbdb"
     sodipodi:nodetypes="ccccccccc" />
  <path
     d="m -0.25,105.51349 c 0.84,0.67 1.7,3.37276 2.57,4.01276 -0.86,0.51 -1.73,1.02 -2.57,1.57 z"
     id="path3127"
     inkscape:connector-curvature="0"
     style="fill:#dbdbdb"
     sodipodi:nodetypes="cccc" />
  <path
     d="m -0.35578249,115.45084 c 1.29999999,1.04 4.38830229,4.523 5.66830229,5.583 -0.16,0.54 -2.1925198,0.91241 -2.3525198,1.45241 -1.07,0.12 -2.14,0.25 -3.21,0.38 z"
     id="path3131"
     inkscape:connector-curvature="0"
     style="fill:#dbdbdb"
     sodipodi:nodetypes="ccccc" />
  <path
     d="m 44.137825,97.900706 c 0.5,1.39 0.679485,0.965857 1.159485,2.355854 0.65,-0.06 0.675305,-2.447212 1.325305,-2.497212 1.07,-1.08711 3.347385,-0.09164 5.377385,-0.131639 0.32,-0.5 1.38313,-0.25061 1.70313,-0.75061 6.833147,0.583427 10.912997,-1.352997 15.152997,-1.152997 5.6,1.63 12.256426,7.446658 14.278807,8.579628 2.535524,1.77816 3.375066,5.27252 5.395066,7.25252 2.9,3.62 4.884121,10.16061 4.934121,14.80061 1.11289,4.20657 4.317096,10.23659 5.107096,12.84659 -0.333859,6.20436 -7.873212,0.19264 -8.378751,0.32289 -3.586243,0.9238 -6.850384,-0.56829 -12.782466,1.11933 -0.39,-0.63 -1.804695,-1.72133 -2.194695,-2.35133 -1.004768,-0.78394 -1.101121,-0.37015 -2.046552,-0.72978 -0.564506,-0.21473 -2.518494,-0.23185 -3.502567,-0.10113 -2.275238,0.30224 -2.442868,0.19502 -3.634171,0.77274 -1.005217,1.12034 -0.261329,-0.38105 -0.274864,1.49188 0.125206,0.76905 -0.64531,3.74008 -0.25531,3.99008 -5.0146,-1.63773 -42.562394,1.58055 -27.456873,0.9832 l 11.895835,-0.86716 c 4.199109,-0.1011 6.763088,0.25503 12.703088,1.18503 -3.03,0.38 -14.515314,2.21646 -17.535314,2.69646 -1.672206,0.37868 -8.428723,2.49427 -5.593599,1.65175 1.473829,-0.43798 23.335369,-4.08469 23.92985,-3.87572 -0.98,0.08 -14.908071,5.54708 -15.796473,5.89134 -3.9,2.28 -5.263714,2.78776 -9.253714,4.90776 -3.934674,2.87225 -6.036453,6.54774 -9.646453,9.54774 -4.059129,3.27913 -6.858114,5.867 -10.916059,10.68494 1.22,-0.12 -0.07031,-0.62135 1.870414,-1.58882 3.387218,-4.2407 11.057044,-11.17917 15.767457,-14.7784 4.04,-3.57 8.98787,-5.7932 13.66787,-8.3432 5.16,-2.86 11.433728,-3.43372 16.58213,-5.6768 2.91,-0.07 5.586272,-0.94746 8.316272,-1.98746 1.12,-0.6 2.313728,-1.23254 3.653728,-1.31254 5.93,-0.43 11.88,-0.03 17.81,-0.13 -0.207598,2.34784 0.521054,4.8624 0.585657,7.21035 0.0661,2.40227 -0.525061,4.63771 -0.135657,7.01965 -2.427103,6.86585 -2.594012,7.29737 -4.04764,10.11888 -0.381422,0.74034 0.02048,-0.22758 -0.84236,4.15112 3.026573,-1.30105 3.13,-0.71 4.67,-1.12 1.52,2.83 3.983982,5.82425 5.86398,8.44425 l -3.07687,10.80024 c 0.53,-0.93 -10.560992,2.97375 -10.030992,2.04375 -3.75,0.9 -13.223766,-7.33961 -16.993766,-6.48961 -4.033087,3.15177 3.817648,-6.73863 2.987648,-6.47863 l -1.026152,10.28188 c -2.447215,-0.15218 -2.953298,9.28597 -11.437322,6.47943 -10.839258,-0.59393 -26.096704,-12.57837 -27.286704,-12.18837 -11.414492,1.80393 -14.898091,7.55727 -16.528807,7.63679 l -21.9854096,-1.92785 c -7.8163904,-3.37266 -8.6753324,-17.97309 -8.6753324,-25.35309 -2.774961,-10.32785 23.178339,-15.98043 36.328339,-16.58043 0,-0.28 13.409298,-2.81463 13.409298,-3.08463 -1.025619,0.24036 -0.641779,1.23254 -2.811779,1.13254 -6.9,0.98 -51.032226,21.47583 -49.118202,12.84873 -10.732199,-6.53753 4.533674,-2.28791 -0.57091,-12.85442 l 7.9041917,-15.84058 c 0.61,-0.08 13.8262785,-0.53754 10.2692667,-2.22408 -0.17,4.6 -0.2516267,6.23796 0.5183732,10.79796 1.09,-2.98 1.7452432,-4.94958 2.7352432,-7.95958 1.55,0.18 3.9810782,4.00546 4.4610782,5.72546 1.42,3.51 3.544828,3.71386 5.374828,6.95386 2.7,0.21 1.906578,0.90752 3.296578,-1.06248 -1.9,-1.03 -2.204164,-1.89199 -4.124164,-2.88199 -1.37,-2.02 -5.5640235,-4.03801 -7.1740235,-5.84801 -0.69,-4.43 -0.3818124,-11.67752 -1.5418124,-16.01752 2.48,0.67 9.0427499,2.21115 11.4327499,3.15115 -0.78,5.57 1.230672,9.2987 4.630672,13.1687 1.91,-1.34 3.98,-0.46347 6.18,-1.27347 -0.35,-1.75 -1.359151,-2.95241 -2.419151,-4.45241 -3.8,-5.25 -8.577109,-7.66833 -14.009284,-11.49687 -1.19,-0.43 -5.7750396,-1.84494 -6.9650396,-2.25494 2.8528912,-0.6618 9.6205606,-3.0394 12.4305606,-3.0594 0.41,-0.26 1.133391,0.0766 1.553391,-0.18336 3.639448,-2.81126 4.531885,-1.93664 7.071885,-1.76664 3.96,2.19 5.503465,5.17 9.723465,6.92 0.78,-0.33 1.775276,0.97653 2.545276,0.64653 -3.07,-3.96 -5.231103,-6.01291 -10.281103,-6.55291 -0.03,-0.62 -2.228541,-1.07133 -2.258541,-1.69133 3.71,-1.32 7.161326,-4.39806 11.041326,-5.19806 -0.07,-0.86 1.714079,-2.15688 1.644079,-3.016881 1.572671,0.322351 4.145822,-1.242752 5.320961,-1.479273 z"
     id="path3125"
     inkscape:connector-curvature="0"
     style="fill:#dbdbdb"
     sodipodi:nodetypes="ccccccccccsccsscccccccsccccccccccccscscccccccccccccccccccccccccccccccccccccccccccc" />
  <path
     d="m 83.29,139.37625 c 4.1,-1.34 8.412894,-2.86071 12.552892,-4.12071 0.04,1.73 -0.522892,2.72071 -0.552892,4.45071 -4.05,0.22 -8.3,-0.22 -12.14,1.34 0.03,-0.42 0.11,-1.25 0.14,-1.67 z"
     id="path3137"
     inkscape:connector-curvature="0"
     style="fill:#dbdbdb"
     sodipodi:nodetypes="ccccc" />
  <path
     id="path3012"
     d="m 109.93509,65.51625 c -0.07,-3.16 3.69,-3.71 5.9,-4.8 2.67,2.18 4.45,5.15 6.16,8.09 -3.62,5.9 -7.97,11.33 -12.02,16.94 -0.17,-6.74 -0.23,-13.49 -0.04,-20.23 z"
     inkscape:connector-curvature="0"
     style="fill:#ff4700;fill-opacity:1" />
  <g
     id="g3511"
     transform="matrix(1.0365488,0,0,1.0365488,-20.62593,243.98904)">
    <path
       style="fill:#000000"
       inkscape:connector-curvature="0"
       id="path3071"
       d="m 60.372888,-147.36968 c 2.858661,1.68806 5.132017,4.50855 5.679149,7.83375 -0.559856,1.11123 -1.815292,1.5693 -2.845936,2.12491 -1.056093,-3.02407 -2.438769,-5.90394 -4.020787,-8.68625 0.394444,-0.42414 0.79313,-0.84827 1.187574,-1.27241 z" />
    <path
       style="fill:#000000"
       inkscape:connector-curvature="0"
       id="path3081"
       d="m 97.060446,-72.391337 c 2.659318,-1.106989 3.490624,-4.19044 5.263494,-6.243247 0.29266,0.19086 0.86948,0.581063 1.15789,0.776164 -1.70502,3.147072 -3.23614,7.227237 -7.040619,8.240917 -3.961408,1.128195 -8.563258,1.607466 -12.151428,-0.810096 -1.594742,-0.470788 -1.145161,-2.358182 -0.385962,-3.325207 4.406749,0.05514 8.703222,2.714455 13.156625,1.361469 z" />
    <path
       style="fill:#000000"
       inkscape:connector-curvature="0"
       id="path3073"
       d="m 91.224369,-123.60547 c 3.074969,-0.5853 5.742769,2.23518 6.501969,4.95388 0.156929,2.92652 -0.01697,5.87001 -0.453823,8.7626 -0.648925,2.25639 -3.291277,3.44397 -5.276223,2.09946 -2.79504,-3.70693 -3.202209,-8.58446 -3.469413,-13.05483 -0.02969,-1.48023 1.348745,-2.53207 2.69749,-2.76111 z" />
    <path
       style="fill:#000000"
       inkscape:connector-curvature="0"
       id="path3075"
       d="m 70.017688,-120.25057 c 1.908601,-0.1739 4.835123,-0.85675 5.971801,1.25543 1.259677,3.94444 2.57025,7.9822 2.689008,12.16415 0.05938,1.92981 -2.141875,3.44821 -3.982615,2.67629 -1.925567,-0.3181 -4.372818,-0.70406 -5.170189,-2.76111 -1.04761,-2.76111 -1.433572,-5.73005 -1.955256,-8.62264 -0.79313,-1.96798 0.521684,-4.17771 2.447251,-4.71212 z" />
    <path
       inkscape:connector-curvature="0"
       id="path3061"
       d="m 32.839222,-172.37829 c -2.551364,0.0445 -5.29942,0.56876 -6.575,2.875 -0.928852,1.51416 -1.951553,3.11395 -2.1,4.925 0.784648,2.26063 3.017173,3.93108 3.225,6.425 -0.0042,3.40579 -1.269028,6.8945 -3.975,9.1 -3.647549,3.13435 -8.171866,5.0094 -11.9,8.025 -5.0217426,6.08207 -4.2820188,14.68124 -2.7000004,21.9 0.3605136,2.52359 2.1152934,4.44074 3.8500004,6.15 -2.8544197,1.60746 -6.3731194,4.57413 -7.9000004,7.7 -1.8449812,4.27526 -3.6997908,10.896802 -3.475,15.574997 0.1951015,4.809675 0.8088416,6.226048 2.2,10.9 0.9118872,4.813916 4.3787652,8.771715 8.4250004,11.325 0.326582,0.475029 0.828375,1.018936 0.4,1.6 -1.747431,3.248864 -2.8933692,7.152451 -1.85,10.8 1.043368,3.17676 4.454511,4.08856 7.275,4.975 6.103283,1.39964 12.482648,1.16365 18.675,0.625 4.092888,-0.339308 8.528047,-2.442595 9.775,-6.65 4.050476,0.441099 8.124524,0.700419 12.175,1.15 0.593787,1.976463 0.775328,4.448357 2.65,5.725 3.388827,2.175804 7.489488,2.824073 11.4,3.35 8.211227,0.326583 16.697736,0.147968 24.4,-3.05 4.313438,-0.152688 8.712908,1.42042 12.949998,0.025 2.15884,-0.797372 4.23447,-1.78208 6.3,-2.8 4.24558,-3.287036 4.07252,-9.385636 4.45,-14.225 -1.22573,-3.583929 -4.56365,-5.909469 -7.575,-7.975 -0.38596,1.217263 -1.09644,2.493668 -0.825,3.8 1.14516,2.875625 3.40018,5.266996 4.1,8.325 0.0127,1.921324 -0.0859,4.003914 -1.125,5.675 -1.13243,0.797371 -2.62291,0.81828 -3.925,1.2 -0.80162,1.403883 -1.52533,3.284588 -3.4,3.45 -3.32945,0.419892 -6.89626,-0.625092 -9.474998,-2.75 -1.128192,-1.628673 -2.13136,-3.373596 -3.9,-4.4 4.555192,-0.733752 9.392988,-2.854393 10.974998,-7.575 -6.175382,2.481181 -12.846686,3.43656 -19.424998,4.2 -4.304956,0.648924 -8.771388,-0.103644 -13,1.05 2.761109,1.688052 5.866308,3.154928 9.2,2.875 3.244622,0.326583 7.406992,-0.632764 9.85,2.175 -0.301136,2.837454 -3.8026,3.401196 -5.075,5.7 -4.953881,0.653165 -9.953706,1.142443 -14.95,0.625 -2.328493,-0.0042 -5.140562,-0.721058 -6.15,-3.075 -1.123954,-4.169233 -1.600151,-8.543939 -2.775,-12.675 -4.211648,-1.034887 -4.517413,4.069027 -4.475,6.775 -2.320012,-0.31386 -4.671507,-0.560515 -7,-0.2 -4.228612,0.530167 -7.61852,-2.30236 -11.3,-3.825 -0.50896,2.95197 1.489007,6.57061 -1.2,8.95 -7.9313,2.828971 -16.70777,1.58387 -24.55,-1.05 -0.173895,-3.091934 0.286023,-6.404541 2.5,-8.75 1.408124,-2.175805 4.7885,-4.310755 3.075,-7.25 -1.463261,-1.993428 -3.708185,-0.302987 -4.9,1.05 -1.518399,-1.700772 -3.132289,-3.328676 -4.375,-5.25 -1.3699521,-2.481182 -2.0193557,-4.745372 -3.0500004,-7.375 -2.8798674,-5.657943 -0.8746409,-12.527989 0.525,-18.274997 2.2139774,-5.94212 8.6543634,-8.59179 13.8500004,-11.425 -0.182377,3.74085 0.03411,7.45579 0.7,11.15 1.17485,-2.44725 2.274463,-4.92196 3.725,-7.225 2.167323,2.53208 3.151166,6.00657 5.925,8 1.696534,1.009435 2.321147,2.888289 3.25,4.499997 1.798326,-0.742235 3.36374,-1.893012 4.95,-3 -1.412365,-2.625387 -4.79588,-2.945167 -6.45,-5.349997 -1.887396,-2.27336 -4.201792,-4.66052 -4.1,-7.85 -0.390204,-3.48214 -0.71416,-7.12259 -2.75,-10.1 3.028313,0.67437 6.10006,1.48136 8.7,3.25 -1.484468,4.92843 2.693131,9.12076 5.45,12.675 1.946772,-1.04337 4.005676,-1.8187 6.05,-2.65 -0.373239,-1.81529 -0.495461,-3.82357 -1.7,-5.325 -2.366667,-2.96894 -4.888652,-5.83803 -7.9,-8.175 -2.977419,-2.22247 -6.700001,-3.05175 -10.25,-3.9 1.989187,-0.42839 4.001883,-0.79172 6.025,-1.025 3.660272,-0.36052 7.163831,-1.82345 10.875,-1.675 2.061288,0.35203 3.60257,1.9698 5.35,2.975 2.532077,1.50144 4.94358,3.25908 7.675,4.4 0.178136,-1.09003 0.89758,-2.30195 0.325,-3.375 -3.155555,-3.43972 -7.524048,-5.53008 -12.075,-6.425 3.868097,-2.16732 7.871596,-4.39304 12.325,-5.025 -0.640441,-3.72813 -2.845492,-8.24552 -7.125,-8.5 0.525926,1.89164 1.139487,3.76595 1.5,5.7 -3.592412,0.97975 -7.276166,2.16657 -10.05,4.775 -1.009439,0.7804 -1.69122,2.04572 -2.9,2.525 -4.47461,0.56834 -8.96646,0.86294 -13.475,1.075 -1.009438,-1.30633 -2.117802,-2.5796 -3,-3.975 0.216308,-1.11972 1.103734,-1.97408 2.075,-2.5 2.472699,-1.40813 5.013232,-2.68653 7.575,-3.925 5.102327,-2.57025 8.701703,-7.59899 10.025,-13.1 0.648924,-4.24557 -0.112636,-8.56694 -1.525,-12.575 -0.873716,-2.82049 -3.568372,-4.49122 -6.075,-5.7 -0.746476,-0.0435 -1.574545,-0.0899 -2.425,-0.075 z m -0.525,3.275 c 2.561079,-0.14982 5.333498,1.36012 5.975,3.95 0.856749,3.09192 1.639993,6.3893 1.025,9.6 -0.810096,2.2988 -1.755945,4.59295 -3.075,6.65 -3.214933,3.93596 -8.285694,5.46186 -12.175,8.575 -2.510872,1.43358 -3.72984,4.1264 -4.875,6.65 0.996714,1.35723 1.979182,2.7296 2.925,4.125 -1.590501,0.5132 -3.16374,1.00332 -4.75,1.525 0.199343,1.50568 0.271804,3.25484 1.4,4.4 1.891636,1.73895 3.849224,3.39519 5.55,5.325 -3.164037,1.19605 -7.12103,2.63945 -9.95,-0.075 -3.282795,-4.12258 -2.912813,-10.01153 -1.475,-14.8 0.780405,-2.5957 1.155856,-5.86777 3.9,-7.225 4.025028,-3.25734 9.651644,-5.1287 11.925,-10.125 1.743188,-2.99439 1.997132,-6.66588 1.45,-10.025 -0.576823,-2.04009 -3.179778,-4.10633 -1.725,-6.35 0.863642,-1.41555 2.338352,-2.11012 3.875,-2.2 z m 67.35,9.2 c -0.386272,0.0129 -0.775784,0.13836 -1.175,0.4 -6.306864,1.51416 -12.740744,3.37207 -18,7.325 -2.358184,1.6838 -3.511948,4.40632 -5.2,6.65 -1.01792,0.72527 -2.391668,0.72252 -3.575,1.1 -0.03817,1.67532 -0.0031,4.58777 2.775,3.625 7.502924,0.40292 15.557408,0.46244 22,4.725 4.998608,2.8679 9.326558,7.46498 11.324998,13.8 1.88316,4.75877 1.57691,9.99791 3.125,14.85 -5.52646,2.08673 -10.79809,4.78067 -16.349998,6.825 -0.856752,-0.99248 -0.452984,-0.85748 -1.875,-2.025 -1.23216,-0.6821 -2.653304,-1.32269 -3.625,-1.425 -1.368608,-0.14411 -3.25664,-0.1317 -4.725,0.6 -2.141876,1.31481 -1.792653,4.256121 -1.5,6.274997 -13.13966,-0.890681 -26.324856,0.374224 -39.35,2.075 -3.991097,0.402927 -8.134591,0.574672 -11.85,2.25 -5.632496,2.41332 -9.208844,4.377898 -14.15,8 -0.88644,0.610752 -3.133453,2.712664 -3.6,3.65 5.195636,-1.49295 8.976256,-5.79116 13.875,-7.95 9.534524,-4.992053 20.587072,-4.970908 31.025,-6.15 6.043904,-0.161171 12.101855,-1.126823 18.15,-0.55 -2.3497,0.924611 -4.885784,1.113141 -7.35,1.55 -5.568876,0.903404 -10.991401,2.496565 -16.45,3.875 -3.880824,0.962783 -7.206244,3.298567 -10.875,4.8 -5.284705,2.09522 -6.351257,3.187545 -11.25,6.025 l -3.1,3.475 c 4.673952,-1.717741 8.477391,-5.063055 13.075,-6.925 4.2583,-1.798328 8.123598,-4.553287 12.7,-5.55 8.525084,-2.154599 17.022674,-4.5845 25.675,-6.175 -1.437813,0.712544 -2.918429,1.372072 -4.475,1.775 -4.203164,0.882197 -8.252452,2.489368 -11.9,4.75 -3.664516,2.247908 -7.769895,3.925927 -10.9,6.95 -3.804479,3.694204 -7.793968,7.182349 -11.45,11.025 -1.764396,1.921325 -3.535006,4.029302 -4.15,6.625 2.400596,-0.750716 3.535395,-3.110604 5.075,-4.875 3.062244,-3.991097 7.191519,-6.946656 10.75,-10.45 3.770548,-3.80872 8.72784,-6.049165 13.3,-8.7 5.590081,-3.138589 12.072404,-4.00944 17.9,-6.55 3.779032,0.390201 7.232824,-1.548568 10.575,-3.05 5.861528,-0.793131 11.825308,-0.250896 17.724998,-0.2 -0.19934,3.516068 0.20397,6.790123 -0.15,10.6 -0.71756,3.26854 -0.49937,2.413446 -0.75,6.425 -1.70925,3.130106 -2.31981,4.20224 -3.325,7.625 -0.40717,1.259676 -0.0253,2.578047 0.225,3.825 1.56081,-0.415652 3.05911,-1.348568 3.725,-2.85 1.26392,-2.689008 2.17204,-5.525271 3.05,-8.35 0.93733,-5.730045 1.48793,-11.522852 1.7,-17.325 5.73143,0.786439 11.87731,1.291418 16.725,3.95 4.51577,2.47655 5.3335,2.487544 9.65,5.6 5.36994,2.438015 3.73971,1.846445 4.325,1.575 -2.812,-3.7451 -7.11045,-6.002778 -11.25,-7.975 -6.06935,-3.079211 -12.79155,-4.419565 -19.425,-5.674997 3.68572,-0.72103 8.179,-1.92904 11.975,-1.7 2.44301,-0.0339 2.11818,-0.0815 6.55,-0.7 -2.73451,-1.33026 -6.4708,-1.40936 -8.775,-1.05 -5.42121,0.26836 -5.03967,1.13303 -9.65,1.15 -0.23751,-1.31058 -0.54461,-3.25216 -0.85,-4.55 3.6063,-0.84441 6.80604,-1.32563 10.25,-2 8.19427,-1.83226 16.67807,-1.68973 25.025,-1.8 -0.004,-0.55138 -5.12871,-1.25826 -6.725,-1.65 -4.9676,0.0527 -5.03879,-0.19477 -8.05,0.075 -1.35429,0.12132 -4.44272,0.34474 -6.85,0.75 -4.66123,0.7592 -9.33073,1.83521 -13.975,2.675 -1.70925,-4.80968 -2.15521,-10.29256 -4.225,-14.975 -1.21725,-2.94773 -1.88312,-6.23578 -4.025,-8.7 -1.75573,-1.50716 -2.46568,-2.80636 -4.225,-4.525 -1.09243,-1.06717 -3.476094,-2.4096 -4.099998,-3.75 -0.05938,-5.37803 2.345908,-10.36285 3.524998,-15.55 0.49279,-1.62656 -0.87616,-3.60604 -2.549998,-3.55 z m -3.1,5.8 c -0.746472,4.06744 -2.315624,8.00152 -2.375,12.175 -4.788464,-1.96375 -9.889191,-2.62452 -15,-3.125 0.199343,-1.62868 0.789397,-3.29038 2.575,-3.6 4.979328,-1.68805 9.544984,-4.62295 14.8,-5.45 z m -26.85,4.65 c -0.555616,2.3709 -3.239516,5.5726 -3.125,8.075 0.250239,1.2936 1.703047,2.52082 2.95,1.575 2.15884,-1.8874 1.39826,-3.85007 1.075,-7.525 -0.748104,-2.11457 -0.292372,-1.44911 -0.9,-2.125 z m 21.375,57.824997 c -0.7308,0.02351 -1.482264,0.53048 -1.75,1.225 -1.162128,2.956212 -0.283064,7.03626 -3.375,9 -1.802568,1.883152 -4.636232,2.135064 -7.075,1.8 -3.024072,-0.924612 -5.876376,-2.266011 -8.875,-3.25 0.19086,1.327537 -0.200985,3.126075 1.275,3.775 3.766305,1.997668 8.184559,2.34286 12.375,2.275 3.159792,-0.03817 6.361416,0.686204 9.5,0.05 3.278552,-0.839784 4.775064,-4.241847 7.374998,-6.125 1.78984,-1.815292 5.07819,-3.420342 3.95,-6.525 -2.6678,-0.199344 -3.83136,2.916876 -5.599998,4.325 -1.13648,0.421456 -2.457504,1.132289 -3.525,0.8 -0.904016,-0.281404 -1.152568,-1.075029 -1.925,-2.675 -0.02121,-1.399641 -0.16132,-2.97984 -1.175,-4.125 -0.297424,-0.394444 -0.73652,-0.564116 -1.175,-0.55 z"
       style="fill:#000000" />
    <path
       style="fill:#dbdbdb;fill-opacity:1"
       inkscape:connector-curvature="0"
       id="path3077"
       d="m 104.24951,-102.60237 c 2.23943,-1.14516 4.50854,-2.26064 6.91338,-3.01983 0.12724,1.6626 0.14998,2.69517 0.25178,4.36201 -4.52975,0.16118 -8.87442,1.478306 -13.408404,1.495271 1.96798,-1.187571 4.194684,-1.815291 6.243244,-2.837451 z"
       sodipodi:nodetypes="ccccc" />
  </g>
</svg>
