<?xml version="1.0" encoding="UTF-8" standalone="no"?>
<svg
   xmlns:dc="http://purl.org/dc/elements/1.1/"
   xmlns:cc="http://creativecommons.org/ns#"
   xmlns:rdf="http://www.w3.org/1999/02/22-rdf-syntax-ns#"
   xmlns:svg="http://www.w3.org/2000/svg"
   xmlns="http://www.w3.org/2000/svg"
   xmlns:sodipodi="http://sodipodi.sourceforge.net/DTD/sodipodi-0.dtd"
   xmlns:inkscape="http://www.inkscape.org/namespaces/inkscape"
   width="672.87476"
   height="189.90887"
   viewBox="0 0 538.29981 151.92711"
   version="1.1"
   id="svg3091"
   inkscape:version="0.48.2 r9819"
   sodipodi:docname="nix_redsmall.svg">
  <metadata
     id="metadata3157">
    <rdf:RDF>
      <cc:Work
         rdf:about="">
        <dc:format>image/svg+xml</dc:format>
        <dc:type
           rdf:resource="http://purl.org/dc/dcmitype/StillImage" />
        <dc:title></dc:title>
      </cc:Work>
    </rdf:RDF>
  </metadata>
  <defs
     id="defs3155">
    <clipPath
       clipPathUnits="userSpaceOnUse"
       id="clipPath3724">
      <rect
         style="fill:#0000ff;fill-rule:evenodd;stroke:#000000;stroke-width:0.80000001px;stroke-linecap:butt;stroke-linejoin:miter;stroke-opacity:1"
         id="rect3726"
         width="602.55212"
         height="180.88541"
         x="0"
         y="-0.84375" />
    </clipPath>
    <clipPath
       clipPathUnits="userSpaceOnUse"
       id="clipPath3728">
      <rect
         style="fill:#0000ff;fill-rule:evenodd;stroke:#000000;stroke-width:0.80000001px;stroke-linecap:butt;stroke-linejoin:miter;stroke-opacity:1"
         id="rect3730"
         width="602.55212"
         height="180.88541"
         x="0"
         y="-0.84375" />
    </clipPath>
    <clipPath
       clipPathUnits="userSpaceOnUse"
       id="clipPath3732">
      <rect
         style="fill:#0000ff;fill-rule:evenodd;stroke:#000000;stroke-width:0.80000001px;stroke-linecap:butt;stroke-linejoin:miter;stroke-opacity:1"
         id="rect3734"
         width="602.55212"
         height="180.88541"
         x="0"
         y="-0.84375" />
    </clipPath>
    <clipPath
       clipPathUnits="userSpaceOnUse"
       id="clipPath3736">
      <rect
         style="fill:#0000ff;fill-rule:evenodd;stroke:#000000;stroke-width:0.80000001px;stroke-linecap:butt;stroke-linejoin:miter;stroke-opacity:1"
         id="rect3738"
         width="602.55212"
         height="180.88541"
         x="0"
         y="-0.84375" />
    </clipPath>
    <clipPath
       clipPathUnits="userSpaceOnUse"
       id="clipPath3740">
      <rect
         style="fill:#0000ff;fill-rule:evenodd;stroke:#000000;stroke-width:0.80000001px;stroke-linecap:butt;stroke-linejoin:miter;stroke-opacity:1"
         id="rect3742"
         width="602.55212"
         height="180.88541"
         x="0"
         y="-0.84375" />
    </clipPath>
    <clipPath
       clipPathUnits="userSpaceOnUse"
       id="clipPath3744">
      <rect
         style="fill:#0000ff;fill-rule:evenodd;stroke:#000000;stroke-width:0.80000001px;stroke-linecap:butt;stroke-linejoin:miter;stroke-opacity:1"
         id="rect3746"
         width="602.55212"
         height="180.88541"
         x="0"
         y="-0.84375" />
    </clipPath>
    <clipPath
       clipPathUnits="userSpaceOnUse"
       id="clipPath3748">
      <rect
         style="fill:#0000ff;fill-rule:evenodd;stroke:#000000;stroke-width:0.80000001px;stroke-linecap:butt;stroke-linejoin:miter;stroke-opacity:1"
         id="rect3750"
         width="602.55212"
         height="180.88541"
         x="0"
         y="-0.84375" />
    </clipPath>
    <clipPath
       clipPathUnits="userSpaceOnUse"
       id="clipPath3752">
      <rect
         style="fill:#0000ff;fill-rule:evenodd;stroke:#000000;stroke-width:0.80000001px;stroke-linecap:butt;stroke-linejoin:miter;stroke-opacity:1"
         id="rect3754"
         width="602.55212"
         height="180.88541"
         x="0"
         y="-0.84375" />
    </clipPath>
    <clipPath
       clipPathUnits="userSpaceOnUse"
       id="clipPath3756">
      <rect
         style="fill:#0000ff;fill-rule:evenodd;stroke:#000000;stroke-width:0.80000001px;stroke-linecap:butt;stroke-linejoin:miter;stroke-opacity:1"
         id="rect3758"
         width="602.55212"
         height="180.88541"
         x="0"
         y="-0.84375" />
    </clipPath>
    <clipPath
       clipPathUnits="userSpaceOnUse"
       id="clipPath3760">
      <rect
         style="fill:#0000ff;fill-rule:evenodd;stroke:#000000;stroke-width:0.80000001px;stroke-linecap:butt;stroke-linejoin:miter;stroke-opacity:1"
         id="rect3762"
         width="602.55212"
         height="180.88541"
         x="0"
         y="-0.84375" />
    </clipPath>
    <clipPath
       clipPathUnits="userSpaceOnUse"
       id="clipPath3764">
      <rect
         style="fill:#0000ff;fill-rule:evenodd;stroke:#000000;stroke-width:0.80000001px;stroke-linecap:butt;stroke-linejoin:miter;stroke-opacity:1"
         id="rect3766"
         width="602.55212"
         height="180.88541"
         x="0"
         y="-0.84375" />
    </clipPath>
    <clipPath
       clipPathUnits="userSpaceOnUse"
       id="clipPath3768">
      <rect
         style="fill:#0000ff;fill-rule:evenodd;stroke:#000000;stroke-width:0.80000001px;stroke-linecap:butt;stroke-linejoin:miter;stroke-opacity:1"
         id="rect3770"
         width="602.55212"
         height="180.88541"
         x="0"
         y="-0.84375" />
    </clipPath>
    <clipPath
       clipPathUnits="userSpaceOnUse"
       id="clipPath3772">
      <rect
         style="fill:#0000ff;fill-rule:evenodd;stroke:#000000;stroke-width:0.80000001px;stroke-linecap:butt;stroke-linejoin:miter;stroke-opacity:1"
         id="rect3774"
         width="602.55212"
         height="180.88541"
         x="0"
         y="-0.84375" />
    </clipPath>
    <clipPath
       clipPathUnits="userSpaceOnUse"
       id="clipPath4546">
      <rect
         style="fill:#0000ff;fill-rule:evenodd;stroke:#000000;stroke-width:0.80000001px;stroke-linecap:butt;stroke-linejoin:miter;stroke-opacity:1"
         id="rect4548"
         width="599.72229"
         height="178.22859"
         x="0.40474859"
         y="0.40480644"
         ry="0" />
    </clipPath>
    <clipPath
       clipPathUnits="userSpaceOnUse"
       id="clipPath4550">
      <rect
         style="fill:#0000ff;fill-rule:evenodd;stroke:#000000;stroke-width:0.80000001px;stroke-linecap:butt;stroke-linejoin:miter;stroke-opacity:1"
         id="rect4552"
         width="599.72229"
         height="178.22859"
         x="0.40474859"
         y="0.40480644"
         ry="0" />
    </clipPath>
    <clipPath
       clipPathUnits="userSpaceOnUse"
       id="clipPath4554">
      <rect
         style="fill:#0000ff;fill-rule:evenodd;stroke:#000000;stroke-width:0.80000001px;stroke-linecap:butt;stroke-linejoin:miter;stroke-opacity:1"
         id="rect4556"
         width="599.72229"
         height="178.22859"
         x="0.40474859"
         y="0.40480644"
         ry="0" />
    </clipPath>
    <clipPath
       clipPathUnits="userSpaceOnUse"
       id="clipPath4558">
      <rect
         style="fill:#0000ff;fill-rule:evenodd;stroke:#000000;stroke-width:0.80000001px;stroke-linecap:butt;stroke-linejoin:miter;stroke-opacity:1"
         id="rect4560"
         width="599.72229"
         height="178.22859"
         x="0.40474859"
         y="0.40480644"
         ry="0" />
    </clipPath>
    <clipPath
       clipPathUnits="userSpaceOnUse"
       id="clipPath4562">
      <rect
         style="fill:#0000ff;fill-rule:evenodd;stroke:#000000;stroke-width:0.80000001px;stroke-linecap:butt;stroke-linejoin:miter;stroke-opacity:1"
         id="rect4564"
         width="599.72229"
         height="178.22859"
         x="0.40474859"
         y="0.40480644"
         ry="0" />
    </clipPath>
    <clipPath
       clipPathUnits="userSpaceOnUse"
       id="clipPath4566">
      <rect
         style="fill:#0000ff;fill-rule:evenodd;stroke:#000000;stroke-width:0.80000001px;stroke-linecap:butt;stroke-linejoin:miter;stroke-opacity:1"
         id="rect4568"
         width="599.72229"
         height="178.22859"
         x="0.40474859"
         y="0.40480644"
         ry="0" />
    </clipPath>
    <clipPath
       clipPathUnits="userSpaceOnUse"
       id="clipPath4570">
      <rect
         style="fill:#0000ff;fill-rule:evenodd;stroke:#000000;stroke-width:0.80000001px;stroke-linecap:butt;stroke-linejoin:miter;stroke-opacity:1"
         id="rect4572"
         width="599.72229"
         height="178.22859"
         x="0.40474859"
         y="0.40480644"
         ry="0" />
    </clipPath>
    <clipPath
       clipPathUnits="userSpaceOnUse"
       id="clipPath4574">
      <rect
         style="fill:#0000ff;fill-rule:evenodd;stroke:#000000;stroke-width:0.80000001px;stroke-linecap:butt;stroke-linejoin:miter;stroke-opacity:1"
         id="rect4576"
         width="599.72229"
         height="178.22859"
         x="0.40474859"
         y="0.40480644"
         ry="0" />
    </clipPath>
    <clipPath
       clipPathUnits="userSpaceOnUse"
       id="clipPath4578">
      <rect
         style="fill:#0000ff;fill-rule:evenodd;stroke:#000000;stroke-width:0.80000001px;stroke-linecap:butt;stroke-linejoin:miter;stroke-opacity:1"
         id="rect4580"
         width="599.72229"
         height="178.22859"
         x="0.40474859"
         y="0.40480644"
         ry="0" />
    </clipPath>
    <clipPath
       clipPathUnits="userSpaceOnUse"
       id="clipPath4582">
      <rect
         style="fill:#0000ff;fill-rule:evenodd;stroke:#000000;stroke-width:0.80000001px;stroke-linecap:butt;stroke-linejoin:miter;stroke-opacity:1"
         id="rect4584"
         width="599.72229"
         height="178.22859"
         x="0.40474859"
         y="0.40480644"
         ry="0" />
    </clipPath>
    <clipPath
       clipPathUnits="userSpaceOnUse"
       id="clipPath4586">
      <rect
         style="fill:#0000ff;fill-rule:evenodd;stroke:#000000;stroke-width:0.80000001px;stroke-linecap:butt;stroke-linejoin:miter;stroke-opacity:1"
         id="rect4588"
         width="599.72229"
         height="178.22859"
         x="0.40474859"
         y="0.40480644"
         ry="0" />
    </clipPath>
    <clipPath
       clipPathUnits="userSpaceOnUse"
       id="clipPath4590">
      <rect
         style="fill:#0000ff;fill-rule:evenodd;stroke:#000000;stroke-width:0.80000001px;stroke-linecap:butt;stroke-linejoin:miter;stroke-opacity:1"
         id="rect4592"
         width="599.72229"
         height="178.22859"
         x="0.40474859"
         y="0.40480644"
         ry="0" />
    </clipPath>
    <clipPath
       clipPathUnits="userSpaceOnUse"
       id="clipPath4594">
      <rect
         style="fill:#0000ff;fill-rule:evenodd;stroke:#000000;stroke-width:0.80000001px;stroke-linecap:butt;stroke-linejoin:miter;stroke-opacity:1"
         id="rect4596"
         width="599.72229"
         height="178.22859"
         x="0.40474859"
         y="0.40480644"
         ry="0" />
    </clipPath>
  </defs>
  <sodipodi:namedview
     pagecolor="#ffffff"
     bordercolor="#666666"
     borderopacity="1"
     objecttolerance="10"
     gridtolerance="10"
     guidetolerance="10"
     inkscape:pageopacity="0"
     inkscape:pageshadow="2"
     inkscape:window-width="1109"
     inkscape:window-height="809"
     id="namedview3153"
     showgrid="false"
     inkscape:zoom="1.3356522"
     inkscape:cx="345.63275"
     inkscape:cy="42.697599"
     inkscape:window-x="114"
     inkscape:window-y="0"
     inkscape:window-maximized="0"
     inkscape:current-layer="svg3091"
     fit-margin-top="0"
     fit-margin-left="0"
     fit-margin-right="0"
     fit-margin-bottom="0" />
  <rect
     style="fill:#ff4700;fill-opacity:1;fill-rule:evenodd;stroke:#ffffff;stroke-width:0.23199998999999999;stroke-linecap:butt;stroke-linejoin:miter;stroke-miterlimit:0;stroke-opacity:0;stroke-dasharray:none"
     id="rect3016"
     width="545.46027"
     height="141.50806"
     x="56.088699"
     y="0.40411627"
     clip-path="url(#clipPath4594)"
     transform="matrix(0.99571483,0,0,1.2209005,-58.664112,-10.680198)" />
  <path
     style="fill:#000000"
     d="m 319.9984,6.7137817 c 10.20885,0.25028 24.05734,0.10086 31.15729,0.15626 1.07994,0.28238 2.45424,0.9073 2.53135,4.0095703 0.52375,4.87028 0.24766,2.9225 0.68239,12.97479 -0.71849,5.72906 4.17983,-6.54708 5.71329,-11.06701 1.11894,-3.2981103 3.18645,-4.5531903 4.38873,-4.7825403 4.64848,-0.88674 9.86992,-0.76727 13.77502,-0.79253 7.10567,0.16022 17.63285,0.025 24.57048,0.15815 3.29017,2.00254 0.87795,1.35937 2.39433,4.8471903 -0.25773,21.08386 0.0947,109.554938 -0.27681,120.039938 -1.77882,2.31738 -0.2847,4.73702 -2.66801,4.79763 -11.21925,0.28533 -6.88402,0.21451 -18.24796,0.72693 -8.63183,0.21535 -12.97555,0.45712 -15.61674,-0.0231 -2.20627,-0.40118 -3.70909,-1.02997 -6.19106,-3.5037 -2.65906,-3.36569 -9.54809,-17.70267 -8.3539,-6.39308 0.6343,5.22099 0.67476,9.15991 -1.42525,9.73075 -3.8116,1.0361 -10.33615,0.71809 -19.16097,0.89514 -7.36238,-0.29522 -6.67049,0.35119 -15.81352,0.45243 -2.18943,0.0242 -2.46416,-25.69811 -0.60443,-26.87513 6.56743,-4.15651 -12.61449,24.62809 -15.57353,24.65079 -12.33132,0.0947 -32.76135,1.78018 -40.05404,0.7238 -2.46629,-0.35725 -3.72091,-2.4626 -4.14317,-4.34958 -0.91595,-17.22269 -0.7737,3.27081 -0.25077,-123.2592993 1.22724,-1.05126 2.08174,-1.80078 3.32276,-2.03595 4.91527,-0.93145 14.4771,-0.45179 21.30013,-0.61925 13.09347,0.77173 14.64883,-2.03872 20.80916,5.9904403 3.62169,3.49981 12.44141,12.84561 12.51148,11.26064 0.0305,-3.41873 0.0803,-12.16549 0.0365,-15.5840203 1.68057,-2.93729 3.72699,-1.84998 5.18729,-2.12932 z"
     id="path3095"
     inkscape:connector-curvature="0"
     sodipodi:nodetypes="ccccssccccscsccscssssccscccccc"
     clip-path="url(#clipPath4590)"
     transform="translate(-61.840593,4.3888144)" />
  <path
     d="m 126.67813,10.845212 c -0.15,-1.7600003 1.48,-3.5300003 3.3,-3.2400003 10.86,-0.13 21.72,0.08 32.57,-0.08 3.79,4.4100003 1.17,10.5200003 2.09,15.7500003 4.28,-4.65 6.66,-10.64 10.38,-15.7200003 13.65,-0.28 27.31,-0.04 40.96,-0.12 0.79,0.84 1.59,1.69 2.4,2.54 -0.05,41.0200003 0.04,82.0399973 -0.05,123.0499983 0.27,2.09 -1.65,3.24 -2.92,4.5 -12.15,-0.56 -24.33,-0.03 -36.49,-0.26 -1.88,-0.16 -2.88,-2.03 -3.9,-3.37 -2.25783,-2.03131 -6.42,-9.18 -10.38,-13.13 -0.23,4.87 -0.2,9.75 0.06,14.61 -1.09,1 -2.18,1.99 -3.28,2.98 -10.8,-0.13 -21.61,-0.07 -32.41,-0.03 -0.89,-1.33 -2.49,-2.44 -2.33,-4.21 -0.16,-6 0.1,-12.01 -0.07,-18.01 -5.86,6.51 -9.55,14.72 -15.64,20.98 -12.680006,0.68 -25.530006,-0.26 -38.250006,0.44 -1.05,-0.99 -2.08,-1.99 -3.08,-3.02 0.36,-41.470001 0.05,-82.949998 0.15,-124.419998 0.71,-0.8900003 1.42,-1.7700003 2.13,-2.6600003 14.49,0 28.969996,0.05 43.460006,-0.02 3.82,4.9300003 6.42,10.8800003 11.17,15.0400003 0.22,-3.86 -0.03,-7.73 0.13,-11.6 z"
     id="path3097"
     inkscape:connector-curvature="0"
     style="fill:#000000"
     sodipodi:nodetypes="ccccccccccccccccccccccccc"
     clip-path="url(#clipPath4586)"
     transform="translate(-48.064551,3.789856)" />
  <path
     d="m 77.029998,11.67625 c 9.36,-0.27 18.74,0.02 28.110002,-0.15 1.57,-0.32 2.75,0.74 3.88,1.64 0.22,0.26 0.67,0.79 0.89,1.05 23.2089,22.552772 47.38372,58.481303 60.13,72.5 0.96013,0.45113 6.04657,0.683879 10.36,0.74 2.33,-1.36 5.27,-2.86 5.54,-5.9 0.39433,-25.419252 0.5021,-30.324597 0.21396,-41.455799 L 186.46,17.65625 c -0.08,-2.18 -0.54,-6.1 2.72,-6.1 8.06,-0.01 14.54978,0.09 22.60978,-0.04 1.2991,-0.0073 2.44294,0.218269 2.7161,0.861445 0.34021,0.801027 0.37278,2.647836 0.23412,3.568555 -0.12,38.83 0.16,77.65 -0.15,116.48 -10.77,0.49 -21.62,0.48 -32.39,0.01 -7.96847,-9.89563 -16.89626,-20.21303 -24.82,-29.95 -1.48,-1.8 -2.99,-3.56 -4.47,-5.36 -8.83,-11.05 -16.5058,-19.767588 -25.4358,-30.747588 -2.50732,-2.779553 -5.73465,-5.885536 -8.63331,-8.632412 -2.79535,-1.933751 -9.89964,-1.162093 -11.45357,0.904017 -1.65952,0.720207 -1.98954,1.989727 -2.48821,3.543305 -0.21,23.1 -0.20911,46.692678 -0.35911,69.802678 -13.474091,-0.13313 -14.788981,-0.35144 -28.830001,0.05 -1.41264,-12.13882 -1.27414,-28.15484 -0.07,-50.03 -0.14,-22.68 -0.04,-45.37 -0.05,-68.06 0.36,-0.57 1.08,-1.71 1.44,-2.28 z"
     id="path3103"
     inkscape:connector-curvature="0"
     style="fill:#ffffff"
     sodipodi:nodetypes="cccccccccccscccccccccccccc"
     clip-path="url(#clipPath4582)"
     transform="translate(-48.064551,3.789856)" />
  <path
     d="m 441.3,6.84625 c 13.83,0.15 27.46261,-0.1426095 41.28261,0.4973905 1.78173,3.2786865 1.93434,2.3321715 2.11434,2.8821715 2.73044,4.411734 3.30305,6.840438 6.52305,10.080438 0.19,-3.67 0.14,-7.35 0.08,-11.03 0.71,-0.79 1.41,-1.59 2.12,-2.39 11.14,-0.08 22.29,-0.08 33.43,-0.03 1.68,-0.29 2.56,1.28 3.65,2.24 -0.34,5.38 -0.11,10.76 -0.23,16.14 0.43,-0.04 1.28,-0.12 1.71,-0.16 2.43,-5.47 6.23,-10.15 9.13,-15.36 0.81,-1.31 1.75,-3.11 3.6,-2.84 13.54,-0.09 27.08,-0.04 40.62,-0.02 0.61,0.77 1.24,1.54 1.86,2.3 -0.03,41.81 -0.02,83.62 0,125.42 -0.75,0.73 -1.5,1.46 -2.23,2.19 -12.85,-0.03 -26.8314,-0.4602 -39.6614,-0.0102 -2.3904,-1.8698 -5.85612,-8.35477 -7.9732,-11.2456 -3.69479,-5.63 -3.9454,-5.3042 -6.9054,-10.8642 -0.31,7.33 0.17,14.67 -0.29,21.99 -0.9286,1.1406 -0.946,0.8696 -2.6354,1.09 -9.38,-0.06 -22.4546,-0.05 -31.8346,0.01 -1.89,0.26 -3.39,-1.3 -4.16,-2.83 -0.52,-5.21 0.01,-10.48 -0.11,-15.71 -3.0198,3.3728 -4.4708,5.7012 -6.2506,8.2214 -3.2404,5.102 -5.8812,7.9102 -8.0994,9.4786 -11.81,-0.36 -23.63,-0.27 -35.44,-0.05 -0.82,-0.76 -1.62,-1.52 -2.43,-2.28 0,-41.83 0.03,-83.66 -0.01,-125.49 0.71,-0.74 1.42,-1.49 2.14,-2.23 z"
     id="path3099"
     inkscape:connector-curvature="0"
     style="fill:#000000"
     sodipodi:nodetypes="cccccccccccccccccccccccccccccc"
     clip-path="url(#clipPath4578)"
     transform="translate(-72.621843,4.3888144)" />
  <path
     style="fill:#ffffff"
     d="m 456.22,10.961206 c 7.67896,0.01763 16.99623,-0.135064 23.05,-0.05496 1.49485,2.472481 4.76898,6.944178 7.1233,10.410846 7.11141,11.600106 11.99779,18.439909 19.85211,29.553085 2.34596,3.277481 10.19688,3.824088 13.14739,0.453854 10.39687,-12.353172 17.22099,-27.140644 26.2772,-40.417781 2.56778,0.0037 17.2595,-0.172499 24.4277,0.120153 0.29331,0.547753 0.33163,0.08449 -1.03675,2.784113 -2.38214,5.69374 -18.92155,30.350505 -27.89156,42.826047 -2.26519,3.481072 -5.01533,6.039243 -6.96939,9.469687 -1.07106,5.646083 1.47375,8.928444 4.81534,13.177781 7.41995,10.542392 15.91708,20.283939 22.81489,31.203189 4.38841,6.72785 9.22075,11.81546 12.48727,18.60278 -0.34996,1.33175 -1.34709,2.56486 -2.95069,2.70362 -7.46809,0.64624 -18.02412,0.0738 -22.20707,0.12899 -2.78949,0.29788 -2.72178,-0.49747 -3.99884,-2.28729 -3.50956,-5.06684 -17.04972,-25.7869 -24.1309,-37.58907 -4.2006,-5.499114 -12.54388,-6.254516 -16.59482,-0.578843 -2.80355,3.823682 -5.98948,7.994483 -8.62479,11.850463 -5.43556,8.01674 -17.02558,24.01568 -18.59119,27.52236 -2.06201,1.5143 -1.5257,1.59335 -4.95763,1.44998 -5.17887,0.0724 -17.37002,0.24257 -20.95157,-0.28396 -0.63374,-1.53379 -0.72985,-2.97518 -0.45942,-4.35043 1.02228,-5.19871 7.28242,-9.45242 9.53937,-14.18049 10.84896,-13.32382 20.72792,-27.405781 30.81005,-41.29908 1.25267,-5.416873 -1.97586,-8.946365 -5.457,-13.20139 -5.92299,-6.866917 -22.9797,-32.57288 -29.80724,-43.209713 -1.96458,-3.283451 -1.34127,-3.859243 0.28424,-4.803941 z"
     id="path3101"
     inkscape:connector-curvature="0"
     sodipodi:nodetypes="cccccccccccccsccccccccsccccc"
     clip-path="url(#clipPath4574)"
     transform="translate(-72.621843,4.3888144)" />
  <path
     d="m 320.25298,11.789226 c 8.5,-0.24 17.03702,-0.07298 25.53702,-0.08298 1.59,-0.17 3.86,0.59 3.52,2.6 -0.04,39.05 0.15,78.11 -0.1,117.160004 -0.57,0.34 -1.69,1.03 -2.26,1.37 -8.46,-0.01 -16.93,0 -25.4,0 -0.56,-0.34 -1.69,-1.01 -2.25,-1.35 -0.22,-39.530004 -0.17,-79.080004 -0.03,-118.620004 0.17859,-1.286397 0.064,-0.859629 0.98298,-1.077024 z"
     id="path3105"
     inkscape:connector-curvature="0"
     style="fill:#ffffff"
     sodipodi:nodetypes="ccccccccc"
     clip-path="url(#clipPath4570)"
     transform="translate(-61.840593,4.3888144)" />
  <path
     d="m 181.92,55.22625 c 1.18,5.65 0.24,11.48 0.56,17.2 -0.3,2.97 0.91,6.68 -1.55,8.98 -2.53,-3.3 -4.66,-6.92 -7.67,-9.82 0.11,-1.6 -0.49,-3.54 0.89,-4.75 3,-3.58 5.45,-7.57 7.77,-11.61 z"
     id="path3109"
     inkscape:connector-curvature="0"
     style="fill:#ff4700;fill-opacity:1"
     clip-path="url(#clipPath4566)"
     transform="translate(-48.064551,3.789856)" />
  <path
     d="m 361.76,66.32625 c 2.82,-3.27 4.92,-7.06 7.41,-10.57 -0.06,8.6 0.22,17.2 -0.13,25.78 -3.82,-3.01 -5.84,-7.58 -9.15,-11.06 0.44,-1.45 0.77,-3.01 1.87,-4.15 z"
     id="path3111"
     inkscape:connector-curvature="0"
     style="fill:#ff4700;fill-opacity:1"
     clip-path="url(#clipPath4562)"
     transform="translate(-61.840593,4.3888144)" />
  <path
     d="m 296.12,65.51625 c -0.07,-3.16 3.69,-3.71 5.9,-4.8 2.67,2.18 4.45,5.15 6.16,8.09 -3.62,5.9 -7.97,11.33 -12.02,16.94 -0.17,-6.74 -0.23,-13.49 -0.04,-20.23 z"
     id="path3115"
     inkscape:connector-curvature="0"
     style="fill:#ff4700;fill-opacity:1"
     clip-path="url(#clipPath4558)"
     transform="translate(-61.840593,4.3888144)" />
  <path
     id="path3010"
     d="m 540.93109,66.32625 c 2.82,-3.27 4.92,-7.06 7.41,-10.57 -0.06,8.6 0.22,17.2 -0.13,25.78 -3.82,-3.01 -5.84,-7.58 -9.15,-11.06 0.44,-1.45 0.77,-3.01 1.87,-4.15 z"
     inkscape:connector-curvature="0"
     style="fill:#ff4700;fill-opacity:1"
     clip-path="url(#clipPath4554)"
     transform="translate(-72.621843,4.3888144)" />
  <path
     id="path3014"
     d="m 474.01586,65.51625 c -0.07,-3.16 3.69,-3.71 5.9,-4.8 2.67,2.18 4.45,5.15 6.16,8.09 -3.62,5.9 -7.97,11.33 -12.02,16.94 -0.17,-6.74 -0.23,-13.49 -0.04,-20.23 z"
     inkscape:connector-curvature="0"
     style="fill:#ff4700;fill-opacity:1"
     clip-path="url(#clipPath4550)"
     transform="translate(-72.621843,4.3888144)" />
</svg>
